<svg viewBox="0 0 916 1222" version="1.1" xmlns="http://www.w3.org/2000/svg">
<defs>
<clipPath id="c0_17"><path d="M-.2 1222.5V-.2H918.5V1222.5Z"/></clipPath>
<style>
.g0_17{fill:#AFB5B3;}
.g1_17{fill:none;stroke:#231F20;stroke-width:0.763;stroke-linejoin:bevel;}
.g2_17{fill:#767D77;}
.g3_17{fill:#3AC1F0;}
.g4_17{fill:#A85B25;}
.g5_17{fill:#231F20;}
.g6_17{fill:#AFCBE0;}
.g7_17{fill:#EE2C28;}
.g8_17{fill:#FFF;}
</style>
</defs>
<g clip-path="url(#c0_17)">
<path d="M348.9 281.2H565.5V225.7H348.9v55.5Z" class="g0_17"/>
<path d="M565.5 281.2H348.9V225.7H565.5v55.5Z" class="g1_17"/>
<path d="M349.3 337.4H565.1V283.2H349.3v54.2Z" class="g2_17"/>
<path d="M349.3 283.2H565.1v54.2H349.3V283.2Z" class="g1_17"/>
<path d="M385.3 142.1H530.2V113.7H385.3v28.4Z" class="g3_17"/>
<path d="M385.3 142.1V113.7H530.2v28.4" class="g1_17"/>
<path d="M350.3 276.2H563.5v-6.5H350.3v6.5Z" class="g4_17"/>
<path d="M349.8 241.7H563.1v-6.5H349.8v6.5Z" class="g4_17"/>
<path d="M376 271.1h2.7V238.8H376v32.3Z" class="g4_17"/>
<path d="M527.7 271.1h2.7V238.7h-2.7v32.4Z" class="g4_17"/>
<path d="M451.6 242.7h4.7v-9.1h-4.7v9.1Z" class="g0_17"/>
<path d="M462.3 242.5h4.6v-9.1h-4.6v9.1Z" class="g0_17"/>
<path d="M515.5 258.7h12.3" class="g1_17"/>
<path d="M524.9 254.8c.9 1.6 2.4 2.9 4 3.9c-1.6 .9-3 2.3-4 3.8h-1c1-1.5 2.2-2.8 3.7-3.8c-1.5-1-2.7-2.4-3.7-3.9h1Z" class="g5_17"/>
<path d="M384.4 224.3H531V141.7H384.4v82.6Z" class="g6_17"/>
<path d="M523.1 141.8v82.3Z" class="g6_17"/>
<path d="M523.1 142.9V223" class="g1_17"/>
<path d="M527 145.8c-1.6-1-2.9-2.4-3.9-4c-.9 1.6-2.3 3-3.8 4v1c1.5-1 2.8-2.2 3.8-3.7c1 1.5 2.4 2.7 3.9 3.7v-1Z" class="g5_17"/>
<path d="M527 220.1c-1.6 .9-2.9 2.4-3.9 4c-.9-1.6-2.3-3-3.8-4v-1c1.5 1 2.8 2.2 3.8 3.7c1-1.5 2.4-2.7 3.9-3.7v1Z" class="g5_17"/>
<path d="M246.5 511.3H450.1v-69H246.5v69Z" class="g3_17"/>
<path d="M246.5 442.3H450.1v69H246.5v-69Zm-8.2 1.2v65.7" class="g1_17"/>
<path d="M242.2 446.4c-1.6-.9-2.9-2.4-3.9-4c-1 1.6-2.3 3-3.9 4v1c1.6-1 2.9-2.2 3.9-3.7c1 1.5 2.4 2.7 3.9 3.7v-1Z" class="g5_17"/>
<path d="M242.2 506.3c-1.6 1-2.9 2.4-3.9 4c-1-1.6-2.3-3-3.9-4v-1c1.6 1 2.9 2.3 3.9 3.7c1-1.4 2.4-2.7 3.9-3.7v1Z" class="g5_17"/>
<path fill-rule="evenodd" d="M467.3 465.7v21.6H674.8V465.7H618.9V426.8H523.2v38.9H467.3Z" class="g3_17"/>
<path d="M467.3 465.7v21.6H674.8V465.7H618.9V426.8H523.2v38.9H467.3Zm45.6-39v37.4" class="g1_17"/>
<path d="M516.8 429.6c-1.6-1-2.9-2.5-3.9-4c-1 1.6-2.3 3-3.9 4v.9c1.6-1 2.9-2.2 3.9-3.7c1 1.5 2.4 2.8 3.9 3.7v-.9Z" class="g5_17"/>
<path d="M516.8 461.2c-1.6 1-2.9 2.5-3.9 4.1c-1-1.6-2.3-3.1-3.9-4.1v-.9c1.6 1 2.9 2.2 3.9 3.7c1-1.5 2.4-2.8 3.9-3.7v.9Z" class="g5_17"/>
<path d="M675.1 441.8v22.8" class="g1_17"/>
<path d="M678.9 461.7c-1.6 1-2.8 2.5-3.8 4c-1-1.6-2.3-3-3.9-4v-.9c1.5 1 2.9 2.2 3.9 3.6c1-1.4 2.3-2.7 3.8-3.7v1Z" class="g5_17"/>
<path d="M675.1 511.7V488.8" class="g1_17"/>
<path d="M671.2 491.7c1.6-.9 2.9-2.4 3.9-4c1 1.6 2.3 3 3.8 4v1c-1.5-1-2.8-2.2-3.8-3.7c-1 1.5-2.4 2.7-3.9 3.7v-1Z" class="g5_17"/>
<path fill-rule="evenodd" d="M241.7 584.5v21.6H449.2V584.5H393.3V545.6H297.6v38.9H241.7Z" class="g3_17"/>
<path d="M241.7 584.5v21.6H449.2V584.5H393.3V545.6H297.6v38.9H241.7Z" class="g1_17"/>
<path d="M241.3 610.2H448.7v-4.3H241.3v4.3Z" class="g7_17"/>
<path d="M241.3 605.9H448.7v4.3H241.3v-4.3Z" class="g1_17"/>
<path fill-rule="evenodd" d="M466.3 584.1v21.6H673.7V584.1H617.9V545.2H522.1v38.9H466.3Z" class="g3_17"/>
<path d="M466.3 584.1v21.6H673.7V584.1H617.9V545.2H522.1v38.9H466.3Z" class="g1_17"/>
<path d="M465.8 609.9H673.2v-4.3H465.8v4.3Z" class="g7_17"/>
<path d="M465.8 605.6H673.2v4.3H465.8v-4.3Z" class="g1_17"/>
<path d="M558.1 610.6H570v-5.1H558.1v5.1Z" class="g8_17"/>
<path d="M578.5 610.4h12v-4.7h-12v4.7Z" class="g8_17"/>
</g>
</svg>