<svg viewBox="0 0 916 1222" version="1.1" xmlns="http://www.w3.org/2000/svg">
<defs>
<clipPath id="c0_2"><path d="M-.2 1222.5V-.2H918.5V1222.5Z"/></clipPath>
<style>
.g0_2{fill:#3AC1F0;}
.g1_2{fill:none;stroke:#231F20;stroke-width:0.763;stroke-linejoin:bevel;stroke-dasharray:5,4;}
.g2_2{fill:none;stroke:#231F20;stroke-width:0.763;stroke-linejoin:bevel;}
.g3_2{fill:#335EAB;}
.g4_2{fill:none;stroke:#231F20;stroke-width:0.77;stroke-miterlimit:10;}
</style>
</defs>
<g clip-path="url(#c0_2)">
<path d="M414.3 172.7l-20.8 25.9H320.8l26-25.9h67.5Z" class="g0_2"/>
<path d="M414.3 172.7l-20.8 25.9H320.8l26-25.9h67.5Z" class="g1_2"/>
<path d="M414.1 126.2l-20.8 26H320.6l26-26h67.5Z" class="g0_2"/>
<path d="M414.1 126.2l-20.8 26H320.6l26-26h67.5Z" class="g2_2"/>
<path d="M393.5 152.2V199" class="g1_2"/>
<path d="M414.2 126.2V173l-20.7 26V152.2l20.7-26Z" class="g0_2"/>
<path d="M414.2 126.2V173l-20.7 26V152.2l20.7-26Z" class="g2_2"/>
<path d="M320.7 152.2V199" class="g1_2"/>
<path d="M320.7 199h72.8V152.2H320.7V199Z" class="g0_2"/>
<path d="M320.7 152.2h72.8V199H320.7V152.2Z" class="g2_2"/>
<path d="M346.7 173h67.5m-67.5-46.8V173l-26 26" class="g1_2"/>
<path d="M430.7 187.5c.1-6.8 15.1-12.5 33.5-13c18.4-.4 33.4 4.6 33.6 11.3c.2 6.7-14.6 12.6-33 13.1c-18.4 .6-33.7-4.4-34.1-11.1Z" class="g0_2"/>
<path d="M430.7 187.5c.1-6.8 15-12.5 33.5-13c18.4-.4 33.4 4.6 33.6 11.3c.2 6.7-14.6 12.6-33 13.1c-18.4 .6-33.7-4.4-34.1-11.1m.2-62v62.1m67.2-63.1v61.9" class="g2_2"/>
<path d="M431.5 186.7h66.1V127.9H431.5v58.8Z" class="g0_2"/>
<path d="M430.9 126.5c.1-6.7 15.1-12.4 33.5-12.9c18.5-.4 33.5 4.6 33.6 11.3c.2 6.7-14.5 12.6-33 13.1c-18.4 .6-33.6-4.4-34.1-11.1Z" class="g0_2"/>
<path d="M430.9 126.5c.1-6.7 15.1-12.4 33.5-12.9c18.5-.4 33.5 4.6 33.6 11.3c.2 6.7-14.5 12.6-33 13.1c-18.4 .6-33.6-4.4-34.1-11.1" class="g2_2"/>
<path d="M498.1 186.7c-19.3-11.1-39.6-18.1-67.2 0" class="g1_2"/>
<path d="M514.3 180.1c.1-10.6 17.7-19.3 39.5-19.5c21.7-.1 39.3 8.4 39.6 19c.2 10.6-17.2 19.4-38.9 19.7c-21.7 .4-39.6-8-40.1-18.6l-.1-.6Z" class="g0_2"/>
<path d="M514.9 179.3c-1.8-49.9 76.8-54.5 78.9 0H514.9Z" class="g0_2"/>
<path d="M514.9 179.3c-1.8-49.9 76.8-54.5 78.9 0" class="g2_2"/>
<path d="M514.9 180.4c-1.1-10.3 14.8-18.9 35.9-19.4c21.2-.5 40.1 7.4 42.8 17.6" class="g1_2"/>
<path d="M593.8 179.2c-.1 10.6-17.6 19.3-39.3 19.5c-21.7 .1-39.4-8.2-39.7-18.9" class="g2_2"/>
<path d="M295.9 316.1l89.6 .1l-48.8-48.8l-40.8 48.7Z" class="g0_2"/>
<path d="M295.9 316.1l89.6 .1l-48.8-48.8l-40.8 48.7Z" class="g2_2"/>
<path d="M336.7 267.4l23.3-.2L408.9 310l-23.4 6.2Z" class="g0_2"/>
<path d="M336.7 267.4l23.3-.2L408.9 310l-23.4 6.2" class="g2_2"/>
<path d="M360 267.2V310l-64.1 6.1L360 310h48.9" class="g1_2"/>
<path d="M426.1 298.4l.4 6l13 11.9l-.4-6l-13-11.9Z" class="g0_2"/>
<path d="M426.1 298.4l.4 6l13 11.9l-.4-6l-13-11.9Z" class="g2_2"/>
<path d="M439.1 310.3l.4 6l36.6-30.6L501 308l-.4-4.9l-25.8-22.4l-35.7 29.6Z" class="g0_2"/>
<path d="M439.1 310.3l.4 6l36.6-30.6L501 308l-.4-4.9l-25.8-22.4l-35.7 29.6Z" class="g2_2"/>
<path d="M500.8 303.4l.2 4.6l16.2-13.7l-.3-4.2l-16.1 13.3Z" class="g0_2"/>
<path d="M500.8 303.4l.2 4.6l16.2-13.7l-.3-4.2l-16.1 13.3Z" class="g2_2"/>
<path d="M426.1 298.2l13 12.1l35.7-29.9l26 22.9l16.1-13.5l-22.4-19.3l-4-3.4l28.6-23.6l-13-12l-28.9 23.9l-27.1-23.9l-16.6 12.1l28.1 24.8l-35.5 29.8Z" class="g0_2"/>
<path d="M426.1 298.2l13 12.1l35.7-29.9l26 22.9l16.1-13.5l-22.4-19.3l-4-3.4l28.6-23.6l-13-12l-28.9 23.9l-27.1-23.9l-16.6 12.1l28.1 24.8l-35.5 29.8Z" class="g2_2"/>
<path d="M501 308l-24.9-22.3Z" class="g0_2"/>
<path d="M501 308l-24.9-22.3" class="g2_2"/>
<path d="M433.6 243.8l.6 4.4l25.1 22.3l2.5-2.2l-28.2-24.5Z" class="g0_2"/>
<path d="M433.6 243.8l.6 4.4l25.1 22.3l2.5-2.2l-28.2-24.5Z" class="g2_2"/>
<path d="M490.7 267.1l28.4-23.5l.4 6.1l-24.8 20.8l-4-3.4Z" class="g0_2"/>
<path d="M490.7 267.1l28.4-23.5l.4 6.1l-24.8 20.8l-4-3.4Z" class="g2_2"/>
<path d="M535.9 284.2c28.6-7.6 45.7-9.2 61.6 1c-3.1-11 4.7-18.9 20.8-25.4c-41.4 12.5-46.3 6.5-57.4 1c4.3 12.9-10 17.5-25 23.4Z" class="g0_2"/>
<path d="M535.9 284.2c28.6-7.6 45.7-9.2 61.6 1c-3.1-11 4.7-18.9 20.8-25.4c-41.4 12.5-46.3 6.5-57.4 1c4.3 12.9-10 17.5-25 23.4Z" class="g2_2"/>
<path d="M535.8 315.3c28.6-7.6 45.7-9.2 61.6 1c-3.1-11 4.7-18.9 20.8-25.4c-41.4 12.5-46.3 6.5-57.4 1c4.3 12.9-10 17.5-25 23.4Z" class="g0_2"/>
<path d="M535.8 315.3c28.6-7.6 45.7-9.2 61.6 1c-3.1-11 4.7-18.9 20.8-25.4c-41.4 12.5-46.3 6.5-57.4 1c4.3 12.9-10 17.5-25 23.4Z" class="g2_2"/>
<path d="M536.6 283.4v31.3c26.3-8 46-7.3 60.3 .8l.8-30.5c-14.4-7.9-33.6-9.9-61.1-1.6Z" class="g0_2"/>
<path d="M536.6 283.4v31.3c26.3-8 46-7.3 60.3 .8l.8-30.5c-14.4-7.9-33.6-9.9-61.1-1.6Z" class="g2_2"/>
<path d="M596.9 284.2l.4 31.7c-1.1-8.3-.1-16.6 20.6-24.8l-.4-31.3c-9.9 6.3-24 9.9-19.8 25.5Z" class="g0_2"/>
<path d="M596.9 284.2l.4 31.7c-1.1-8.3-.1-16.6 20.6-24.8l-.4-31.3c-9.9 6.3-24 9.9-19.8 25.5" class="g2_2"/>
<path d="M337 350.1l-16.1 13.5v47L337 393.8V350.1Z" class="g0_2"/>
<path d="M365.8 350.2l-16.1 13.5v47l16.1-16.8V350.2Z" class="g0_2"/>
<path d="M365.8 350.2l-16.1 13.5v47l16.1-16.8V350.2Z" class="g2_2"/>
<path d="M365.7 350.2H336.8l-16.1 13.4h29l16-13.4Z" class="g0_2"/>
<path d="M365.7 350.2H336.8l-16.1 13.4h29l16-13.4Z" class="g2_2"/>
<path d="M320.7 410.6h29v-47h-29v47Z" class="g0_2"/>
<path d="M349.7 363.6h-29v47h29v-47Z" class="g2_2"/>
<path d="M336.8 350.2v43.6l-16.1 16.8" class="g1_2"/>
<path d="M373.5 350.1l-16 13.5v47l16-16.8V350.1Z" class="g0_2"/>
<path d="M402.3 350.2l-16.1 13.5v47l16.1-16.8V350.2Z" class="g0_2"/>
<path d="M402.3 350.2l-16.1 13.5v47l16.1-16.8V350.2Z" class="g2_2"/>
<path d="M402.3 350.2h-29l-16 13.4h28.9l16.1-13.4Z" class="g0_2"/>
<path d="M402.3 350.2h-29l-16 13.4h28.9l16.1-13.4Z" class="g2_2"/>
<path d="M357.5 410.6v-47" class="g1_2"/>
<path d="M357.3 410.6h28.9v-47H357.3v47Z" class="g0_2"/>
<path d="M386.2 363.6H357.3v47h28.9v-47Z" class="g2_2"/>
<path d="M373.3 350.2v43.6l-16 16.8m45-16.7l-29-.1m-36.3 0h20.1" class="g1_2"/>
<path d="M495.9 397.3l-17.2 13.1H418.5L440 397.3h55.9Z" class="g0_2"/>
<path d="M495.7 373.9L478.5 387H418.3l21.5-13.1h55.9Z" class="g0_2"/>
<path d="M495.7 373.9L478.5 387H418.3l21.5-13.1h55.9Z" class="g2_2"/>
<path d="M495.8 373.9v23.6l-17.2 13.1V387l17.2-13.1Z" class="g0_2"/>
<path d="M495.8 373.9v23.6l-17.2 13.1V387l17.2-13.1Z" class="g2_2"/>
<path d="M418.5 410.6h60.1V387H418.5v23.6Z" class="g0_2"/>
<path d="M439.9 387v10.5l-21.4 13.1" class="g1_2"/>
<path d="M418.5 387h60.1v23.6H418.5V387Z" class="g2_2"/>
<path d="M439.9 397.5h55.9" class="g1_2"/>
<path d="M484.4 374.7l-12.6 9.6H427.9l15.7-9.6h40.8Z" class="g0_2"/>
<path d="M484.3 357.6l-12.6 9.5H427.8l15.7-9.5h40.8Z" class="g0_2"/>
<path d="M484.3 357.6l-12.6 9.5H427.8l15.7-9.5h40.8Z" class="g2_2"/>
<path d="M484.3 357.6v17.2l-12.5 9.6V367.1l12.5-9.5Z" class="g0_2"/>
<path d="M484.3 357.6v17.2l-12.5 9.6V367.1l12.5-9.5Z" class="g2_2"/>
<path d="M427.9 384.4h43.9V367.1H427.9v17.3Z" class="g0_2"/>
<path d="M427.9 367.1h43.9v17.3H427.9V367.1Z" class="g2_2"/>
<path d="M443.5 374.8h40.8m-40.8-17.2v17.2l-15.6 9.6" class="g1_2"/>
<path d="M593.9 397.3l-17.8 13.1H513.8l22.3-13.1h57.8Z" class="g0_2"/>
<path d="M593.7 373.8L575.9 387H513.7l22.2-13.2h57.8Z" class="g0_2"/>
<path d="M593.7 373.8L575.9 387H513.7l22.2-13.2h57.8Z" class="g2_2"/>
<path d="M593.8 373.9v23.6L576 410.6V387l17.8-13.1Z" class="g0_2"/>
<path d="M593.8 373.9v23.6L576 410.6V387l17.8-13.1Z" class="g2_2"/>
<path d="M513.8 410.6H576V387H513.8v23.6Z" class="g0_2"/>
<path d="M513.8 387H576v23.6H513.8V387Z" class="g2_2"/>
<path d="M536 397.5h57.8M536 373.9v23.6l-22.2 13.1" class="g1_2"/>
<path d="M594.2 374.9l-17.9 14.2H513.6L536 374.9h58.2Z" class="g3_2"/>
<path d="M594 349.6l-17.9 14.2H513.5l22.3-14.2H594Z" class="g3_2"/>
<path d="M594 349.6l-17.9 14.2H513.5l22.3-14.2H594Z" class="g2_2"/>
<path d="M594.1 349.6v25.5l-17.9 14.2V363.8l17.9-14.2Z" class="g3_2"/>
<path d="M594.1 349.6v25.5l-17.9 14.2V363.8l17.9-14.2Z" class="g2_2"/>
<path d="M513.6 389.3h62.6V363.8H513.6v25.5Z" class="g3_2"/>
<path d="M513.6 363.8h62.6v25.5H513.6V363.8Z" class="g2_2"/>
<path d="M535.9 375.1h58.2M535.3 350v25.5l-22.4 14.2" class="g1_2"/>
<path d="M568.1 1051.2h52.7m-24.8 5.5h24.8m14.1-30.7H793.7m-147.5 25.2h23.5m43.3 0h64.4m-209.3 63.9h52.7m-24.8 5.4h24.8m14.4-34.9H797.4m-149.3 29.5h23.6m45 0h64.4" class="g4_2"/>
</g>
</svg>