<svg viewBox="0 0 916 1222" version="1.1" xmlns="http://www.w3.org/2000/svg">
<defs>
<clipPath id="c0_1"><path d="M763.6 153.1v-77h77.1v77Z"/></clipPath>
<clipPath id="c1_1"><path d="M-.2 1222.5V-.2H918.5V1222.5Z"/></clipPath>
<style>
.g0_1{fill:#58595B;}
.g1_1{fill:none;stroke:#231F20;stroke-width:0.77;stroke-miterlimit:10;}
</style>
</defs>
<g clip-path="url(#c1_1)">
<path d="M795 985.2h11.4" class="g1_1"/>
<g clip-path="url(#c0_1)">
<image x="767" y="97" width="32" height="32" href="shade/1.png"/>
<image x="805" y="79" width="32" height="33" href="shade/2.png"/>
<image x="784" y="76" width="57" height="57" href="shade/3.png"/>
<image x="763" y="76" width="57" height="57" href="shade/4.png"/>
<path clip-path="url(#c0_1)" d="M775.9 139v6h-10v-6H764v13.7h1.9v-6h10v6h2V139Z" class="g0_1"/>
<path d="M780.5 152.7h1.7V142.4h-1.7v10.3Zm0-11.8h1.7V139h-1.7v1.9Z" class="g0_1"/>
<path d="M789.4 142.3c-1.5 0-2.5 .2-3.1 1.1v-1h-1.7v10.3h1.8v-6.6c0-1.7 .5-2.3 3.7-2.3h.3c2.6 0 2.8 .7 2.8 1.8v7.1H795v-7.5c0-1.1-.5-2.9-3.6-2.9Z" class="g0_1"/>
<path d="M798.5 149.2v-3.4c0-1.7 .9-2 2.7-2H803c1.8 0 2.8 .3 2.8 2v3.3c0 .8-.2 1.3-.5 1.6c-.4 .4-1.1 .6-2 .6h-2.2c-2.2 0-2.6-.7-2.6-2.1m7.3-10.2v4c-.5-.5-1.2-.7-2.4-.7h-2.1c-3.3 0-4.5 1-4.5 3.7v3.2c0 3.1 2.2 3.6 4.4 3.6h1.9c1.3 0 2.2-.4 2.8-1v.9h1.6V139Z" class="g0_1"/>
<path d="M811 150.2v-1.4c0-.5 .2-.7 .4-.8c.3-.2 .8-.3 1.7-.3h2.1c2.3 0 2.9 .3 2.9 1.1v1.5c0 .4-.2 .6-.7 .8c-.5 .1-1.6 .2-2.6 .2H813c-1.9 0-2-.4-2-1.1m2.2-7.9c-2.5 0-3.6 .7-3.6 2.3v.6h1.8v-.5c0-.5 .2-.9 1.9-.9h2c2.1 0 2.8 .2 2.8 1.5v1.6c-.6-.5-1.3-.7-2.7-.7h-2.2c-2.3 0-3.9 .2-3.9 2.3v1.6c0 .9 .2 1.5 .6 2c.4 .4 1.1 .7 2.2 .7h3.3c1.5 0 2.2-.1 2.7-.6v.4h1.7v-7.3c0-2.8-2.2-3-4.4-3h-2.2Z" class="g0_1"/>
<path d="M835.6 142.4c0 0-2.6 7.6-3 8.4c-.3-.8-2.4-8.4-2.4-8.4h-2.3c0 0-2.1 7.6-2.4 8.4c-.4-.8-3-8.4-3-8.4h-1.9l3.8 10.3h2.2c0 0 2.1-7.5 2.4-8.4c.4 .9 2.5 8.4 2.5 8.4h2.1l3.9-10.3Z" class="g0_1"/>
<path d="M838.6 152.7h1.8V142.4h-1.8v10.3Zm0-11.8h1.8V139h-1.8v1.9Z" class="g0_1"/>
</g>
</g>
</svg>