<svg viewBox="0 0 916 1222" version="1.1" xmlns="http://www.w3.org/2000/svg">
<defs>
<clipPath id="c0_11"><path d="M-.2 1222.5V-.2H918.5V1222.5Z"/></clipPath>
<style>
.g0_11{fill:#2A793C;}
.g1_11{fill:none;stroke:#231F20;stroke-width:0.763;stroke-linejoin:bevel;}
.g2_11{fill:#3AC1F0;}
.g3_11{fill:#F07A2B;}
.g4_11{fill:#231F20;}
.g5_11{fill:none;stroke:#231F20;stroke-width:0.763;stroke-linejoin:bevel;stroke-dasharray:5,4;}
.g6_11{fill:#FFF;}
.g7_11{fill:#ED4127;}
</style>
</defs>
<g clip-path="url(#c0_11)">
<path d="M444.4 251.1H708.3V235.5H444.4v15.6Z" class="g0_11"/>
<path d="M444.4 235.5H708.3v15.6H444.4V235.5Z" class="g1_11"/>
<path d="M530.4 229.6H637.6V179.8H530.4v49.8Z" class="g2_11"/>
<path d="M530.4 229.6V179.8H637.6v49.8" class="g1_11"/>
<path d="M444.5 235.6H707.3v-5.4H444.5v5.4Z" class="g3_11"/>
<path d="M444.5 230.2H707.3v5.4H444.5v-5.4Zm235.3-59.4l-4 68.8" class="g1_11"/>
<path d="M679.8 236.9c-1.7 .8-3 2.3-4.1 3.8c-.9-1.7-2.1-3.2-3.6-4.3v-.9c1.5 1.1 2.8 2.3 3.7 3.9c1.1-1.4 2.5-2.6 4-3.5v1Z" class="g4_11"/>
<path d="M458.9 231.5l7.1-51.4" class="g1_11"/>
<path d="M461.8 182.5c1.7-.7 3.2-2 4.3-3.5c.8 1.7 1.9 3.3 3.3 4.5l-.1 1c-1.4-1.2-2.5-2.6-3.3-4.2c-1.2 1.3-2.7 2.4-4.4 3.1l.2-.9Z" class="g4_11"/>
<path d="M201.5 252.1H417.3V113.9H201.5V252.1Z" class="g3_11"/>
<path d="M201.5 113.9H417.3V252.1H201.5V113.9Zm164.6 25.2v94.3" class="g1_11"/>
<path d="M369.9 142c-1.6-1-2.8-2.5-3.8-4c-1 1.5-2.3 3-3.9 4v.9c1.5-1 2.9-2.2 3.9-3.7c1 1.5 2.3 2.8 3.8 3.7V142Z" class="g4_11"/>
<path d="M369.9 230.5c-1.6 .9-2.8 2.4-3.8 4c-1-1.6-2.3-3-3.9-4v-1c1.5 1 2.9 2.2 3.9 3.7c1-1.5 2.3-2.7 3.8-3.7v1Z" class="g4_11"/>
<path d="M645.9 180.7v47.1" class="g1_11"/>
<path d="M649.7 183.6c-1.6-.9-2.9-2.4-3.8-4c-1 1.6-2.3 3-3.9 4v1c1.5-1 2.9-2.2 3.9-3.7c1 1.5 2.3 2.7 3.8 3.7v-1Z" class="g4_11"/>
<path d="M649.7 224.9c-1.6 1-2.9 2.5-3.8 4c-1-1.6-2.3-3-3.9-4V224c1.5 1 2.9 2.2 3.9 3.7c1-1.5 2.3-2.8 3.8-3.8v1Z" class="g4_11"/>
<path d="M250.6 185c.4-27.5 23-49.5 50.4-49.2c27.5 .2 49.6 22.6 49.6 50c0 27.5-22.2 49.8-49.7 50c-27.4 .2-49.9-21.8-50.3-49.3Z" class="g2_11"/>
<path d="M250.6 185c.4-27.5 23-49.4 50.4-49.2c27.5 .2 49.6 22.6 49.6 50c0 27.5-22.2 49.8-49.7 50c-27.4 .2-49.9-21.8-50.3-49.3" class="g5_11"/>
<path d="M579.1 133.6v45.6" class="g1_11"/>
<path d="M583 176.3c-1.6 .9-2.9 2.4-3.9 4c-.9-1.6-2.2-3-3.8-4v-1c1.5 1 2.8 2.2 3.8 3.7c1.1-1.5 2.4-2.7 3.9-3.7v1Z" class="g4_11"/>
<path d="M253.5 172.2c0-1.8 1.5-3.2 3.3-3.2c1.9 0 3.3 1.5 3.3 3.3c0 1.8-1.4 3.3-3.3 3.3c-1.8 .1-3.3-1.4-3.3-3.2Z" class="g6_11"/>
<path d="M253.5 172.3c0-1.9 1.5-3.3 3.3-3.3c1.9 0 3.3 1.5 3.3 3.3c0 1.8-1.4 3.3-3.3 3.3c-1.8 .1-3.3-1.4-3.3-3.2" class="g1_11"/>
<path d="M257.8 162.5c.1-1.8 1.6-3.3 3.4-3.2c1.8 0 3.3 1.5 3.3 3.3c0 1.8-1.5 3.3-3.3 3.3c-1.8 0-3.3-1.4-3.4-3.3Z" class="g6_11"/>
<path d="M257.8 162.5c.1-1.8 1.6-3.3 3.4-3.2c1.8 0 3.3 1.5 3.3 3.3c0 1.8-1.5 3.3-3.3 3.3c-1.8 0-3.3-1.4-3.4-3.3" class="g1_11"/>
<path d="M264.3 153.9c0-1.8 1.5-3.3 3.3-3.3c1.9 .1 3.3 1.6 3.3 3.4c0 1.8-1.4 3.3-3.3 3.3c-1.8 0-3.3-1.4-3.3-3.3Z" class="g6_11"/>
<path d="M264.3 153.9c0-1.8 1.5-3.3 3.3-3.3c1.9 .1 3.3 1.6 3.3 3.4c0 1.8-1.4 3.3-3.3 3.3c-1.8 0-3.3-1.4-3.3-3.3" class="g1_11"/>
<path d="M272.4 147.2c0-1.8 1.5-3.3 3.3-3.3c1.8 .1 3.3 1.6 3.3 3.4c0 1.8-1.5 3.3-3.3 3.3c-1.8 0-3.3-1.4-3.3-3.3Z" class="g6_11"/>
<path d="M272.4 147.2c0-1.8 1.5-3.3 3.3-3.3c1.8 .1 3.3 1.6 3.3 3.4c0 1.8-1.5 3.3-3.3 3.3c-1.8 0-3.3-1.4-3.3-3.3" class="g1_11"/>
<path d="M283 140.1c1.5-1.1 3.6-.8 4.7 .7c1.1 1.5 .8 3.5-.7 4.6c-1.5 1.1-3.5 .9-4.7-.6c-1.1-1.4-.8-3.5 .6-4.6Z" class="g6_11"/>
<path d="M283 140.1c1.5-1.1 3.6-.8 4.7 .7c1.1 1.5 .8 3.5-.7 4.6c-1.5 1.1-3.5 .9-4.6-.6c-1.2-1.4-.9-3.5 .5-4.6" class="g1_11"/>
<path d="M293.4 137.7c1.5-1.1 3.6-.8 4.7 .7c1.1 1.5 .8 3.5-.7 4.6c-1.4 1.2-3.5 .9-4.6-.6c-1.2-1.4-.9-3.5 .6-4.6Z" class="g6_11"/>
<path d="M293.4 137.7c1.5-1.1 3.6-.8 4.7 .7c1.1 1.5 .8 3.5-.7 4.6c-1.4 1.1-3.5 .9-4.6-.6c-1.2-1.4-.9-3.5 .6-4.6" class="g1_11"/>
<path d="M303.9 137.8c1.5-1 3.6-.7 4.7 .7c1.1 1.5 .8 3.6-.7 4.7c-1.4 1.1-3.5 .8-4.6-.6c-1.1-1.5-.9-3.6 .6-4.7Z" class="g6_11"/>
<path d="M303.9 137.8c1.5-1.1 3.6-.7 4.7 .7c1.1 1.5 .8 3.6-.7 4.7c-1.4 1.1-3.5 .8-4.6-.6c-1.1-1.5-.9-3.6 .6-4.7" class="g1_11"/>
<path d="M313.9 140c1.4-1 3.5-.7 4.6 .7c1.1 1.5 .8 3.6-.7 4.7c-1.4 1.1-3.5 .8-4.6-.6c-1.1-1.5-.9-3.6 .6-4.7Z" class="g6_11"/>
<path d="M313.9 140c1.4-1 3.5-.7 4.6 .7c1.1 1.5 .8 3.6-.7 4.7c-1.4 1.1-3.5 .8-4.6-.6c-1.1-1.5-.9-3.6 .6-4.7" class="g1_11"/>
<path d="M325.8 143.9c1.8 .3 3 2.1 2.7 3.9c-.3 1.8-2 3-3.8 2.7c-1.8-.3-3-1.9-2.8-3.8c.3-1.8 2-3 3.8-2.8Z" class="g6_11"/>
<path d="M325.8 143.9c1.8 .4 3 2.1 2.7 3.9c-.3 1.8-2 3-3.8 2.7c-1.8-.3-3-1.9-2.8-3.8c.3-1.8 2-3 3.8-2.8" class="g1_11"/>
<path d="M334.2 150.8c1.8 .3 3 2 2.7 3.8c-.2 1.8-1.9 3.1-3.7 2.8c-1.9-.3-3.1-2-2.8-3.8c.2-1.8 1.9-3.1 3.7-2.8Z" class="g6_11"/>
<path d="M334.2 150.8c1.8 .3 3 2 2.7 3.8c-.2 1.8-1.9 3-3.7 2.8c-1.9-.3-3.1-2-2.8-3.8c.2-1.8 1.9-3.1 3.7-2.8" class="g1_11"/>
<path d="M340.4 159.1c1.8 .3 3 2 2.8 3.8c-.3 1.9-2 3.1-3.8 2.8c-1.9-.3-3.1-2-2.8-3.8c.2-1.8 1.9-3 3.7-2.8Z" class="g6_11"/>
<path d="M340.4 159.1c1.8 .3 3 2 2.8 3.8c-.3 1.9-2 3.1-3.8 2.8c-1.9-.3-3.1-2-2.8-3.8c.2-1.8 1.9-3 3.7-2.8" class="g1_11"/>
<path d="M344.9 169.2c1.8 .3 3 2 2.8 3.8c-.3 1.8-2 3.1-3.8 2.8c-1.9-.3-3.1-2-2.8-3.8c.2-1.8 1.9-3.1 3.7-2.8Z" class="g6_11"/>
<path d="M344.9 169.2c1.8 .3 3 2 2.8 3.8c-.3 1.8-2 3.1-3.8 2.8c-1.9-.3-3.1-2-2.8-3.8c.2-1.8 1.9-3.1 3.7-2.8" class="g1_11"/>
<path d="M349.3 181c.8 1.6 .2 3.6-1.4 4.5c-1.6 .9-3.6 .2-4.5-1.4c-.9-1.6-.3-3.6 1.3-4.5c1.6-.9 3.6-.3 4.5 1.3Z" class="g6_11"/>
<path d="M349.3 181c.8 1.6 .2 3.6-1.4 4.5c-1.6 .9-3.6 .2-4.5-1.4c-.9-1.6-.3-3.6 1.3-4.5c1.6-.9 3.6-.3 4.5 1.3" class="g1_11"/>
<path d="M348.7 191.5c.8 1.7 .2 3.7-1.4 4.5c-1.6 .9-3.6 .3-4.5-1.3c-.9-1.6-.3-3.6 1.3-4.5c1.6-.9 3.6-.3 4.5 1.3Z" class="g6_11"/>
<path d="M348.7 191.5c.8 1.7 .2 3.7-1.4 4.5c-1.6 .9-3.6 .3-4.5-1.3c-.9-1.6-.3-3.7 1.3-4.5c1.6-.9 3.6-.3 4.5 1.3" class="g1_11"/>
<path d="M345.9 201.6c.8 1.6 .2 3.6-1.4 4.5c-1.7 .8-3.7 .2-4.5-1.4c-.9-1.6-.3-3.6 1.3-4.5c1.6-.9 3.6-.3 4.5 1.3Z" class="g6_11"/>
<path d="M345.9 201.6c.8 1.6 .2 3.6-1.4 4.5c-1.7 .8-3.7 .2-4.5-1.4c-.9-1.6-.3-3.6 1.3-4.5c1.6-.9 3.6-.3 4.5 1.3" class="g1_11"/>
<path d="M340.8 210.7c.8 1.7 .2 3.7-1.4 4.5c-1.7 .9-3.7 .3-4.5-1.3c-.9-1.6-.3-3.7 1.3-4.5c1.6-.9 3.6-.4 4.5 1.2Z" class="g6_11"/>
<path d="M340.8 210.7c.8 1.7 .2 3.7-1.4 4.5c-1.7 .9-3.7 .3-4.5-1.3c-.9-1.6-.3-3.7 1.3-4.5c1.6-.9 3.6-.4 4.5 1.2" class="g1_11"/>
<path d="M302.6 234.7c-1.8 .3-3.5-.9-3.8-2.7c-.3-1.8 .9-3.5 2.7-3.8c1.8-.3 3.5 .9 3.8 2.7c.4 1.8-.8 3.5-2.6 3.8Z" class="g6_11"/>
<path d="M302.6 234.7c-1.8 .3-3.5-.9-3.8-2.7c-.3-1.8 .9-3.5 2.7-3.8c1.8-.3 3.5 .9 3.8 2.7c.4 1.8-.8 3.5-2.6 3.8" class="g1_11"/>
<path d="M292 233.9c-1.8 .3-3.5-1-3.8-2.8c-.3-1.8 .9-3.5 2.7-3.8c1.8-.3 3.6 .9 3.9 2.7c.3 1.8-.9 3.5-2.7 3.9Z" class="g6_11"/>
<path d="M292 233.9c-1.8 .3-3.5-1-3.8-2.8c-.3-1.8 .9-3.5 2.7-3.8c1.8-.3 3.6 .9 3.9 2.7c.3 1.8-.9 3.5-2.7 3.9" class="g1_11"/>
<path d="M281.3 230.3c-1.8 .3-3.5-.9-3.8-2.7c-.3-1.9 .9-3.6 2.7-3.9c1.8-.3 3.6 .9 3.9 2.7c.3 1.8-.9 3.6-2.7 3.9Z" class="g6_11"/>
<path d="M281.3 230.3c-1.8 .3-3.5-.9-3.8-2.7c-.3-1.9 .9-3.6 2.7-3.9c1.8-.3 3.6 .9 3.9 2.7c.3 1.8-.9 3.6-2.7 3.9" class="g1_11"/>
<path d="M272.7 224.5c-1.8 .3-3.5-.9-3.8-2.7c-.3-1.8 .9-3.6 2.7-3.9c1.8-.3 3.5 .9 3.9 2.7c.3 1.8-.9 3.6-2.7 3.9Z" class="g6_11"/>
<path d="M272.7 224.5c-1.8 .3-3.5-.9-3.8-2.7c-.3-1.8 .9-3.6 2.7-3.9c1.8-.3 3.5 .9 3.9 2.7c.3 1.8-.9 3.6-2.7 3.9" class="g1_11"/>
<path d="M262.1 216c-1.3-1.3-1.3-3.3-.1-4.7c1.3-1.3 3.4-1.4 4.7-.1c1.4 1.2 1.5 3.3 .2 4.7c-1.2 1.3-3.3 1.4-4.7 .2Z" class="g6_11"/>
<path d="M262.1 216c-1.3-1.3-1.3-3.3-.1-4.7c1.3-1.3 3.4-1.4 4.7-.1c1.4 1.2 1.5 3.3 .2 4.7c-1.2 1.3-3.3 1.4-4.7 .2" class="g1_11"/>
<path d="M256.7 206.7c-1.4-1.3-1.4-3.4-.1-4.7c1.2-1.3 3.3-1.4 4.7-.1c1.3 1.2 1.4 3.3 .1 4.6c-1.2 1.4-3.3 1.5-4.7 .3Z" class="g6_11"/>
<path d="M256.7 206.7c-1.4-1.3-1.4-3.4-.1-4.7c1.2-1.3 3.3-1.4 4.7-.1c1.3 1.2 1.4 3.3 .1 4.7c-1.2 1.3-3.3 1.4-4.7 .2" class="g1_11"/>
<path d="M253.5 196.6c-1.3-1.3-1.3-3.4-.1-4.7c1.3-1.3 3.4-1.4 4.7-.1c1.4 1.2 1.4 3.3 .2 4.7c-1.2 1.3-3.4 1.4-4.7 .2Z" class="g6_11"/>
<path d="M253.5 196.6c-1.3-1.3-1.3-3.4-.1-4.7c1.3-1.3 3.4-1.4 4.7-.1c1.4 1.2 1.4 3.3 .2 4.7c-1.2 1.3-3.4 1.4-4.7 .2" class="g1_11"/>
<path d="M252.6 185.2c-1.3-1.2-1.4-3.3-.1-4.7c1.2-1.3 3.3-1.3 4.7-.1c1.3 1.3 1.4 3.3 .1 4.7c-1.2 1.3-3.3 1.4-4.6 .2Z" class="g6_11"/>
<path d="M252.6 185.2c-1.3-1.2-1.4-3.3-.1-4.7c1.2-1.3 3.3-1.3 4.7-.1c1.3 1.3 1.4 3.3 .1 4.7c-1.2 1.3-3.3 1.4-4.6 .2" class="g1_11"/>
<path d="M312.8 233.2c-1.8 .3-3.5-.9-3.8-2.7c-.3-1.8 .9-3.5 2.7-3.8c1.8-.4 3.5 .9 3.9 2.7c.3 1.8-.9 3.5-2.7 3.8Z" class="g6_11"/>
<path d="M312.8 233.2c-1.8 .3-3.5-.9-3.8-2.7c-.3-1.8 .9-3.5 2.7-3.8c1.8-.4 3.5 .9 3.9 2.7c.3 1.8-.9 3.5-2.7 3.8" class="g1_11"/>
<path d="M322.5 229.4c-1.8 .3-3.5-1-3.8-2.8c-.3-1.8 .9-3.5 2.7-3.8c1.8-.3 3.5 .9 3.9 2.7c.3 1.8-.9 3.5-2.7 3.9Z" class="g6_11"/>
<path d="M322.5 229.4c-1.8 .3-3.5-1-3.8-2.8c-.3-1.8 .9-3.5 2.7-3.8c1.8-.3 3.5 .9 3.9 2.7c.3 1.8-.9 3.5-2.7 3.9" class="g1_11"/>
<path d="M331.1 223.6c-1.8 .3-3.5-1-3.8-2.8c-.3-1.8 .9-3.5 2.7-3.8c1.8-.3 3.5 .9 3.8 2.7c.4 1.8-.8 3.5-2.6 3.9Z" class="g6_11"/>
<path d="M331.1 223.6c-1.8 .3-3.5-1-3.8-2.8c-.3-1.8 .9-3.5 2.7-3.8c1.8-.3 3.5 .9 3.8 2.7c.4 1.8-.8 3.5-2.6 3.9" class="g1_11"/>
<path d="M261.4 174.5c.1-1.5 1.3-2.7 2.8-2.7c1.5 0 2.7 1.2 2.7 2.8c0 1.5-1.2 2.7-2.7 2.7c-1.5 0-2.7-1.2-2.8-2.7Z" class="g6_11"/>
<path d="M261.4 174.5c.1-1.5 1.3-2.7 2.8-2.7c1.5 0 2.7 1.2 2.7 2.8c0 1.5-1.2 2.7-2.7 2.7c-1.5 0-2.7-1.2-2.8-2.7" class="g1_11"/>
<path d="M265 166.5c.1-1.5 1.3-2.7 2.8-2.7c1.5 0 2.7 1.2 2.7 2.7c0 1.6-1.2 2.8-2.7 2.8c-1.5 0-2.7-1.2-2.8-2.7Z" class="g6_11"/>
<path d="M265 166.5c.1-1.5 1.3-2.7 2.8-2.7c1.5 0 2.7 1.2 2.7 2.7c0 1.6-1.2 2.8-2.7 2.8c-1.5 0-2.7-1.2-2.8-2.7" class="g1_11"/>
<path d="M270.3 159.4c.1-1.5 1.3-2.8 2.8-2.7c1.5 0 2.7 1.2 2.7 2.7c0 1.5-1.2 2.8-2.7 2.8c-1.5 0-2.7-1.2-2.8-2.7Z" class="g6_11"/>
<path d="M270.3 159.4c.1-1.5 1.3-2.8 2.8-2.7c1.5 0 2.7 1.2 2.7 2.7c0 1.5-1.2 2.8-2.7 2.8c-1.5 0-2.7-1.2-2.8-2.7" class="g1_11"/>
<path d="M277 153.8c0-1.5 1.3-2.7 2.8-2.7c1.5 0 2.7 1.3 2.7 2.8c0 1.5-1.2 2.7-2.7 2.7c-1.6 0-2.8-1.2-2.8-2.7Z" class="g6_11"/>
<path d="M277 153.8c0-1.5 1.3-2.7 2.8-2.7c1.5 0 2.7 1.3 2.7 2.8c0 1.5-1.2 2.7-2.7 2.7c-1.6 0-2.8-1.2-2.8-2.7" class="g1_11"/>
<path d="M285.8 148c1.2-.9 2.9-.7 3.8 .5c.9 1.2 .7 3-.5 3.9c-1.2 .9-3 .6-3.9-.6c-.9-1.2-.7-2.9 .5-3.8Z" class="g6_11"/>
<path d="M285.8 148c1.2-.9 2.9-.7 3.8 .5c.9 1.2 .7 3-.5 3.9c-1.2 .9-3 .6-3.9-.6c-.9-1.2-.7-2.9 .5-3.8" class="g1_11"/>
<path d="M294.4 146c1.2-.9 2.9-.7 3.8 .5c.9 1.3 .6 3-.6 3.9c-1.2 .9-2.9 .7-3.8-.5c-.9-1.2-.7-3 .5-3.9Z" class="g6_11"/>
<path d="M294.4 146c1.2-.9 2.9-.7 3.8 .5c.9 1.3 .6 3-.6 3.9c-1.2 .9-2.9 .7-3.8-.5c-.9-1.2-.7-3 .5-3.9" class="g1_11"/>
<path d="M303 146.1c1.2-.9 2.9-.6 3.8 .6c.9 1.2 .7 2.9-.5 3.8c-1.2 .9-2.9 .7-3.8-.5c-1-1.2-.7-2.9 .5-3.9Z" class="g6_11"/>
<path d="M303 146.1c1.2-.9 2.9-.6 3.8 .6c.9 1.2 .7 2.9-.5 3.8c-1.2 .9-2.9 .7-3.8-.5c-.9-1.2-.7-2.9 .5-3.9" class="g1_11"/>
<path d="M311.2 147.9c1.2-.9 2.9-.6 3.8 .6c.9 1.2 .7 2.9-.5 3.8c-1.2 .9-2.9 .7-3.9-.5c-.9-1.2-.7-2.9 .5-3.8Z" class="g6_11"/>
<path d="M311.2 147.9c1.2-.9 2.9-.6 3.8 .6c.9 1.2 .7 2.9-.5 3.8c-1.2 .9-2.9 .7-3.9-.5c-.9-1.2-.7-2.9 .5-3.8" class="g1_11"/>
<path d="M321 151.1c1.5 .3 2.5 1.7 2.3 3.2c-.3 1.5-1.7 2.5-3.2 2.3c-1.4-.3-2.5-1.7-2.3-3.2c.3-1.5 1.6-2.5 3.1-2.3Z" class="g6_11"/>
<path d="M321 151.1c1.5 .3 2.5 1.7 2.3 3.2c-.3 1.5-1.7 2.5-3.2 2.3c-1.4-.3-2.5-1.7-2.3-3.2c.3-1.5 1.6-2.5 3.1-2.3" class="g1_11"/>
<path d="M328 156.8c1.4 .2 2.4 1.6 2.2 3.1c-.2 1.5-1.6 2.6-3.1 2.3c-1.5-.2-2.5-1.6-2.3-3.1c.2-1.5 1.6-2.5 3.1-2.3Z" class="g6_11"/>
<path d="M328 156.8c1.4 .2 2.4 1.6 2.2 3.1c-.2 1.5-1.6 2.6-3.1 2.3c-1.5-.2-2.5-1.6-2.3-3.1c.2-1.5 1.6-2.5 3.1-2.3" class="g1_11"/>
<path d="M333.1 163.7c1.5 .2 2.5 1.6 2.2 3.1c-.2 1.5-1.6 2.5-3.1 2.3c-1.5-.2-2.5-1.6-2.3-3.1c.2-1.5 1.6-2.6 3.1-2.3Z" class="g6_11"/>
<path d="M333.1 163.7c1.5 .2 2.5 1.6 2.2 3.1c-.2 1.5-1.6 2.5-3.1 2.3c-1.5-.2-2.5-1.6-2.3-3.1c.2-1.5 1.6-2.6 3.1-2.3" class="g1_11"/>
<path d="M336.8 172c1.5 .2 2.5 1.6 2.2 3.1c-.2 1.5-1.6 2.5-3.1 2.3c-1.5-.2-2.5-1.6-2.3-3.1c.2-1.5 1.6-2.5 3.1-2.3Z" class="g6_11"/>
<path d="M336.8 172c1.5 .2 2.5 1.6 2.2 3.1c-.2 1.5-1.6 2.5-3.1 2.3c-1.5-.2-2.5-1.6-2.3-3.1c.2-1.5 1.6-2.5 3.1-2.3" class="g1_11"/>
<path d="M340.4 181.7c.7 1.4 .2 3-1.2 3.7c-1.3 .7-3 .2-3.7-1.1c-.7-1.3-.2-3 1.1-3.7c1.3-.7 3-.3 3.7 1.1Z" class="g6_11"/>
<path d="M340.4 181.7c.7 1.4 .2 3-1.2 3.7c-1.3 .7-3 .2-3.7-1.1c-.7-1.3-.2-3 1.1-3.7c1.3-.7 3-.3 3.7 1.1" class="g1_11"/>
<path d="M339.9 190.4c.7 1.4 .2 3-1.2 3.7c-1.3 .8-3 .3-3.7-1.1c-.7-1.3-.2-3 1.1-3.7c1.3-.7 3-.2 3.7 1.1Z" class="g6_11"/>
<path d="M339.9 190.4c.7 1.4 .2 3-1.2 3.7c-1.3 .8-3 .3-3.7-1.1c-.7-1.3-.2-3 1.1-3.7c1.3-.7 3-.2 3.7 1.1" class="g1_11"/>
<path d="M337.5 198.7c.7 1.4 .2 3-1.1 3.7c-1.3 .7-3 .2-3.7-1.1c-.7-1.3-.2-3 1.1-3.7c1.3-.7 3-.3 3.7 1.1Z" class="g6_11"/>
<path d="M337.5 198.7c.7 1.4 .2 3-1.1 3.7c-1.3 .7-3 .2-3.7-1.1c-.7-1.3-.2-3 1.1-3.7c1.3-.7 3-.3 3.7 1.1" class="g1_11"/>
<path d="M333.3 206.3c.7 1.3 .2 3-1.1 3.7c-1.3 .7-3 .2-3.7-1.1c-.7-1.4-.2-3 1.1-3.8c1.3-.7 3-.2 3.7 1.1Z" class="g6_11"/>
<path d="M333.3 206.3c.7 1.3 .2 3-1.1 3.7c-1.3 .7-3 .2-3.7-1.1c-.7-1.4-.2-3 1.1-3.8c1.3-.7 3-.2 3.7 1.1" class="g1_11"/>
<path d="M301.9 226.1c-1.5 .2-2.9-.8-3.2-2.3c-.2-1.5 .8-2.9 2.3-3.1c1.5-.3 2.9 .7 3.2 2.2c.2 1.5-.7 2.9-2.2 3.2Z" class="g6_11"/>
<path d="M301.9 226.1c-1.5 .2-2.9-.8-3.2-2.3c-.2-1.5 .8-2.9 2.3-3.1c1.5-.3 2.9 .7 3.2 2.2c.2 1.5-.7 2.9-2.2 3.2" class="g1_11"/>
<path d="M293.2 225.4c-1.5 .2-2.9-.8-3.1-2.3c-.3-1.5 .7-2.9 2.2-3.1c1.5-.3 2.9 .7 3.2 2.2c.2 1.5-.7 2.9-2.2 3.2Z" class="g6_11"/>
<path d="M293.2 225.4c-1.5 .2-2.9-.8-3.1-2.3c-.3-1.5 .7-2.9 2.2-3.1c1.5-.3 2.9 .7 3.2 2.2c.2 1.5-.7 2.9-2.2 3.2" class="g1_11"/>
<path d="M284.4 222.4c-1.5 .3-2.9-.7-3.2-2.2c-.2-1.5 .8-2.9 2.3-3.2c1.5-.2 2.9 .7 3.2 2.2c.2 1.5-.7 2.9-2.2 3.2Z" class="g6_11"/>
<path d="M284.4 222.4c-1.5 .3-2.9-.7-3.1-2.2c-.3-1.5 .7-2.9 2.2-3.2c1.5-.2 2.9 .7 3.2 2.2c.2 1.5-.7 2.9-2.2 3.2" class="g1_11"/>
<path d="M277.3 217.7c-1.5 .2-2.9-.8-3.1-2.3c-.3-1.5 .7-2.9 2.2-3.2c1.5-.2 2.9 .8 3.2 2.3c.2 1.4-.7 2.9-2.2 3.2Z" class="g6_11"/>
<path d="M277.3 217.7c-1.5 .2-2.9-.8-3.1-2.3c-.3-1.5 .7-2.9 2.2-3.2c1.5-.2 2.9 .8 3.2 2.3c.2 1.4-.7 2.9-2.2 3.2" class="g1_11"/>
<path d="M268.6 210.6c-1.1-1-1.1-2.7-.1-3.8c1-1.1 2.8-1.2 3.9-.1c1.1 1 1.1 2.7 .1 3.8c-1 1.1-2.7 1.2-3.9 .2Z" class="g6_11"/>
<path d="M268.6 210.6c-1.1-1-1.1-2.7-.1-3.8c1-1.1 2.8-1.2 3.9-.1c1.1 1 1.1 2.7 .1 3.8c-1 1.1-2.7 1.2-3.9 .2" class="g1_11"/>
<path d="M264.1 202.9c-1.1-1-1.2-2.7-.1-3.8c1-1.1 2.8-1.2 3.9-.1c1.1 1 1.1 2.7 .1 3.8c-1 1.1-2.7 1.2-3.9 .2Z" class="g6_11"/>
<path d="M264.1 203c-1.1-1.1-1.2-2.8-.1-3.9c1-1.1 2.8-1.2 3.9-.1c1.1 1 1.1 2.7 .1 3.8c-1 1.1-2.7 1.2-3.9 .2" class="g1_11"/>
<path d="M261.5 194.6c-1.1-1-1.1-2.8-.1-3.9c1-1.1 2.8-1.1 3.9-.1c1.1 1 1.1 2.8 .1 3.9c-1 1.1-2.7 1.2-3.9 .2Z" class="g6_11"/>
<path d="M261.5 194.6c-1.1-1-1.1-2.8-.1-3.9c1-1.1 2.8-1.1 3.9-.1c1.1 1 1.1 2.8 .1 3.9c-1 1.1-2.7 1.2-3.9 .2" class="g1_11"/>
<path d="M260.7 185.2c-1.1-1-1.1-2.7-.1-3.8c1.1-1.1 2.8-1.2 3.9-.2c1.1 1.1 1.2 2.8 .1 3.9c-1 1.1-2.7 1.2-3.8 .2Z" class="g6_11"/>
<path d="M260.7 185.2c-1.1-1-1.1-2.7-.1-3.8c1.1-1.1 2.8-1.2 3.9-.2c1.1 1.1 1.2 2.8 .1 3.9c-1 1.1-2.7 1.2-3.8 .2" class="g1_11"/>
<path d="M310.3 224.9c-1.5 .2-2.9-.8-3.1-2.3c-.3-1.5 .7-2.9 2.2-3.2c1.5-.2 2.9 .8 3.2 2.3c.3 1.4-.7 2.9-2.2 3.2Z" class="g6_11"/>
<path d="M310.3 224.9c-1.5 .2-2.9-.8-3.1-2.3c-.3-1.5 .7-2.9 2.2-3.2c1.5-.2 2.9 .8 3.2 2.3c.3 1.4-.7 2.9-2.2 3.2" class="g1_11"/>
<path d="M318.3 221.7c-1.5 .2-2.9-.8-3.1-2.3c-.3-1.5 .7-2.9 2.2-3.1c1.5-.3 2.9 .7 3.2 2.2c.2 1.5-.7 2.9-2.2 3.2Z" class="g6_11"/>
<path d="M318.3 221.7c-1.5 .2-2.9-.8-3.1-2.3c-.3-1.5 .7-2.9 2.2-3.1c1.5-.3 2.9 .7 3.2 2.2c.2 1.5-.7 2.9-2.2 3.2" class="g1_11"/>
<path d="M325.4 216.9c-1.5 .2-2.9-.8-3.2-2.3c-.2-1.5 .8-2.9 2.3-3.1c1.5-.3 2.9 .7 3.2 2.2c.2 1.5-.8 2.9-2.2 3.2Z" class="g6_11"/>
<path d="M325.4 216.9c-1.5 .2-2.9-.8-3.2-2.3c-.2-1.5 .8-2.9 2.3-3.1c1.5-.3 2.9 .7 3.2 2.2c.2 1.5-.8 2.9-2.2 3.2" class="g1_11"/>
<path d="M269 176.2c0-1.2 1-2.1 2.2-2.1c1.2 0 2.2 1 2.2 2.2c0 1.2-1 2.2-2.2 2.2c-1.2 0-2.2-1-2.2-2.2Z" class="g6_11"/>
<path d="M269 176.2c0-1.2 1-2.1 2.2-2.1c1.2 0 2.2 1 2.2 2.2c0 1.2-1 2.2-2.2 2.2c-1.2 0-2.2-1-2.2-2.2" class="g1_11"/>
<path d="M271.9 169.8c0-1.2 1-2.1 2.2-2.1c1.2 0 2.2 1 2.2 2.2c0 1.2-1 2.2-2.2 2.2c-1.2 0-2.2-1-2.2-2.2Z" class="g6_11"/>
<path d="M271.9 169.8c0-1.2 1-2.1 2.2-2.1c1.2 0 2.2 1 2.2 2.2c0 1.2-1 2.2-2.2 2.2c-1.2 0-2.2-1-2.2-2.2" class="g1_11"/>
<path d="M276.1 164.2c0-1.2 1-2.2 2.2-2.2c1.2 0 2.2 1 2.2 2.2c0 1.2-1 2.2-2.2 2.2c-1.2 0-2.2-.9-2.2-2.1Z" class="g6_11"/>
<path d="M276.1 164.2c0-1.2 1-2.2 2.2-2.2c1.2 0 2.2 1 2.2 2.2c0 1.2-1 2.2-2.2 2.2c-1.2 0-2.2-.9-2.2-2.2" class="g1_11"/>
<path d="M281.4 159.8c0-1.2 1-2.2 2.2-2.2c1.2 0 2.2 1 2.2 2.2c0 1.2-1 2.2-2.2 2.2c-1.2 0-2.2-1-2.2-2.2Z" class="g6_11"/>
<path d="M281.4 159.8c0-1.2 1-2.2 2.2-2.2c1.2 0 2.2 1 2.2 2.2c0 1.2-1 2.2-2.2 2.2c-1.2 0-2.2-1-2.2-2.2" class="g1_11"/>
<path d="M288.4 155.1c1-.7 2.4-.5 3.1 .4c.7 1 .5 2.4-.5 3.1c-.9 .7-2.3 .5-3-.4c-.8-1-.6-2.3 .4-3.1Z" class="g6_11"/>
<path d="M288.4 155.1c1-.7 2.4-.5 3.1 .4c.7 1 .5 2.4-.5 3.1c-.9 .7-2.3 .5-3-.4c-.8-1-.6-2.3 .4-3.1" class="g1_11"/>
<path d="M295.3 153.5c.9-.7 2.3-.5 3 .5c.7 .9 .6 2.3-.4 3c-1 .8-2.3 .6-3.1-.4c-.7-.9-.5-2.3 .4-3.1Z" class="g6_11"/>
<path d="M295.3 153.5c.9-.7 2.3-.5 3 .5c.7 .9 .6 2.3-.4 3c-1 .8-2.3 .6-3.1-.4c-.7-.9-.5-2.3 .4-3.1" class="g1_11"/>
<path d="M302.2 153.6c1-.7 2.3-.5 3 .5c.8 .9 .6 2.3-.4 3c-1 .7-2.3 .6-3.1-.4c-.7-1-.5-2.3 .4-3.1Z" class="g6_11"/>
<path d="M302.2 153.6c1-.7 2.3-.5 3 .5c.8 .9 .6 2.3-.4 3c-1 .7-2.3 .6-3.1-.4c-.7-1-.5-2.3 .4-3.1" class="g1_11"/>
<path d="M308.7 155.1c1-.8 2.4-.6 3.1 .4c.7 1 .5 2.3-.5 3.1c-.9 .7-2.3 .5-3-.4c-.8-1-.6-2.4 .4-3.1Z" class="g6_11"/>
<path d="M308.7 155.1c1-.8 2.3-.6 3.1 .4c.7 1 .5 2.3-.5 3.1c-.9 .7-2.3 .5-3-.4c-.8-1-.6-2.4 .4-3.1" class="g1_11"/>
<path d="M316.6 157.6c1.2 .2 2 1.3 1.8 2.5c-.2 1.2-1.3 2-2.5 1.8c-1.2-.1-2-1.2-1.9-2.4c.2-1.2 1.3-2.1 2.5-1.9Z" class="g6_11"/>
<path d="M316.6 157.6c1.2 .2 2 1.3 1.8 2.5c-.2 1.2-1.3 2-2.5 1.8c-1.2-.1-2-1.3-1.9-2.4c.2-1.2 1.3-2.1 2.5-1.9" class="g1_11"/>
<path d="M322.1 162.1c1.2 .2 2 1.3 1.8 2.5c-.2 1.2-1.3 2-2.5 1.8c-1.2-.1-2-1.2-1.8-2.4c.1-1.2 1.2-2.1 2.4-1.9Z" class="g6_11"/>
<path d="M322.1 162.1c1.2 .2 2 1.3 1.8 2.5c-.2 1.2-1.3 2-2.5 1.8c-1.2-.1-2-1.2-1.8-2.4c.1-1.2 1.2-2.1 2.4-1.9" class="g1_11"/>
<path d="M326.2 167.6c1.2 .2 2 1.3 1.8 2.5c-.2 1.2-1.3 2-2.5 1.8c-1.2-.1-2-1.3-1.9-2.5c.2-1.1 1.3-2 2.5-1.8Z" class="g6_11"/>
<path d="M326.2 167.6c1.2 .2 2 1.3 1.8 2.5c-.2 1.2-1.3 2-2.5 1.8c-1.2-.1-2-1.3-1.9-2.5c.2-1.1 1.3-2 2.5-1.8" class="g1_11"/>
<path d="M329.1 174.2c1.2 .2 2 1.4 1.8 2.5c-.2 1.2-1.3 2-2.5 1.9c-1.1-.2-2-1.3-1.8-2.5c.2-1.2 1.3-2 2.5-1.9Z" class="g6_11"/>
<path d="M329.1 174.2c1.2 .2 2 1.4 1.8 2.5c-.1 1.2-1.3 2-2.5 1.9c-1.1-.2-2-1.3-1.8-2.5c.2-1.2 1.3-2 2.5-1.9" class="g1_11"/>
<path d="M332 182c.6 1.1 .2 2.4-.9 2.9c-1.1 .6-2.4 .2-3-.8c-.5-1.1-.1-2.4 .9-3c1.1-.6 2.4-.2 3 .8Z" class="g6_11"/>
<path d="M332 182c.6 1.1 .2 2.4-.9 2.9c-1.1 .6-2.4 .2-3-.8c-.5-1.1-.1-2.4 .9-3c1.1-.6 2.4-.2 3 .8" class="g1_11"/>
<path d="M331.6 188.9c.6 1.1 .2 2.4-.9 3c-1.1 .6-2.4 .2-3-.9c-.5-1.1-.1-2.4 .9-3c1.1-.6 2.4-.2 3 .9Z" class="g6_11"/>
<path d="M331.6 188.9c.6 1.1 .2 2.4-.9 3c-1.1 .6-2.4 .2-3-.9c-.5-1.1-.1-2.4 .9-3c1.1-.6 2.4-.2 3 .9" class="g1_11"/>
<path d="M329.8 195.5c.5 1.1 .1 2.4-1 3c-1 .6-2.3 .2-2.9-.9c-.6-1.1-.2-2.4 .9-3c1-.6 2.3-.2 2.9 .9Z" class="g6_11"/>
<path d="M329.8 195.5c.5 1.1 .1 2.4-1 3c-1 .6-2.3 .2-2.9-.9c-.6-1.1-.2-2.4 .9-3c1-.6 2.3-.2 2.9 .9" class="g1_11"/>
<path d="M326.4 201.6c.6 1 .1 2.3-.9 2.9c-1.1 .6-2.4 .2-3-.9c-.5-1-.2-2.4 .9-3c1.1-.5 2.4-.2 3 .9Z" class="g6_11"/>
<path d="M326.4 201.6c.6 1 .1 2.3-.9 2.9c-1.1 .6-2.4 .2-3-.9c-.5-1-.2-2.4 .9-3c1.1-.5 2.4-.2 3 .9" class="g1_11"/>
<path d="M301.3 217.4c-1.2 .1-2.3-.7-2.5-1.9c-.2-1.1 .6-2.3 1.8-2.5c1.2-.2 2.3 .6 2.5 1.8c.2 1.2-.6 2.3-1.8 2.5Z" class="g6_11"/>
<path d="M301.3 217.4c-1.2 .1-2.3-.7-2.5-1.9c-.2-1.1 .6-2.3 1.8-2.5c1.2-.2 2.3 .6 2.5 1.8c.2 1.2-.6 2.3-1.8 2.5" class="g1_11"/>
<path d="M294.3 216.8c-1.1 .2-2.3-.6-2.5-1.8c-.2-1.2 .6-2.3 1.8-2.5c1.2-.2 2.4 .5 2.6 1.7c.2 1.2-.6 2.4-1.8 2.6Z" class="g6_11"/>
<path d="M294.3 216.8c-1.1 .2-2.3-.6-2.5-1.8c-.2-1.2 .6-2.3 1.8-2.5c1.2-.2 2.4 .5 2.6 1.7c.2 1.2-.6 2.4-1.8 2.6" class="g1_11"/>
<path d="M287.3 214.4c-1.2 .2-2.3-.6-2.5-1.8c-.2-1.2 .6-2.3 1.8-2.5c1.2-.2 2.3 .6 2.5 1.8c.2 1.2-.5 2.3-1.7 2.5Z" class="g6_11"/>
<path d="M287.3 214.4c-1.2 .2-2.3-.6-2.5-1.8c-.2-1.2 .6-2.3 1.8-2.5c1.2-.2 2.3 .6 2.5 1.8c.2 1.2-.5 2.3-1.7 2.5" class="g1_11"/>
<path d="M281.6 210.6c-1.1 .2-2.3-.6-2.5-1.8c-.2-1.2 .6-2.3 1.8-2.5c1.2-.2 2.3 .6 2.6 1.8c.2 1.2-.6 2.3-1.8 2.5Z" class="g6_11"/>
<path d="M281.6 210.6c-1.1 .2-2.3-.6-2.5-1.8c-.2-1.2 .6-2.3 1.8-2.5c1.2-.2 2.3 .6 2.6 1.8c.2 1.2-.6 2.3-1.8 2.5" class="g1_11"/>
<path d="M274.7 205c-.9-.8-.9-2.2-.1-3.1c.8-.8 2.2-.9 3.1-.1c.9 .9 .9 2.2 .1 3.1c-.8 .9-2.2 1-3.1 .2Z" class="g6_11"/>
<path d="M274.7 205c-.9-.8-.9-2.2-.1-3.1c.8-.8 2.2-.9 3.1-.1c.9 .9 .9 2.2 .1 3.1c-.8 .9-2.2 1-3.1 .2" class="g1_11"/>
<path d="M271.1 198.9c-.9-.8-.9-2.2-.1-3.1c.8-.9 2.2-.9 3.1-.1c.9 .8 .9 2.2 .1 3.1c-.8 .9-2.2 1-3.1 .1Z" class="g6_11"/>
<path d="M271.1 198.9c-.9-.8-.9-2.2-.1-3.1c.8-.9 2.2-.9 3.1-.1c.9 .8 .9 2.2 .1 3.1c-.8 .9-2.2 1-3.1 .1" class="g1_11"/>
<path d="M269 192.3c-.8-.9-.9-2.3-.1-3.1c.9-.9 2.3-1 3.1-.1c.9 .8 1 2.2 .2 3.1c-.9 .8-2.2 .9-3.1 .1Z" class="g6_11"/>
<path d="M269 192.3c-.9-.9-.9-2.3-.1-3.1c.9-.9 2.3-1 3.1-.1c.9 .8 1 2.2 .2 3.1c-.9 .8-2.2 .9-3.1 .1" class="g1_11"/>
<path d="M268.4 184.8c-.9-.8-.9-2.2-.1-3.1c.9-.9 2.2-.9 3.1-.1c.9 .8 1 2.2 .1 3.1c-.8 .9-2.2 .9-3.1 .1Z" class="g6_11"/>
<path d="M268.4 184.8c-.9-.8-.9-2.2-.1-3.1c.9-.9 2.2-.9 3.1-.1c.9 .8 1 2.2 .1 3.1c-.8 .9-2.2 .9-3.1 .1" class="g1_11"/>
<path d="M308 216.4c-1.2 .1-2.3-.7-2.5-1.9c-.2-1.1 .6-2.3 1.8-2.5c1.2-.2 2.3 .6 2.5 1.8c.2 1.2-.5 2.3-1.7 2.6Z" class="g6_11"/>
<path d="M308 216.4c-1.2 .1-2.3-.7-2.5-1.8c-.2-1.2 .6-2.4 1.8-2.6c1.2-.2 2.3 .6 2.5 1.8c.2 1.2-.5 2.3-1.7 2.6" class="g1_11"/>
<path d="M314.4 213.8c-1.2 .2-2.3-.6-2.5-1.8c-.2-1.2 .6-2.3 1.8-2.5c1.2-.2 2.3 .6 2.5 1.8c.2 1.2-.6 2.3-1.7 2.5Z" class="g6_11"/>
<path d="M314.4 213.8c-1.2 .2-2.3-.6-2.5-1.8c-.2-1.2 .6-2.3 1.8-2.5c1.2-.2 2.3 .6 2.5 1.8c.2 1.2-.6 2.3-1.7 2.5" class="g1_11"/>
<path d="M320 210c-1.1 .2-2.3-.6-2.5-1.8c-.2-1.2 .6-2.3 1.8-2.5c1.2-.2 2.3 .6 2.6 1.8c.2 1.1-.6 2.3-1.8 2.5Z" class="g6_11"/>
<path d="M320 210c-1.1 .2-2.3-.6-2.5-1.8c-.2-1.2 .6-2.3 1.8-2.5c1.2-.2 2.3 .6 2.6 1.8c.2 1.1-.6 2.3-1.8 2.5" class="g1_11"/>
<path d="M630.4 229.2h5.5V180.5h-5.5v48.7Z" class="g6_11"/>
<path d="M622.6 229.6h4.1V180.4h-4.1v49.2Z" class="g6_11"/>
<path d="M616.4 229.5h3.4v-49h-3.4v49Z" class="g6_11"/>
<path d="M531.6 229.1h5.6V180.4h-5.6v48.7Z" class="g6_11"/>
<path d="M540.8 229.2h4.1V180.4h-4.1v48.8Z" class="g6_11"/>
<path d="M547.7 229.4h3.4V180.5h-3.4v48.9Z" class="g6_11"/>
<path d="M633.7 265.3H638V235.2h-4.3v30.1Z" class="g3_11"/>
<path d="M633.7 235.2H638v30.1h-4.3V235.2Z" class="g1_11"/>
<path d="M620.7 235.8h9v-6.5h-9v6.5Z" class="g6_11"/>
<path d="M622.9 254.8h4.4V209.1h-4.4v45.7Z" class="g7_11"/>
<path d="M622.9 209.1h4.4v45.7h-4.4V209.1Z" class="g1_11"/>
<path d="M612.6 266.3h4.3V236.2h-4.3v30.1Z" class="g3_11"/>
<path d="M612.6 236.2h4.3v30.1h-4.3V236.2Zm-167-81.8l-34.8 .7" class="g1_11"/>
<path d="M413.8 158.9c-1-1.5-2.5-2.8-4.1-3.7c1.6-1 3-2.4 3.9-4h1c-1 1.5-2.2 2.9-3.6 3.9c1.5 1 2.8 2.3 3.8 3.8h-1Z" class="g4_11"/>
<path fill-rule="evenodd" d="M482.6 334.3v11.8h6.9v12.4l-6.9 .5v11.7l19.8 .1l.1 11.8l6.7 .3v12.9h-6.8l.1 12.5H482.6l-.1 11.2l6.2-.2V433h-6.1l-.2 10.7h10.4l.5-5.4h12.4v5.4l10.3-.2l.1-15.8h11.1v-5.3h12.4v5.2h11.8v15.3h8.8v-4.6h13.6v5h9.5V433.2h-6.4v-14h6.6V408.5l-20.3 .2V396.5h-6.8V381.7h7.2V369.6h20.1v-9.9h-6.1V345.6H584l-.3-11h-9.9v5.3l-13.3 .4v-6l-9.8 .3v16H540v5.7H526.7v-5.9H515.3l.1-15.4h-9.7l-.3 5.3H492.5l.3-6H482.6Z" class="g2_11"/>
<path d="M482.6 334.3v11.8h6.9v12.4l-6.9 .5v11.7l19.8 .1l.1 11.8l6.7 .3v12.9h-6.8l.1 12.5H482.6l-.1 11.2l6.2-.2V433h-6.1l-.2 10.7h10.4l.5-5.4h12.4v5.4l10.3-.2l.1-15.8h11.1v-5.3h12.4v5.2h11.8v15.3h8.8v-4.6h13.6v5h9.5V433.2h-6.4v-14h6.6V408.5l-20.3 .2V396.5h-6.8V381.7h7.2V369.6h20.1v-9.9h-6.1V345.6H584l-.3-11h-9.9v5.3l-13.3 .4v-6l-9.8 .3v16H540v5.7H526.7v-5.9H515.3l.1-15.4h-9.7l-.3 5.3H492.5l.3-6H482.6Z" class="g1_11"/>
<path fill-rule="evenodd" d="M605.8 335.4v11l10.6 5.3v1.9l-10.6 4.9v11.8l11 5.7l9.5-5.7h2.6v11.8l11.1 5.8l-.3 1.1L629 395.4v11.8h-2.7l-9.1-5.3l-9.9 6.1v9.8l9.9 4.6l-.8 3l-9.9 5.4v9.8h9.1L621 433h2.2l5.3 8.4h9.9l5.4-8.4l-5.1-7.5v-1.6h11.1l5.3-8.4h2.3l4.9 7.8l11.1 .6v2.3l-4.6 6.8l4.6 7.5l10.3 .1l4.9-8.3h2.6l5.4 8.3h8.7v-9.1l-9.8-6v-3.3l9.8-4.3l.9-10.7l-10.7-5.3L684 408.3l-.3-12.9l-11.8-6.1v-1.4l11.4-5.8V369.2l12.2 6.8l11.3-6l-.7-10.7l-10.6-4.6v-3l10.7-5.6l-.1-10.3h-9.9l-5.3 8.2h-1.6l-5.3-7.6l-9.9-.6l-5.4 7.6l4.7 8.3v1.5l-11.4 .4l-5.3 8h-1.6l-5.3-8H639.2v-1.9L644 344l-5.3-8.2H627.8l-4.6 8.3l-1.7-.1l-5.9-8.2l-9.8-.4Z" class="g2_11"/>
<path d="M605.8 335.4v11l10.6 5.3v1.9l-10.6 4.9v11.8l11 5.7l9.5-5.7h2.6v11.8l11.1 5.8l-.3 1.1L629 395.4v11.8h-2.7l-9.1-5.3l-9.9 6.1v9.8l9.9 4.6l-.8 3l-9.9 5.4v9.8h9.1L621 433h2.2l5.3 8.4h9.9l5.4-8.4l-5.1-7.5v-1.6h11.1l5.3-8.4h2.3l4.9 7.8l11.1 .6v2.3l-4.6 6.8l4.6 7.5l10.3 .1l4.9-8.3h2.6l5.4 8.3h8.7v-9.1l-9.8-6v-3.3l9.8-4.3l.9-10.7l-10.7-5.3L684 408.3l-.3-12.9l-11.8-6.1v-1.4l11.4-5.8V369.2l12.2 6.8l11.3-6l-.7-10.7l-10.6-4.6v-3l10.7-5.6l-.1-10.3h-9.9l-5.3 8.2h-1.6l-5.3-7.6l-9.9-.6l-5.4 7.6l4.7 8.3v1.5l-11.4 .4l-5.3 8h-1.6l-5.3-8H639.2v-1.9L644 344l-5.3-8.2H627.8l-4.6 8.3l-1.7-.1l-5.9-8.2l-9.8-.4Z" class="g1_11"/>
<path fill-rule="evenodd" d="M731.9 335.4l-6.1 7.2l6.9 6.7v16.1l-6.1 8.4l5.4 6.6l6.4-7.5h16.1l7.5 7.7l.3 17l-7.8 8.1l-15.8 .5l-7.6-7.4l-4.5 6.1l6.1 6.8l-.7 17.5l-6.5 7l6.5 7.5l6.7-7.5l15.8 .6l6.4 6.9l6.7-6.9l-7.6-8.1V413.3l7.6-8.2l15.8-1l7 7.6l.5 17.5l-7.3 7.6l6.8 6.9l7-6.9h15.8l6.1 6.9l7-6.9l-7-7.1V412.6l6.8-6.9l-6.8-7.6l-6.8 7H797.3l-6.9-7l-.5-16l7.5-8.3h15.1l6.8 7.6l6.8-7.6l-6.8-7.3l.6-17.1l6.2-6.8l-6.2-7.2l-6.7 6.4l-15.8 .8l-7-7.6l-6.8 6.8l6.8 7.6v16.8l-6.8 7.6H768.4l-7.5-7.6l.6-16l6.9-7.6l-7.5-7.2l-7 7.2H738.7l-6.8-7.2Z" class="g2_11"/>
<path d="M731.9 335.4l-6.1 7.2l6.9 6.7v16.1l-6.1 8.4l5.4 6.6l6.4-7.5h16.1l7.5 7.7l.3 17l-7.8 8.1l-15.8 .5l-7.6-7.4l-4.5 6.1l6.1 6.8l-.7 17.5l-6.5 7l6.5 7.5l6.7-7.5l15.8 .6l6.4 6.9l6.7-6.9l-7.6-8.1V413.3l7.6-8.2l15.8-1l7 7.6l.5 17.5l-7.3 7.6l6.8 6.9l7-6.9h15.8l6.1 6.9l7-6.9l-7-7.1V412.6l6.8-6.9l-6.8-7.6l-6.8 7H797.3l-6.9-7l-.5-16l7.5-8.3h15.1l6.8 7.6l6.8-7.6l-6.8-7.3l.6-17.1l6.2-6.8l-6.2-7.2l-6.7 6.4l-15.8 .8l-7-7.6l-6.8 6.8l6.8 7.6v16.8l-6.8 7.6H768.4l-7.5-7.6l.6-16l6.9-7.6l-7.5-7.2l-7 7.2H738.7l-6.8-7.2Z" class="g1_11"/>
</g>
</svg>