<svg viewBox="0 0 916 1222" version="1.1" xmlns="http://www.w3.org/2000/svg">
<defs>
<clipPath id="c0_4"><path d="M-.2 1222.5V-.2H918.5V1222.5Z"/></clipPath>
<style>
.g0_4{fill:none;stroke:#231F20;stroke-width:0.763;stroke-miterlimit:10;}
.g1_4{fill:none;stroke:#231F20;stroke-width:0.504;stroke-linejoin:bevel;stroke-dasharray:1,7;}
.g2_4{fill:none;stroke:#E23C3B;stroke-width:0.763;stroke-miterlimit:10;}
.g3_4{fill:#F07A2B;}
.g4_4{fill:none;stroke:#231F20;stroke-width:0.763;stroke-linejoin:bevel;}
.g5_4{fill:#3AC1F0;}
.g6_4{fill:none;stroke:#231F20;stroke-width:0.763;stroke-linejoin:bevel;stroke-dasharray:5,4;}
.g7_4{fill:#231F20;}
.g8_4{fill:none;stroke:#FFF;stroke-width:0.763;stroke-linejoin:bevel;stroke-dasharray:5,4;}
.g9_4{fill:#2A793C;}
.ga_4{fill:#FFF;}
.gb_4{fill:#ED4127;}
.gc_4{fill:none;stroke:#231F20;stroke-width:0.77;stroke-miterlimit:10;}
</style>
</defs>
<g clip-path="url(#c0_4)">
<path d="M625.2 309.6H322.1V116.3H625.2V309.6Z" class="g0_4"/>
<path d="M382.3 116.1V308.8m60.8-192.7V308.8m60.5-192.7V308.8m60.8-192.7V308.8M322.3 154.9H624.2M322.3 193.8H624.2M322.3 232.1H624.2M322.3 270.5H624.2" class="g1_4"/>
<path d="M382.5 116.6v2.7m60.7-2.7v2.7m60.7-2.7v2.7m60.5-2.7v2.7M382.5 306.9v2.7m60.7-2.7v2.7m60.7-2.7v2.7m60.5-2.7v2.7M322.2 154.9h2.9m-2.9 38.6h2.9m-2.9 38.6h2.9m-2.9 38.8h2.9m296.7-116h2.8m-2.8 38.6h2.8m-2.8 38.6h2.8m-2.8 38.8h2.8" class="g0_4"/>
<path d="M331.1 138.5c0 0 4.4 39.2 8 46.8c0 0 6.8 30.4 28.4 48c0 0 19.6 17.2 56.8 25.2c0 0 40.4 9.6 87.2 13.6l113.1 8.8" class="g2_4"/>
<path d="M441.3 447.6l-63 83.9H200l78.7-83.9H441.3Z" class="g3_4"/>
<path d="M441.3 447.6l-63 83.9H200l78.7-83.9H441.3Z" class="g4_4"/>
<path d="M376.6 430.9l-20.9 26.2H282.2l26.2-26.2h68.2Z" class="g5_4"/>
<path d="M376.6 430.9l-20.9 26.2H282.2l26.2-26.2h68.2Z" class="g4_4"/>
<path d="M376.8 431.4v47.2l-21 26.2V457.6l21-26.2Z" class="g5_4"/>
<path d="M376.8 431.4v47.2l-21 26.2V457.6l21-26.2Zm-92.3 25.7v47.2" class="g4_4"/>
<path d="M282.3 504.3h73.5V457.1H282.3v47.2Z" class="g5_4"/>
<path d="M282.3 457.1h73.5v47.2H282.3V457.1Z" class="g4_4"/>
<path d="M310.7 478.1h64.8m-66.9-47.2v47.2l-26.3 26.2" class="g6_4"/>
<path d="M381.7 433.1l.5 43.6" class="g4_4"/>
<path d="M385.6 435.9c-1.6-.9-2.9-2.4-3.9-3.9c-1 1.6-2.3 3-3.8 4v1c1.5-1 2.8-2.3 3.8-3.8c1 1.5 2.4 2.7 3.9 3.7v-1Z" class="g7_4"/>
<path d="M386 473.8c-1.6 1-2.9 2.5-3.8 4.1c-1-1.6-2.4-3-3.9-4l-.1-1c1.6 1 2.9 2.2 3.9 3.7c1-1.5 2.4-2.8 3.9-3.8v1Z" class="g7_4"/>
<path d="M283.4 508.1l70.1 .7" class="g4_4"/>
<path d="M286.3 504.2c-.9 1.6-2.4 2.9-4 3.9c1.6 .9 3 2.3 4 3.9h.9c-1-1.6-2.2-2.9-3.6-3.9c1.4-1 2.7-2.4 3.7-3.9h-1Z" class="g7_4"/>
<path d="M350.6 504.9c.9 1.6 2.4 2.9 4 3.9c-1.6 .9-3.1 2.2-4.1 3.8h-.9c1-1.5 2.2-2.8 3.7-3.8c-1.5-1.1-2.7-2.4-3.7-3.9h1Z" class="g7_4"/>
<path d="M378.9 481.6L359.8 506" class="g4_4"/>
<path d="M380.1 486.3c-.7-1.8-.8-3.7-.6-5.6c-1.7 .7-3.6 1-5.5 .8l-.6 .7c1.9 .2 3.6 .1 5.4-.5c-.2 1.8 .1 3.6 .7 5.3l.6-.7Z" class="g7_4"/>
<path d="M364.6 506.1c-1.8-.3-3.8 .1-5.5 .8c.2-1.9 .1-3.8-.6-5.6l.6-.7c.6 1.7 .9 3.5 .8 5.3c1.7-.6 3.5-.7 5.3-.6l-.6 .8Z" class="g7_4"/>
<path d="M319.6 499.1l14.2-18.6l5 .4L325.6 499l-6 .1Z" class="g8_4"/>
<path fill-rule="evenodd" d="M441.2 448.6l-.1 4.8L379.3 539l-.5-7.4l62.4-83Z" class="g9_4"/>
<path d="M441.2 448.6l-.1 4.8L379.3 539l-.5-7.4l62.4-83Z" class="g4_4"/>
<path fill-rule="evenodd" d="M200 531.6l-.3 6.7l179.6 1.6l-.5-7.8L200 531.6Z" class="g9_4"/>
<path d="M200 531.6l-.3 6.7l179.6 1.6l-.5-7.8L200 531.6Z" class="g4_4"/>
<path d="M480.9 526.9H704.4V513.6H480.9v13.3Z" class="g9_4"/>
<path d="M480.9 513.6H704.4v13.3H480.9V513.6Z" class="g4_4"/>
<path d="M553.7 508.7h90.8V466.5H553.7v42.2Z" class="g5_4"/>
<path d="M553.7 508.7V466.5h90.8v42.2" class="g4_4"/>
<path d="M480.7 514H593.1v-5H480.7v5Z" class="g3_4"/>
<path d="M480.7 509H593.1v5H480.7v-5Zm-33.3 3.7l38.6 2.2" class="g4_4"/>
<path d="M483.3 510.8c.9 1.7 2.3 3 3.8 4.1c-1.6 .9-3.1 2.1-4.2 3.7l-1-.1c1.1-1.5 2.4-2.7 3.9-3.7c-1.4-1.1-2.6-2.5-3.5-4h1Z" class="g7_4"/>
<path d="M602.4 513.9H704.6v-5H602.4v5Z" class="g3_4"/>
<path d="M602.4 508.9H704.6v5H602.4v-5Z" class="g4_4"/>
<path d="M593.6 514.5h8.3v-6.2h-8.3v6.2Z" class="ga_4"/>
<path d="M480.8 531.5H606v-4.9H480.8v4.9Z" class="gb_4"/>
<path d="M480.8 526.6H606v4.9H480.8v-4.9Zm12.4-16.3l-10.3-77.9" class="g4_4"/>
<path d="M479.4 435.8c1.5-1.2 2.6-2.8 3.3-4.5c1.2 1.4 2.7 2.7 4.4 3.4l.1 1c-1.6-.8-3.1-1.8-4.3-3.2c-.8 1.6-2 3.1-3.3 4.2l-.2-.9Z" class="g7_4"/>
<path d="M529.7 464.6l1.1 63.9" class="g4_4"/>
<path d="M534.7 525.5c-1.6 1-2.9 2.5-3.8 4.1c-1-1.6-2.4-3-4-4v-.9c1.6 .9 2.9 2.1 3.9 3.6c1-1.5 2.4-2.8 3.8-3.8l.1 1Z" class="g7_4"/>
<path d="M651.5 467.5V507" class="g4_4"/>
<path d="M655.4 470.4c-1.6-1-2.9-2.5-3.9-4c-.9 1.6-2.3 3-3.8 4v.9c1.5-1 2.8-2.2 3.8-3.7c1 1.5 2.4 2.8 3.9 3.7v-.9Z" class="g7_4"/>
<path d="M655.4 504.1c-1.6 1-2.9 2.4-3.9 4c-.9-1.6-2.3-3-3.8-4v-1c1.5 1 2.8 2.3 3.8 3.7c1-1.4 2.4-2.7 3.9-3.7v1Z" class="g7_4"/>
<path d="M597.6 434.8V512l116.4-.7" class="g4_4"/>
<path d="M601.4 437.7c-1.6-.9-2.8-2.4-3.8-4c-1 1.6-2.3 3-3.9 4v1c1.5-1 2.9-2.2 3.9-3.7c1 1.5 2.3 2.7 3.8 3.7v-1Z" class="g7_4"/>
<path d="M711 507.4c1 1.6 2.5 2.9 4.1 3.9c-1.6 1-3 2.3-4 3.9h-1c1-1.6 2.2-2.9 3.7-3.9c-1.5-1-2.8-2.4-3.7-3.9h.9Z" class="g7_4"/>
<path d="M238.3 491.7l111.3-.2l3.8-5.6l-110.7 1.3l-4.4 4.5Z" class="g8_4"/>
<path d="M457 432.8L425.4 455" class="g4_4"/>
<path d="M430 456.5c-1.7-.8-3.6-1-5.5-.9c.7-1.7 1.2-3.6 1.1-5.5l.7-.5c.1 1.8-.1 3.6-.8 5.3c1.8 0 3.6 .3 5.3 1l-.8 .6Z" class="g7_4"/>
<path d="M438 504.9l-35.8 3.3" class="g4_4"/>
<path d="M405.4 511.7c-1.1-1.5-2.7-2.6-4.3-3.4c1.5-1.1 2.8-2.6 3.6-4.2l1-.1c-.9 1.6-2 3-3.3 4.1c1.5 .9 2.9 2.2 4 3.6h-1Z" class="g7_4"/>
<path d="M248.7 522.5l-32.2-.3l21-23.6" class="g4_4"/>
<path d="M245.8 526.3c.9-1.6 2.4-2.8 4-3.8c-1.6-1-3-2.3-3.9-3.9h-1c1 1.5 2.2 2.9 3.7 3.9c-1.5 1-2.8 2.3-3.8 3.8h1Z" class="g7_4"/>
<path d="M232.7 498.2c1.8 .4 3.8 .1 5.6-.4c-.4 1.8-.3 3.7 .2 5.5l-.7 .7c-.4-1.7-.6-3.5-.4-5.3c-1.7 .5-3.6 .5-5.3 .2l.6-.7Z" class="g7_4"/>
<path d="M172 1035h39.3m-11.4 5.4h11.4m13.8-17.8h74.1M172 1081.1h9m-9 41.4h14.5" class="gc_4"/>
<path d="M555.3 720.7c0-48.8 39.4-88.4 88.2-88.6c48.8-.2 88.6 39 89.1 87.8Z" class="g5_4"/>
<path d="M555.3 720.7c0-48.8 39.4-88.4 88.2-88.6c48.8-.2 88.6 39 89.1 87.8" class="g4_4"/>
<path d="M551.3 723.6H679.2v-3.9H551.3v3.9Z" class="g3_4"/>
<path d="M551.3 719.7H679.2v3.9H551.3v-3.9Z" class="g4_4"/>
<path d="M688.4 723.6h79v-3.9h-79v3.9Z" class="g3_4"/>
<path d="M688.4 719.7h79v3.9h-79v-3.9Z" class="g4_4"/>
<path d="M667.7 772.4h7V723.6h-7v48.8Z" class="g3_4"/>
<path d="M667.7 723.6h7v48.8h-7V723.6Z" class="g4_4"/>
<path d="M691.9 772.3h7V723.5h-7v48.8Z" class="g3_4"/>
<path d="M691.9 723.5h7v48.8h-7V723.5Zm35.3 25.8l-21.9-24.6" class="g4_4"/>
<path d="M704.4 729.4c.6-1.8 .5-3.7 .2-5.5c1.8 .5 3.7 .7 5.6 .4l.6 .7c-1.8 .3-3.6 .3-5.4-.2c.3 1.8 .1 3.6-.4 5.4l-.6-.8Z" class="g7_4"/>
<path d="M680.2 772.4h7V681.7h-7v90.7Z" class="gb_4"/>
<path d="M680.2 681.7h7v90.7h-7V681.7Z" class="g4_4"/>
<path d="M616.2 718.5c0-15.8 12.8-28.7 28.6-28.8c15.9-.1 28.8 12.7 29 28.6Z" class="ga_4"/>
<path d="M616.2 718.5c0-15.8 12.8-28.7 28.6-28.8c15.9 0 28.8 12.7 29 28.6m68.7-31.7l-58 18.8" class="g4_4"/>
<path d="M688.5 708.2c-1.4-1.2-3.2-2-5-2.4c1.2-1.4 2.1-3.1 2.6-4.9l.9-.3c-.5 1.7-1.2 3.4-2.3 4.8c1.7 .5 3.3 1.4 4.7 2.5l-.9 .3Z" class="g7_4"/>
<path d="M626.4 748.7l8.2-36.2" class="g4_4"/>
<path d="M630.2 714.5c1.8-.6 3.4-1.8 4.7-3.1c.6 1.8 1.5 3.5 2.9 4.8l-.3 .9c-1.2-1.3-2.3-2.8-2.9-4.4c-1.3 1.2-2.9 2.1-4.6 2.7l.2-.9Z" class="g7_4"/>
<path d="M541.6 734.5l59-32.8" class="g4_4"/>
<path d="M596.2 699.8c1.6 .9 3.5 1.3 5.4 1.4c-1 1.6-1.6 3.5-1.7 5.3l-.8 .5c.1-1.8 .5-3.6 1.3-5.2c-1.7-.1-3.5-.7-5.1-1.6l.9-.4Z" class="g7_4"/>
<path d="M566.2 877.3h14.6m46.9 0h19.7m82.5-13.7h43.9" class="gc_4"/>
</g>
</svg>