<svg viewBox="0 0 916 1222" version="1.1" xmlns="http://www.w3.org/2000/svg">
<defs>
<clipPath id="c0_7"><path d="M-.2 1222.5V-.2H918.5V1222.5Z"/></clipPath>
<style>
.g0_7{fill:#2A793C;}
.g1_7{fill:none;stroke:#231F20;stroke-width:0.763;stroke-linejoin:bevel;}
.g2_7{fill:#F07A2B;}
.g3_7{fill:#3AC1F0;}
.g4_7{fill:none;stroke:#231F20;stroke-width:0.763;stroke-linejoin:bevel;stroke-dasharray:5,4;}
.g5_7{fill:#231F20;}
.g6_7{fill:none;stroke:#FFF;stroke-width:0.763;stroke-linejoin:bevel;stroke-dasharray:5,4;}
.g7_7{fill:#898B8E;}
.g8_7{fill:#FFF;}
.g9_7{fill:#ED4127;}
</style>
</defs>
<g clip-path="url(#c0_7)">
<path d="M544.2 157.8L473.6 252H273.5l88.2-94.2H544.2Z" class="g0_7"/>
<path d="M544.2 157.8L473.6 252H273.5l88.2-94.2H544.2Z" class="g1_7"/>
<path d="M273.5 263.8H473.6V252H273.5v11.8Z" class="g0_7"/>
<path d="M273.5 252H473.6v11.8H273.5V252Z" class="g1_7"/>
<path d="M473.6 263.8l70.6-94.2V157.8L473.6 252v11.8Z" class="g0_7"/>
<path d="M473.6 263.8l70.6-94.2V157.8L473.6 252v11.8Z" class="g1_7"/>
<path d="M544.5 157.5l-70.6 94.2H273.8l88.3-94.2H544.5Z" class="g2_7"/>
<path d="M544.5 157.5l-70.6 94.2H273.8l88.3-94.2H544.5Z" class="g1_7"/>
<path d="M475.1 128.1l-23.3 29.7l-82.4 .7l29.2-29.7l76.5-.7Z" class="g3_7"/>
<path d="M475.1 128.1l-23.3 29.7l-82.4 .7l29.2-29.7l76.5-.7Z" class="g1_7"/>
<path d="M475.2 128.7l.5 52.9l-23.3 29.7l-.5-53l23.3-29.6Z" class="g3_7"/>
<path d="M475.2 128.7l.5 52.9l-23.3 29.7l-.5-53l23.3-29.6ZM372 158.5l.4 53" class="g1_7"/>
<path d="M452.4 210.8l-.5-53l-82.4 .7l.5 53l82.4-.7Z" class="g3_7"/>
<path d="M452.4 210.8l-.5-53l-82.4 .7l.5 53l82.4-.7Z" class="g1_7"/>
<path d="M401.6 181.8l72.7-.7m-75.6-52.3l.5 53L370 211.5" class="g4_7"/>
<path fill-rule="evenodd" d="M410.3 211.3l11-14.6h3.6l-11 14.6h-3.6Z" class="g0_7"/>
<path d="M410.3 211.3l11-14.6h3.6l-11 14.6h-3.6" class="g4_7"/>
<path fill-rule="evenodd" d="M417.1 211.3L428 196.7h3.7l-11.1 14.6h-3.5Z" class="g0_7"/>
<path d="M417.1 211.3L428 196.7h3.7l-11.1 14.7l-3.5-.1" class="g4_7"/>
<path fill-rule="evenodd" d="M380.2 251.4h3.6L414 211.3h-3.7l-30.1 40.1Z" class="g0_7"/>
<path d="M380.2 251.4h3.6L414 211.3h-3.7l-30.1 40.1Z" class="g1_7"/>
<path fill-rule="evenodd" d="M386.9 251.4h3.7l30.1-40.1h-3.6l-30.2 40.1Z" class="g0_7"/>
<path d="M386.9 251.4h3.7l30.1-40.1h-3.6l-30.2 40.1Zm-70.8-87.8L390 245.9" class="g1_7"/>
<path d="M391 241.2c-.6 1.8-.6 3.7-.2 5.6c-1.8-.6-3.7-.8-5.6-.4l-.6-.8c1.8-.2 3.6-.2 5.3 .2c-.2-1.8-.1-3.6 .4-5.3l.7 .7Z" class="g5_7"/>
<path d="M270.5 211.9l25 45.4" class="g1_7"/>
<path d="M297.5 252.9c-1 1.6-1.4 3.5-1.5 5.4c-1.6-1-3.4-1.6-5.3-1.7l-.5-.8c1.9 .1 3.6 .5 5.2 1.3c.2-1.8 .8-3.5 1.6-5.1l.5 .9Z" class="g5_7"/>
<path d="M446.4 191.6c.1 4.3-7.6 7.9-17 8.1c-9.4 .2-17.1-3.1-17.2-7.4c0-4.2 7.6-7.8 17-8c9.4-.2 17.1 3.1 17.2 7.3Z" class="g0_7"/>
<path d="M446.4 191.6c.1 4.3-7.5 7.9-17 8.1c-9.4 .2-17.1-3.1-17.2-7.4c0-4.2 7.6-7.8 17-8c9.4-.2 17.1 3.1 17.2 7.3Z" class="g4_7"/>
<path d="M442.5 191.5c.1 2.8-5.6 5.1-12.7 5.3c-7.1 .1-12.9-2.1-12.9-4.8c-.1-2.8 5.7-5.2 12.7-5.3c7.1-.1 12.9 2 12.9 4.8Z" class="g2_7"/>
<path d="M442.5 191.5c.1 2.8-5.6 5.1-12.7 5.3c-7.1 .1-12.9-2.1-12.9-4.8c-.1-2.8 5.7-5.2 12.7-5.3c7.1-.1 12.9 2 12.9 4.8Z" class="g4_7"/>
<path fill-rule="evenodd" d="M595.6 160.2l20.9-27.9h6.9l-21.1 27.9h-6.7Z" class="g0_7"/>
<path d="M595.6 160.2l20.9-27.9h6.9l-21.1 27.9h-6.7" class="g4_7"/>
<path fill-rule="evenodd" d="M608.5 160.3l20.9-27.9h7l-21.2 27.9h-6.7Z" class="g0_7"/>
<path d="M608.5 160.3l20.9-27.9h7l-21.2 27.9h-6.7" class="g4_7"/>
<path fill-rule="evenodd" d="M634.2 133.2l31 .1l2.6-3.8H631l-2.2 3.7h5.4Z" class="g0_7"/>
<path d="M634.2 133.2l31 .1l2.6-3.8H631l-2.2 3.7h5.4Z" class="g4_7"/>
<path fill-rule="evenodd" d="M590.9 133.1l31 .2l2.6-3.8H587.7l-2.2 3.6h5.4Z" class="g0_7"/>
<path d="M590.9 133.1l31 .2l2.6-3.8H587.7l-2.2 3.6h5.4Z" class="g4_7"/>
<path fill-rule="evenodd" d="M590.5 246.1l19.3-25.7h6.4l-19.5 25.7h-6.2Z" class="g0_7"/>
<path d="M590.5 246.1l19.3-25.7h6.4l-19.5 25.7h-6.2" class="g4_7"/>
<path fill-rule="evenodd" d="M602.4 246.1l19.3-25.7h6.4l-19.5 25.7h-6.2Z" class="g0_7"/>
<path d="M602.4 246.1l19.3-25.7h6.4l-19.5 25.7h-6.2" class="g4_7"/>
<path fill-rule="evenodd" d="M581 221.4l2.5-3.8h71l-2.5 3.8H581Z" class="g0_7"/>
<path d="M581 221.4l2.5-3.8h71l-2.5 3.8H581Z" class="g4_7"/>
<path d="M522.7 130l-15.1 38.8" class="g1_7"/>
<path d="M512.2 167.5c-1.8 .3-3.5 1.2-5 2.3c-.4-1.8-1.1-3.6-2.2-5.1l.4-.9c1 1.5 1.8 3.1 2.2 4.8c1.5-1 3.2-1.7 5-2l-.4 .9Z" class="g5_7"/>
<path d="M318.4 525.4H596.6v-179H318.4v179Z" class="g2_7"/>
<path d="M318.4 346.4H596.6v179H318.4v-179Zm20.5 88.3l-6.4 23.5" class="g1_7"/>
<path d="M337 456.4c-1.8 .5-3.4 1.6-4.8 2.9c-.5-1.8-1.4-3.5-2.7-4.9l.3-.9c1.2 1.3 2.2 2.9 2.7 4.6c1.4-1.2 3-2.1 4.7-2.6l-.2 .9Z" class="g5_7"/>
<path d="M538.5 442.5c0 39.7-32.2 71.9-71.9 71.9c-39.7 0-71.8-32.2-71.8-71.9c0-39.7 32.1-71.9 71.8-71.9c39.7 0 71.9 32.2 71.9 71.9Z" class="g3_7"/>
<path d="M538.5 442.5c0 39.7-32.2 71.9-71.9 71.9c-39.7 0-71.8-32.2-71.8-71.9c0-39.7 32.1-71.9 71.8-71.9c39.7 0 71.9 32.2 71.9 71.9Z" class="g1_7"/>
<path d="M318.8 454.6h212v13.2h-212V454.6Z" class="g4_7"/>
<path d="M485 426.7h10.9v75.8H485V426.7Z" class="g6_7"/>
<path d="M467.8 351l-.9 90.4" class="g1_7"/>
<path d="M471.6 354c-1.6-1-2.8-2.5-3.8-4.1c-1 1.6-2.3 3-3.9 4v1c1.6-1 2.9-2.2 3.9-3.7c1 1.5 2.3 2.8 3.8 3.8v-1Z" class="g5_7"/>
<path d="M466 441.1h98.9" class="g1_7"/>
<path d="M562 437.3c1 1.6 2.4 2.8 4 3.8c-1.6 1-3 2.3-4 3.9h-.9c1-1.6 2.2-2.9 3.6-3.9c-1.4-1-2.7-2.3-3.7-3.8h1Z" class="g5_7"/>
<path d="M468.6 431.2l20.4 .4" class="g1_7"/>
<path d="M471.6 427.4c-1 1.5-2.5 2.8-4.1 3.7c1.6 1 3 2.4 3.9 4h1c-1-1.6-2.2-2.9-3.6-3.9c1.5-1 2.8-2.3 3.8-3.8h-1Z" class="g5_7"/>
<path d="M486.1 427.7c1 1.6 2.4 2.9 4 3.9c-1.6 .9-3.1 2.2-4.1 3.8h-1c1.1-1.6 2.3-2.9 3.8-3.8c-1.5-1.1-2.7-2.4-3.6-4l.9 .1Z" class="g5_7"/>
<path d="M485.9 394.5c-4.1 17.4-4.2 17.8-7.8 35" class="g1_7"/>
<path d="M482.5 427.5c-1.8 .6-3.3 1.8-4.6 3.1c-.6-1.7-1.6-3.4-2.9-4.7l.2-1c1.3 1.3 2.3 2.8 2.9 4.5c1.4-1.3 2.9-2.2 4.6-2.8l-.2 .9Z" class="g5_7"/>
<path d="M557 388.8l-59.3 37.9" class="g1_7"/>
<path d="M502.3 428.4c-1.7-.8-3.6-1.1-5.5-1.1c.8-1.6 1.3-3.5 1.3-5.4l.8-.5c0 1.8-.3 3.6-1 5.3c1.8 0 3.6 .5 5.2 1.2l-.8 .5Z" class="g5_7"/>
<path d="M475.8 443v16.8" class="g1_7"/>
<path d="M479.7 445.9c-1.6-1-2.9-2.5-3.9-4.1c-.9 1.6-2.2 3.1-3.8 4.1v.9c1.5-1 2.8-2.2 3.8-3.7c1.1 1.5 2.4 2.8 3.9 3.7v-.9Z" class="g5_7"/>
<path d="M479.7 456.9c-1.6 1-2.9 2.4-3.9 4c-.9-1.6-2.2-3-3.8-4V456c1.5 1 2.8 2.2 3.8 3.6c1.1-1.4 2.4-2.7 3.9-3.7v1Z" class="g5_7"/>
<path d="M434.5 432.6l38.9 17.7" class="g1_7"/>
<path d="M472.4 445.6c.2 1.9 1 3.6 2 5.2c-1.8 .2-3.6 .8-5.2 1.8l-.9-.4c1.6-.9 3.2-1.7 5-2c-1-1.5-1.5-3.2-1.8-5l.9 .4Z" class="g5_7"/>
<path d="M602.1 642.4h123V616.8h-123v25.6Z" class="g7_7"/>
<path d="M503.3 705.4H806.4V677.8H503.3v27.6Z" class="g0_7"/>
<path d="M503.3 677.8H806.4v27.6H503.3V677.8Z" class="g1_7"/>
<path d="M602.1 673h123V642.3h-123V673Z" class="g3_7"/>
<path d="M602.1 673V642.3h123V673" class="g1_7"/>
<path d="M503.4 673.1H655.5v4.5H503.4v-4.5Z" class="g2_7"/>
<path d="M503.4 673.1H655.5v4.5H503.4v-4.5ZM541 652.3l11.5 30.6" class="g1_7"/>
<path d="M555.1 678.8c-1.2 1.5-1.9 3.3-2.2 5.2c-1.5-1.2-3.2-2.1-5.1-2.4l-.3-.9c1.8 .4 3.5 1 4.9 2.1c.4-1.8 1.3-3.4 2.3-4.9l.4 .9Z" class="g5_7"/>
<path d="M668 677.6H806.3v-4.5H668v4.5Z" class="g2_7"/>
<path d="M668 673.1H806.3v4.5H668v-4.5Z" class="g1_7"/>
<path d="M656.2 678.1h11.1v-5.6H656.2v5.6Z" class="g8_7"/>
<path d="M503.5 705.8H672.9v4.5H503.5v-4.5Z" class="g9_7"/>
<path d="M503.5 705.8H672.9v4.5H503.5v-4.5Zm189.4 24.7l-37.6-22" class="g1_7"/>
<path d="M655.9 713.3c0-1.9-.7-3.7-1.5-5.4c1.8 0 3.7-.4 5.4-1.3l.8 .5c-1.6 .8-3.4 1.4-5.1 1.5c.7 1.6 1.1 3.4 1.2 5.2l-.8-.5Z" class="g5_7"/>
<path d="M602 642.1V617H725.1v25.1m23-23.7l-37.2 14.5" class="g1_7"/>
<path d="M715.1 635.4c-1.5-1.1-3.4-1.8-5.2-2.1c1.1-1.5 2-3.2 2.4-5.1l.8-.3c-.3 1.8-1 3.4-2 4.9c1.8 .4 3.4 1.2 4.9 2.3l-.9 .3Z" class="g5_7"/>
<path d="M752 648.4l-35.1 14" class="g1_7"/>
<path d="M721 664.9c-1.5-1.2-3.3-1.8-5.1-2.1c1.1-1.5 1.9-3.3 2.3-5.1l.8-.4c-.3 1.8-.9 3.5-2 5c1.8 .4 3.5 1.2 4.9 2.2l-.9 .4Z" class="g5_7"/>
<path d="M595 644.6l-.2 25.9" class="g1_7"/>
<path d="M598.8 647.5c-1.6-.9-2.8-2.4-3.8-4c-1 1.6-2.3 3-3.9 4v.9c1.5-1 2.9-2.2 3.9-3.6c1 1.5 2.3 2.7 3.8 3.7v-1Z" class="g5_7"/>
<path d="M598.7 667.6c-1.6 1-2.9 2.4-3.9 4c-.9-1.6-2.3-3-3.8-4v-1c1.5 1 2.8 2.2 3.8 3.7c1-1.5 2.4-2.7 3.9-3.7v1Z" class="g5_7"/>
<path d="M595.3 618.1l-.2 22" class="g1_7"/>
<path d="M599.1 621c-1.6-1-2.8-2.5-3.8-4c-1 1.5-2.3 3-3.9 3.9v1c1.6-1 2.9-2.2 3.9-3.7c1 1.5 2.3 2.8 3.8 3.8v-1Z" class="g5_7"/>
<path d="M599 637.2c-1.6 .9-2.9 2.4-3.9 4c-.9-1.6-2.2-3.1-3.8-4.1v-.9c1.5 1 2.8 2.2 3.8 3.7c1-1.5 2.4-2.7 3.9-3.7v1Z" class="g5_7"/>
</g>
</svg>