<svg viewBox="0 0 916 1222" version="1.1" xmlns="http://www.w3.org/2000/svg">
<defs>
<clipPath id="c0_13"><path d="M-.2 1222.5V-.2H918.5V1222.5Z"/></clipPath>
<style>
.g0_13{fill:#2A793C;}
.g1_13{fill:none;stroke:#231F20;stroke-width:0.763;stroke-linejoin:bevel;}
.g2_13{fill:#3AC1F0;}
.g3_13{fill:#F07A2B;}
.g4_13{fill:#231F20;}
.g5_13{fill:#FFF;}
.g6_13{fill:#ED4127;}
.g7_13{fill:none;stroke:#231F20;stroke-width:0.763;stroke-linejoin:bevel;stroke-dasharray:5,4;}
</style>
</defs>
<g clip-path="url(#c0_13)">
<path d="M466 246.5H667.1v-12H466v12Z" class="g0_13"/>
<path d="M667.1 234.5H466v12H667.1v-12Z" class="g1_13"/>
<path d="M531.5 230.1h81.7V192.2H531.5v37.9Z" class="g2_13"/>
<path d="M531.5 230.1V192.2h81.7v37.9" class="g1_13"/>
<path d="M466.1 234.7H666.3v-4.1H466.1v4.1Z" class="g3_13"/>
<path d="M666.3 230.6H466.1v4.1H666.3v-4.1ZM647.7 177.1l-6.1 61.5" class="g1_13"/>
<path d="M645.7 236.1c-1.7 .8-3.1 2.1-4.3 3.6c-.8-1.7-1.9-3.2-3.4-4.4l.1-.9c1.4 1.1 2.6 2.4 3.5 4c1.1-1.4 2.6-2.5 4.2-3.3l-.1 1Z" class="g4_13"/>
<path d="M538.8 235.2h7.4v-5.6h-7.4v5.6Z" class="g5_13"/>
<path d="M465.9 250.6H578.6v-4.4H465.9v4.4Z" class="g6_13"/>
<path d="M578.6 246.2H465.9v4.4H578.6v-4.4ZM493.8 226.8l-20.9-42.4" class="g1_13"/>
<path d="M470.7 188.7c1.1-1.6 1.5-3.5 1.7-5.3c1.6 1 3.4 1.7 5.3 1.9l.4 .8c-1.8-.2-3.6-.7-5.1-1.6c-.3 1.8-.9 3.5-1.8 5l-.5-.8Z" class="g4_13"/>
<path d="M447.4 233.4l22.5 15.9" class="g1_13"/>
<path d="M469.8 244.5c-.2 1.8 .3 3.7 1 5.4c-1.8-.1-3.8 .2-5.5 .9l-.8-.6c1.7-.6 3.5-1 5.3-1c-.7-1.7-.9-3.5-.8-5.3l.8 .6Z" class="g4_13"/>
<path d="M243.5 252.7H406.2V148.1H243.5V252.7Z" class="g3_13"/>
<path d="M406.2 148.1H243.5V252.7H406.2V148.1ZM268.6 136.4l-20.7 62.9" class="g1_13"/>
<path d="M252.5 197.7c-1.8 .4-3.5 1.4-4.9 2.6c-.4-1.8-1.2-3.5-2.4-5l.3-.9c1.1 1.4 2 3 2.5 4.7c1.4-1.1 3.1-1.8 4.8-2.3l-.3 .9Z" class="g4_13"/>
<path d="M375 162.6v71.3" class="g1_13"/>
<path d="M378.9 165.5c-1.6-1-2.9-2.5-3.9-4c-1 1.6-2.3 3-3.9 4v.9c1.6-1 2.9-2.2 3.9-3.7c1 1.5 2.4 2.8 3.9 3.7v-.9Z" class="g4_13"/>
<path d="M378.9 231c-1.6 .9-2.9 2.4-3.9 4c-1-1.6-2.3-3-3.9-4v-1c1.6 1 2.9 2.2 3.9 3.7c1-1.5 2.4-2.7 3.9-3.7v1Z" class="g4_13"/>
<path d="M619.5 193.1v35.4" class="g1_13"/>
<path d="M623.4 196c-1.6-.9-2.9-2.4-3.9-4c-1 1.6-2.3 3-3.9 4v1c1.6-1 2.9-2.2 3.9-3.7c1 1.5 2.4 2.7 3.9 3.7v-1Z" class="g4_13"/>
<path d="M623.4 225.6c-1.6 .9-2.9 2.4-3.9 4c-1-1.6-2.3-3-3.9-4v-1c1.6 1 2.9 2.2 3.9 3.7c1-1.5 2.4-2.7 3.9-3.7v1Z" class="g4_13"/>
<path d="M598.1 235h7.4v-5.6h-7.4V235Z" class="g5_13"/>
<path d="M287 197.8c.4-20.7 18.2-37.3 39.8-36.9c21.6 .3 38.8 17.4 38.5 38.1c-.4 20.8-18.2 37.3-39.8 37c-21.1-.3-38.2-16.7-38.5-37Z" class="g2_13"/>
<path d="M287 197.8c.4-20.7 18.2-37.3 39.8-36.9c21.6 .3 38.8 17.4 38.5 38.1c-.4 20.8-18.2 37.3-39.8 37c-21.1-.3-38.2-16.7-38.5-37" class="g7_13"/>
<path d="M295.6 198.7c.3-16.4 14.4-29.5 31.5-29.2c17.1 .2 30.7 13.8 30.4 30.2c-.3 16.4-14.3 29.5-31.4 29.2c-16.8-.3-30.2-13.2-30.5-29.3Z" class="g5_13"/>
<path d="M295.6 198.7c.3-16.4 14.4-29.5 31.5-29.2c17.1 .2 30.7 13.8 30.4 30.2c-.3 16.4-14.3 29.5-31.4 29.2c-16.8-.3-30.2-13.2-30.5-29.3" class="g7_13"/>
<path d="M300.1 198.8c.2-14 12.2-25.1 26.7-24.8c14.5 .2 26 11.6 25.8 25.6c-.3 13.9-12.2 25-26.7 24.8c-14.2-.3-25.6-11.3-25.8-24.9Z" class="g2_13"/>
<path d="M300.1 198.8c.2-14 12.2-25.1 26.7-24.8c14.5 .2 26 11.6 25.8 25.6c-.3 13.9-12.2 25-26.7 24.8c-14.2-.3-25.6-11.3-25.8-24.9m-56.5-4.1H311v9.4H243.6v-9.4Z" class="g7_13"/>
<path d="M337.5 125.5l-9 45.3" class="g1_13"/>
<path d="M332.8 168.7c-1.7 .6-3.3 1.8-4.5 3.2c-.7-1.8-1.7-3.4-3-4.7l.2-.9c1.3 1.2 2.3 2.7 3 4.3c1.3-1.2 2.9-2.2 4.5-2.8l-.2 .9Z" class="g4_13"/>
<path d="M553.8 158.3l6.1 42.8" class="g1_13"/>
<path d="M563.3 197.6c-1.4 1.2-2.5 2.8-3.2 4.5c-1.2-1.4-2.7-2.6-4.4-3.4l-.2-.9c1.7 .7 3.2 1.7 4.4 3.1c.8-1.6 1.9-3.1 3.3-4.2l.1 .9Z" class="g4_13"/>
<path d="M447.4 164.6L401 184.2" class="g1_13"/>
<path d="M405.2 186.6c-1.5-1.1-3.4-1.7-5.2-2c1.1-1.5 1.9-3.3 2.2-5.1l.9-.4c-.4 1.8-1 3.5-1.9 5c1.7 .4 3.4 1.1 4.9 2.1l-.9 .4Z" class="g4_13"/>
<path d="M251.4 574.3H487.2V397.1H251.4V574.3Z" class="g3_13"/>
<path d="M251.4 397.1H487.2V574.3H251.4V397.1Zm12.4-26.3l-5.4 113.8" class="g1_13"/>
<path d="M262.4 481.9c-1.7 .8-3 2.3-4.1 3.8c-.9-1.6-2.1-3.1-3.7-4.2l.1-1c1.5 1.1 2.7 2.4 3.7 3.9c1-1.4 2.5-2.6 4-3.5v1Z" class="g4_13"/>
<path d="M325.1 481.4c.6-34.9 30.4-62.8 66.8-62.5c36.4 .3 65.7 28.7 65.6 63.6c0 35-29.4 63.3-65.8 63.6c-36.3 .2-66.1-27.8-66.6-62.7Z" class="g5_13"/>
<path d="M325.1 481.4c.6-34.9 30.4-62.8 66.8-62.5c36.4 .3 65.7 28.7 65.6 63.6c0 35-29.4 63.3-65.8 63.6c-36.3 .2-66.1-27.8-66.6-62.7m-72.4-6.9H366.6V488H252.7V476.5Z" class="g7_13"/>
<path d="M364.5 363l-3.4 60" class="g1_13"/>
<path d="M365.2 420.3c-1.7 .9-3.1 2.3-4.1 3.8c-.9-1.7-2.1-3.2-3.7-4.2l.1-1c1.5 1.1 2.7 2.4 3.6 3.9c1.1-1.4 2.6-2.6 4.1-3.5v1Z" class="g4_13"/>
<path d="M366.5 476.6V450.1h52.9v10h-43v43h43v10H366.5V476.6Z" class="g7_13"/>
<path d="M454 377.1l-45.5 72.1" class="g1_13"/>
<path d="M413.3 448.8c-1.9 0-3.8 .6-5.4 1.4c0-1.9-.4-3.8-1.2-5.5l.5-.8c.8 1.7 1.3 3.4 1.3 5.2c1.7-.7 3.5-1.1 5.3-1.1l-.5 .8Z" class="g4_13"/>
<path d="M504.8 486.3c.7-47.6 39.7-85.7 87.3-85.3c47.6 .5 85.9 39.2 85.9 86.8c-.1 47.6-38.5 86.2-86.1 86.5c-47.6 .3-86.5-37.8-87.1-85.4Z" class="g2_13"/>
<path d="M504.8 486.3c.7-47.6 39.7-85.7 87.3-85.3c47.6 .5 85.9 39.2 85.9 86.8c-.1 47.6-38.5 86.2-86.1 86.5c-47.6 .3-86.5-37.8-87.1-85.4" class="g1_13"/>
<path fill-rule="evenodd" d="M567.9 480.9V454.4l47.4 .4l-.1 10.2l-37.3-.7l-1.5 44l65.3-.2v10.6l-75.2-.4l1.4-37.4Z" class="g5_13"/>
<path d="M567.9 480.9V454.4l47.4 .4l-.1 10.2l-37.3-.7l-1.5 44l65.3-.2v10.6l-75.2-.4l1.4-37.4Z" class="g7_13"/>
<path d="M649.4 396.4l-11.4 40" class="g1_13"/>
<path d="M642.5 434.7c-1.8 .4-3.4 1.5-4.8 2.8c-.5-1.8-1.3-3.6-2.6-5l.3-.9c1.2 1.4 2.1 2.9 2.7 4.6c1.4-1.1 3-2 4.7-2.5l-.3 1Z" class="g4_13"/>
<path d="M567.3 448.2h47.5" class="g1_13"/>
<path d="M570.2 444.3c-.9 1.6-2.4 2.9-4 3.9c1.6 .9 3 2.2 4 3.8h1c-1-1.5-2.2-2.8-3.7-3.8c1.5-1.1 2.7-2.4 3.7-3.9h-1Z" class="g4_13"/>
<path d="M611.8 444.3c1 1.6 2.5 2.9 4.1 3.9c-1.6 .9-3.1 2.2-4.1 3.8h-.9c1-1.5 2.2-2.8 3.7-3.8c-1.5-1.1-2.8-2.4-3.7-3.9h.9Z" class="g4_13"/>
<path d="M568.9 525.9l69.8 .4" class="g1_13"/>
<path d="M571.8 522.1c-1 1.6-2.5 2.9-4 3.8c1.5 1 3 2.3 4 3.9h.9c-1-1.5-2.2-2.9-3.7-3.9c1.5-1 2.8-2.3 3.8-3.8h-1Z" class="g4_13"/>
<path d="M635.8 522.4c.9 1.6 2.4 2.9 4 3.9c-1.6 .9-3 2.2-4 3.8h-1c1-1.5 2.2-2.8 3.7-3.8c-1.5-1.1-2.7-2.4-3.7-3.9h1Z" class="g4_13"/>
<path d="M553.2 518.9l.3-63.1" class="g1_13"/>
<path d="M549.4 516c1.6 .9 2.8 2.4 3.8 4c1-1.6 2.3-3 3.9-4v-.9c-1.5 1-2.9 2.2-3.9 3.6c-1-1.4-2.3-2.7-3.8-3.7v1Z" class="g4_13"/>
<path d="M549.7 458.7c1.6-1 2.9-2.5 3.8-4c1 1.6 2.3 3 3.9 4v.9c-1.5-1-2.9-2.2-3.9-3.7c-1 1.5-2.3 2.8-3.8 3.7v-.9Z" class="g4_13"/>
<path d="M552 365.9l22 97.6" class="g1_13"/>
<path d="M577.2 459.8c-1.4 1.2-2.3 3-2.9 4.7c-1.3-1.3-2.9-2.4-4.7-3l-.2-1c1.7 .7 3.3 1.6 4.6 2.8c.7-1.7 1.7-3.2 3-4.5l.2 1Z" class="g4_13"/>
<path d="M247 778.2H446.4v-7.5H247v7.5Z" class="g3_13"/>
<path d="M247.7 777.4H445.6v-5.9H247.7v5.9ZM446.4 779H247l-.8-.8v-7.5l.8-.7H446.4l.7 .7v7.5l-.7 .8Z" class="g4_13"/>
<path d="M365 769.7h59.1V722.1H365v47.6Z" class="g2_13"/>
<path d="M365 722.5h59.1v47.6H365V722.5Z" class="g1_13"/>
<path d="M330 817.4h6.7V778H330v39.4Z" class="g3_13"/>
<path d="M330 778h6.7v39.4H330V778Z" class="g1_13"/>
<path d="M354.5 817.8h6.7v-40h-6.7v40Z" class="g3_13"/>
<path d="M354.5 777.8h6.7v40h-6.7v-40Z" class="g1_13"/>
<path d="M342.3 817.6h6.4V683.1h-6.4V817.6Z" class="g6_13"/>
<path d="M342.9 817.1h5.2V683.7h-5.2V817.1Zm5.8 1.1h-6.4l-.6-.6V683.1l.6-.6h6.4l.6 .6V817.6l-.6 .6Z" class="g4_13"/>
<path d="M315.8 700.9l27.1 27" class="g1_13"/>
<path d="M343.6 723.1c-.5 1.8-.3 3.7 .1 5.5c-1.8-.4-3.7-.5-5.6-.1l-.6-.6c1.8-.4 3.5-.5 5.3-.2c-.3-1.7-.3-3.6 .1-5.3l.7 .7Z" class="g4_13"/>
<path d="M263.7 768.3h59.1V720.7H263.7v47.6Z" class="g2_13"/>
<path d="M263.7 720.7h59.1v47.6H263.7V720.7Zm127.3-51l.6 66.9" class="g1_13"/>
<path d="M395.4 733.7c-1.6 1-2.9 2.5-3.8 4c-1-1.5-2.3-3-3.9-4v-.9c1.5 1 2.8 2.2 3.9 3.7c1-1.5 2.3-2.8 3.8-3.8v1Z" class="g4_13"/>
<path d="M463.9 778.2H663.3v-7.5H463.9v7.5Z" class="g3_13"/>
<path d="M464.6 777.4H662.5v-5.9H464.6v5.9ZM663.3 779H463.9l-.8-.8v-7.5l.8-.7H663.3l.8 .7v7.5l-.8 .8Z" class="g4_13"/>
<path d="M546.9 817.4h6.7V778h-6.7v39.4Z" class="g3_13"/>
<path d="M546.9 778h6.7v39.4h-6.7V778Z" class="g1_13"/>
<path d="M571.5 817.8h6.7v-40h-6.7v40Z" class="g3_13"/>
<path d="M571.5 777.8h6.7v40h-6.7v-40Z" class="g1_13"/>
<path d="M559.2 817.6h6.4V683.1h-6.4V817.6Z" class="g6_13"/>
<path d="M559.8 817.1H565V683.7h-5.2V817.1Zm5.8 1.1h-6.4l-.6-.6V683.1l.6-.5h6.4l.6 .5V817.6l-.6 .6Z" class="g4_13"/>
<path d="M533.4 692.7l27.1 26.9" class="g1_13"/>
<path d="M561.2 714.9c-.5 1.8-.3 3.7 .1 5.5c-1.8-.4-3.8-.5-5.6-.1l-.7-.6c1.8-.4 3.6-.5 5.4-.2c-.4-1.7-.3-3.6 .1-5.3l.7 .7Z" class="g4_13"/>
<path fill-rule="evenodd" d="M508.8 770.7c2.9-22.3 8.8-43.9 36.7-54.6Z" class="g2_13"/>
<path d="M508.8 770.7c2.9-22.3 8.8-43.9 36.7-54.6" class="g1_13"/>
<path fill-rule="evenodd" d="M574.8 716.1c26.9 9.4 35.8 31.6 38.1 55.6Z" class="g2_13"/>
<path d="M574.8 716.1c26.9 9.4 35.8 31.6 38.1 55.6" class="g1_13"/>
<path fill-rule="evenodd" d="M545.3 716.2l.2 53.7H509.3Z" class="g2_13"/>
<path d="M545.3 716.2l.2 53.7H509.3" class="g1_13"/>
<path fill-rule="evenodd" d="M574.8 716.1V771l37.7-.1Z" class="g2_13"/>
<path d="M574.8 716.1V771l37.7-.1m-3.9-109.4l-15.9 77.4" class="g1_13"/>
<path d="M597.1 736.8c-1.8 .6-3.3 1.9-4.6 3.2c-.6-1.8-1.6-3.4-3-4.7l.2-.9c1.3 1.2 2.4 2.7 3.1 4.3c1.3-1.2 2.8-2.2 4.5-2.8l-.2 .9Z" class="g4_13"/>
</g>
</svg>