<svg viewBox="0 0 916 1222" version="1.1" xmlns="http://www.w3.org/2000/svg">
<defs>
<clipPath id="c0_5"><path d="M-.2 1222.5V-.2H918.5V1222.5Z"/></clipPath>
<style>
.g0_5{fill:#F07A2B;}
.g1_5{fill:none;stroke:#231F20;stroke-width:0.763;stroke-linejoin:bevel;}
.g2_5{fill:#231F20;}
.g3_5{fill:#3AC1F0;}
.g4_5{fill:none;stroke:#FFF;stroke-width:0.763;stroke-linejoin:bevel;stroke-dasharray:1,4,5,4;}
.g5_5{fill:none;stroke:#231F20;stroke-width:0.763;stroke-linejoin:bevel;stroke-dasharray:5,4;}
.g6_5{fill:none;stroke:#231F20;stroke-width:0.763;stroke-linejoin:bevel;}
.g7_5{fill:none;stroke:#231F20;stroke-width:0.763;stroke-linejoin:bevel;stroke-dasharray:5,4;}
.g8_5{fill:#ED4127;}
</style>
</defs>
<g clip-path="url(#c0_5)">
<path d="M455.7 311.3H674.5V113.1H455.7V311.3Z" class="g0_5"/>
<path d="M455.1 113.7H673.9V311.9H455.1V113.7Z" class="g1_5"/>
<path d="M241.2 113.9H384.1V312.7H241.2V113.9Z" class="g0_5"/>
<path d="M384.1 113.9H241.2V312.7H384.1V113.9ZM400.4 248.7l-85.5 22.6" class="g1_5"/>
<path d="M318.7 274.3c-1.3-1.3-3.1-2.2-4.9-2.7c1.3-1.4 2.4-3 2.9-4.8l1-.2c-.6 1.7-1.4 3.3-2.6 4.6c1.7 .6 3.2 1.6 4.5 2.8l-.9 .3Z" class="g2_5"/>
<path d="M268.6 245.9l17.7 16.6L311.1 236l35.4 33.1l16.6-17.7l-35.4-33.1l24.9-26.5l-17.7-16.6L310 201.7l-35.4-33.1L258 186.3l35.4 33.1l-24.8 26.5Z" class="g3_5"/>
<path d="M268.6 245.9l17.7 16.6L311.1 236l35.4 33.1l16.6-17.7l-35.4-33.1l24.9-26.5l-17.7-16.6L310 201.7l-35.4-33.1L258 186.3l35.4 33.1l-24.8 26.5Z" class="g1_5"/>
<path d="M294.5 214.4V223h33.4v-8.6H294.5Z" class="g4_5"/>
<path d="M307.1 211.7V312.5h10V211.7h-10Z" class="g5_5"/>
<path d="M490.1 154.4l-.1 15.4l23 .1l-.1 30.7l15.4 .1l.1-30.7l23 .1l.1-15.4l-23-.1l.1-30.7l-15.3-.1l-.2 30.7l-23-.1Z" class="g3_5"/>
<path d="M490.1 154.4l-.1 15.4l23 .1l-.1 30.7l15.4 .1l.1-30.7l23 .1l.1-15.4l-23-.1l.1-30.7l-15.3-.1l-.2 30.7l-23-.1Z" class="g1_5"/>
<path d="M626.9 132.4H611.6l-.1 23l-30.8-.1v15.3l30.7 .2l-.1 23l15.3 .1l.1-23.1l30.8 .2V155.6l-30.7-.1l.1-23.1Z" class="g3_5"/>
<path d="M626.9 132.4H611.6l-.1 23l-30.8-.1v15.3l30.7 .2l-.1 23l15.3 .1l.1-23.1l30.8 .2V155.6l-30.7-.1l.1-23.1Z" class="g1_5"/>
<path d="M589.2 252.7v15.4l23 .1l-.1 30.7l15.3 .1l.2-30.7l23 .1l.1-15.4l-23.1-.1l.2-30.7l-15.4-.1l-.1 30.8l-23.1-.2Z" class="g3_5"/>
<path d="M589.2 252.7v15.4l23 .1l-.1 30.7l15.3 .1l.2-30.7l23 .1l.1-15.4l-23.1-.1l.2-30.7l-15.4-.1l-.1 30.8l-23.1-.2Z" class="g1_5"/>
<path d="M526.7 231.1l-15.4-.1l-.1 23l-30.7-.1l-.1 15.4l30.7 .1l-.1 23l15.4 .1l.1-23l30.7 .1l.1-15.3l-30.7-.2l.1-23Z" class="g3_5"/>
<path d="M526.7 231.1l-15.4-.1l-.1 23l-30.7-.1l-.1 15.4l30.7 .1l-.1 23l15.4 .1l.1-23l30.7 .1l.1-15.3l-30.7-.2l.1-23Z" class="g1_5"/>
<path d="M627.7 169.6l-15-15.1l-3.8 3.9l15 15l3.8-3.8ZM526.1 153l-15.7 14.3l3.7 4L529.8 157l-3.7-4Zm1.4 115.3l-15-15l-3.8 3.8l15 15l3.8-3.8Zm85.6 1.2l15.7-14.3l-3.7-4l-15.6 14.3l3.6 4Z" class="g4_5"/>
<path d="M456.1 218H569.6m50.7-55.1l-13.8 12.4H567.9m-49.6-15.2L532 175.3h37.3v.6m0 72.5h37.2l13.8 13.7m13.6-49.5c0 36.6-29.6 66.2-66.2 66.2c-36.6 0-66.2-29.6-66.2-66.2c0-36.6 29.6-66.2 66.2-66.2c36.6 0 66.2 29.6 66.2 66.2Z" class="g5_5"/>
<path d="M447.9 241.7L468 221.6" class="g1_5"/>
<path d="M463.2 220.9c1.8 .5 3.7 .3 5.5-.1c-.4 1.8-.5 3.8-.1 5.6l-.6 .7c-.4-1.8-.5-3.6-.2-5.4c-1.7 .4-3.6 .3-5.3-.1l.7-.7Z" class="g2_5"/>
<path d="M410.3 171.6l-85.1 44.3" class="g1_5"/>
<path d="M329.5 218c-1.6-1-3.5-1.4-5.3-1.6c.9-1.6 1.6-3.4 1.8-5.3l.8-.4c-.2 1.8-.6 3.6-1.5 5.1c1.8 .3 3.5 .9 5.1 1.8l-.9 .4Z" class="g2_5"/>
<path d="M437.9 167.2l75.3-6.9" class="g1_5"/>
<path d="M509.9 156.7c1.1 1.6 2.7 2.7 4.4 3.5c-1.5 1.1-2.8 2.6-3.7 4.2l-.9 .1c.8-1.6 1.9-3 3.3-4.2c-1.6-.8-2.9-2.1-4-3.5l.9-.1Z" class="g2_5"/>
<path d="M569.3 175.3c0 0-.4 73.4 0 73.1H534.8L521 262.1" class="g5_5"/>
<path d="M805.7 535.5l-.2 4.6l-.5 4.4l-1 4.4l-1.4 4.3l-1.7 4.2l-2 4.1l-2.2 4.1l-2.7 3.8l-3.1 4l-3.4 3.7l-3.5 3.5l-4 3.6l-4.2 3.4l-4.6 3.4l-4.6 3l-5 3.1l-5.3 2.9l-5.4 2.7l-5.8 2.7l-5.8 2.4L733 610l-6.3 2.2l-6.4 1.9l-6.7 1.7l-6.9 1.5l-7 1.5l-7.1 1l-7.3 1.1l-7.4 .8l-7.7 .5l-7.6 .3l-7.7 .2l-7.8-.2l-7.6-.3l-7.7-.5l-7.4-.8l-7.3-1.1l-7.2-1l-6.9-1.5l-6.8-1.5l-6.8-1.7l-6.4-1.9l-6.3-2.2l-6.1-2.2l-6-2.4l-5.7-2.7l-5.5-2.7l-5.2-2.9l-5-3.1l-4.7-3l-4.6-3.4l-4.2-3.4l-4-3.6l-3.5-3.5l-3.4-3.7l-3-4l-2.6-3.8l-2.4-4.1l-2-4.1l-1.7-4.2l-1.4-4.3l-1-4.4l-.5-4.4l-.2-4.6l.2-4.4l.5-4.4l1-4.4l1.4-4.3l1.7-4.2l2-4.1l2.4-4.1l2.6-3.9l3-3.8l3.4-3.8l3.5-3.7l4-3.6l4.2-3.4l4.6-3.2l4.7-3.2l5-3.1l5.2-2.9l5.5-2.7l5.7-2.5l6-2.4l6.1-2.4l6.3-2l6.4-1.9l6.8-1.9l6.8-1.5l6.9-1.4l7.2-1.1l7.3-.9l7.4-.8l7.7-.5l7.6-.4l7.8-.1l7.7 .1l7.6 .4l7.7 .5l7.4 .8l7.3 .9l7.1 1.1l7 1.4l6.9 1.5l13.1 3.8l6.3 2l6.3 2.4l5.8 2.4l5.8 2.5l5.4 2.7l5.3 2.9l5 3.1l9.2 6.4l4.2 3.4l4 3.6l3.5 3.7l3.4 3.8l3.1 3.8l2.7 3.9l2.2 4.1l2 4.1l1.7 4.2l1.4 4.3l1 4.4l.5 4.4l.2 4.4Z" class="g0_5"/>
<path d="M805.7 535.5l-.2 4.6l-.5 4.4l-1 4.4l-1.4 4.3l-1.7 4.2l-2 4.1l-2.2 4.1l-2.7 3.8l-3.1 4l-3.4 3.7l-3.5 3.5l-4 3.6l-4.2 3.4l-4.6 3.4l-4.6 3l-5 3.1l-5.3 2.9l-5.4 2.7l-5.8 2.7l-5.8 2.4L733 610l-6.3 2.2l-6.4 1.9l-6.7 1.7l-6.9 1.5l-7 1.5l-7.1 1l-7.3 1.1l-7.4 .8l-7.7 .5l-7.6 .3l-7.7 .2l-7.8-.2l-7.6-.3l-7.7-.5l-7.4-.8l-7.3-1.1l-7.2-1l-6.9-1.5l-6.8-1.5l-6.8-1.7l-6.4-1.9l-6.3-2.2l-6.1-2.2l-6-2.4l-5.7-2.7l-5.5-2.7l-5.2-2.9l-5-3.1l-4.7-3l-4.6-3.4l-4.2-3.4l-4-3.6l-3.5-3.5l-3.4-3.7l-3-4l-2.6-3.8l-2.4-4.1l-2-4.1l-1.7-4.2l-1.4-4.3l-1-4.4l-.5-4.4l-.2-4.6l.2-4.4l.5-4.4l1-4.4l1.4-4.3l1.7-4.2l2-4.1l2.4-4.1l2.6-3.9l3-3.8l3.4-3.8l3.5-3.7l4-3.6l4.2-3.4l4.6-3.2l4.7-3.2l5-3.1l5.2-2.9l5.5-2.7l5.7-2.5l6-2.4l6.1-2.4l6.3-2l6.4-1.9l6.8-1.9l6.8-1.5l6.9-1.4l7.2-1.1l7.3-.9l7.4-.8l7.7-.5l7.6-.4l7.8-.1l7.7 .1l7.6 .4l7.7 .5l7.4 .8l7.3 .9l7.1 1.1l7 1.4l6.9 1.5l13.1 3.8l6.3 2l6.3 2.4l5.8 2.4l5.8 2.5l5.4 2.7l5.3 2.9l5 3.1l9.2 6.4l4.2 3.4l4 3.6l3.5 3.7l3.4 3.8l3.1 3.8l2.7 3.9l2.2 4.1l2 4.1l1.7 4.2l1.4 4.3l1 4.4l.5 4.4l.2 4.4Z" class="g6_5"/>
<path d="M805.7 535.5v2.3l-.2 4.6l-.5 4.3l-1 4.3l-1.4 4.4l-1.7 4.2l-2 4.1l-2.2 4.1l-2.7 3.9l-3.1 3.9l-3.4 3.7l-3.5 3.6l-4 3.5l-4.2 3.5l-4.6 3.3l-4.6 3.1l-5 3l-5.3 2.9l-5.4 2.7l-5.8 2.8l-5.8 2.3l-6.3 2.3l-6.3 2.1l-6.4 1.9l-6.7 1.7l-6.9 1.5l-7 1.4l-7.1 1.2l-7.3 1l-7.4 .8l-7.7 .5l-7.6 .4l-7.7 .1l-7.8-.1l-7.6-.4l-7.7-.5l-7.4-.8l-7.3-1l-7.2-1.2l-6.9-1.4l-6.8-1.5l-6.8-1.7l-6.4-1.9l-6.3-2.1l-6.1-2.3l-6-2.3l-5.7-2.8l-5.5-2.7l-5.2-2.9l-5-3l-4.7-3.1l-4.6-3.3l-4.2-3.5l-4-3.5l-3.5-3.6l-3.4-3.7l-3-3.9l-2.6-3.9l-2.4-4.1l-2-4.1l-1.7-4.2l-1.4-4.4l-1-4.3l-.5-4.3l-.2-4.6v-2.3l.2 4.6l.5 4.4l1 4.4l1.4 4.3l1.7 4.2l2 4.1l2.4 4.1l2.6 3.9l3 3.9l3.4 3.7l3.5 3.6l4 3.6l4.2 3.3l4.6 3.4l4.7 3.1l5 3l5.2 2.9l5.5 2.7l5.7 2.7l6 2.4l6.1 2.2l6.3 2.3l6.4 1.8l6.8 1.7l6.8 1.6l6.9 1.4l7.2 1l7.3 1.1l7.4 .8l7.7 .5l7.6 .4l7.8 .1l7.7-.1l7.6-.4l7.7-.5l7.4-.8l7.3-1.1l7.1-1l7-1.4l6.9-1.6l6.7-1.7l6.4-1.8L733 610l6.3-2.2l5.8-2.4l5.8-2.7l5.4-2.7l5.3-2.9l5-3l4.6-3.1l4.6-3.4l4.2-3.3l4-3.6l3.5-3.6l3.4-3.7l3.1-3.9l2.7-3.9l2.2-4.1l2-4.1l1.7-4.2l1.4-4.3l1-4.4l.5-4.4l.2-4.6Z" class="g0_5"/>
<path d="M805.7 535.5v2.3l-.2 4.6l-.5 4.3l-1 4.3l-1.4 4.4l-1.7 4.2l-2 4.1l-2.2 4.1l-2.7 3.9l-3.1 3.9l-3.4 3.7l-3.5 3.6l-4 3.5l-4.2 3.5l-4.6 3.3l-4.6 3.1l-5 3l-5.3 2.9l-5.4 2.7l-5.8 2.8l-5.8 2.3l-6.3 2.3l-6.3 2.1l-6.4 1.9l-6.7 1.7l-6.9 1.5l-7 1.4l-7.1 1.2l-7.3 1l-7.4 .8l-7.7 .5l-7.6 .4l-7.7 .1l-7.8-.1l-7.6-.4l-7.7-.5l-7.4-.8l-7.3-1l-7.2-1.2l-6.9-1.4l-6.8-1.5l-6.8-1.7l-6.4-1.9l-6.3-2.1l-6.1-2.3l-6-2.3l-5.7-2.8l-5.5-2.7l-5.2-2.9l-5-3l-4.7-3.1l-4.6-3.3l-4.2-3.5l-4-3.5l-3.5-3.6l-3.4-3.7l-3-3.9l-2.6-3.9l-2.4-4.1l-2-4.1l-1.7-4.2l-1.4-4.4l-1-4.3l-.5-4.3l-.2-4.6v-2.3l.2 4.6l.5 4.4l1 4.4l1.4 4.3l1.7 4.2l2 4.1l2.4 4.1l2.6 3.9l3 3.9l3.4 3.7l3.5 3.6l4 3.6l4.2 3.3l4.6 3.4l4.7 3.1l5 3l5.2 2.9l5.5 2.7l5.7 2.7l6 2.4l6.1 2.2l6.3 2.3l6.4 1.8l6.8 1.7l6.8 1.6l6.9 1.4l7.2 1l7.3 1.1l7.4 .8l7.7 .5l7.6 .4l7.8 .1l7.7-.1l7.6-.4l7.7-.5l7.4-.8l7.3-1.1l7.1-1l7-1.4l6.9-1.6l6.7-1.7l6.4-1.8L733 610l6.3-2.2l5.8-2.4l5.8-2.7l5.4-2.7l5.3-2.9l5-3l4.6-3.1l4.6-3.4l4.2-3.3l4-3.6l3.5-3.6l3.4-3.7l3.1-3.9l2.7-3.9l2.2-4.1l2-4.1l1.7-4.2l1.4-4.3l1-4.4l.5-4.4l.2-4.6Z" class="g6_5"/>
<path d="M648.8 482.7h6.1l1.9 .1h2l2 .2l2.3 .3l2.2 .3l2.4 .3l2.3 .2l2.4 .1h2.4l2.2-.5l1.9-.9l1.5-1l1.2-1.2l1.2-1.3l1.2-1l2.2-2.2l1.2-1.1l1.1-.8l1.4-.8l1.2-.9l1.5-.9l1.4-.8l1.5-.8l1.7-.9l1.9-.8l1.7-.9l1.9-1l1.6-1l1.3-1.2l.3-1.4l-.3-1.3l-.8-1.4l-.8-1.3l-.8-1.2l-.9-1.2l-.7-1.2l-.7-1.2l-.5-1.2l-.5-1l-.5-1.2l-.3-1.2l-.2-1l-.2-1.2l-.1-1.3v-1.2l-.2-1.4v-1.5l-.2-1.4l-.5-1.3l-1.2-1.2l-1.8-.8l-2.2-.7l-2.3-.4l-2.3-.5l-2.3-.3l-2.1-.4l-1.9-.5l-2.1-.3l-1.8-.5L676 433l-1.9-.5l-1.7-.7l-1.7-.5l-1.7-.7l-1.8-.9l-1.9-.6l-1.9-.9l-1.8-.8l-2.3-.9l-2.2-.3h-2.2l-2.3 .3l-2.1 .7l-4.1 1.7l-3.7 1.3L641 431l-1.9 .5l-1.8 .5l-1.8 .5l-1.8 .5l-1.9 .3l-4 .7l-2.2 .3l-2.3 .4L621 435l-2.4 .5l-2.2 .5l-1.7 .9l-1.2 1.2l-.7 1.3l-.3 2.8l-.2 1.3l-.2 1.4l-.3 1.1l-.3 1.2l-.4 1.2l-.3 1.2l-.6 1l-.6 1.2l-.7 1l-.7 1.2l-.8 1.2l-1 1.2l-1 1.2l-.9 1.3l-.9 1.4l-.3 1.4l.3 1.1l1.2 1.2l1.6 1.2l1.8 1l1.7 .9l1.7 .8l1.5 .9l1.6 1l1.3 .8l1.4 .9l1.2 .8l1.2 1.1l1.2 1l2 2l2.1 2.4l1.1 1.2l1.2 1.2l1.4 1.1l1.9 .9l2.1 .5h2.4l2.4-.1l2.4-.3l2.4-.1l2.2-.2l2.1-.2l2.1-.1Z" class="g3_5"/>
<path d="M648.8 482.7h6.1l1.9 .1h2l2 .2l2.3 .3l2.2 .3l2.4 .3l2.3 .2l2.4 .1h2.4l2.2-.5l1.9-.9l1.5-1l1.2-1.2l1.2-1.3l1.2-1l2.2-2.2l1.2-1.1l1.1-.8l1.4-.8l1.2-.9l1.5-.9l1.4-.8l1.5-.8l1.7-.9l1.9-.8l1.7-.9l1.9-1l1.6-1l1.3-1.2l.3-1.4l-.3-1.3l-.8-1.4l-.8-1.3l-.8-1.2l-.9-1.2l-.7-1.2l-.7-1.2l-.5-1.2l-.5-1l-.5-1.2l-.3-1.2l-.2-1l-.2-1.2l-.1-1.3v-1.2l-.2-1.4v-1.5l-.2-1.4l-.5-1.3l-1.2-1.2l-1.8-.8l-2.2-.7l-2.3-.4l-2.3-.5l-2.3-.3l-2.1-.4l-1.9-.5l-2.1-.3l-1.8-.5L676 433l-1.9-.5l-1.7-.7l-1.7-.5l-1.7-.7l-1.8-.9l-1.9-.6l-1.9-.9l-1.8-.8l-2.3-.9l-2.2-.3h-2.2l-2.3 .3l-2.1 .7l-4.1 1.7l-3.7 1.3L641 431l-1.9 .5l-1.8 .5l-1.8 .5l-1.8 .5l-1.9 .3l-4 .7l-2.2 .3l-2.3 .4L621 435l-2.4 .5l-2.2 .5l-1.7 .9l-1.2 1.2l-.7 1.3l-.3 2.8l-.2 1.3l-.2 1.4l-.3 1.1l-.3 1.2l-.4 1.2l-.3 1.2l-.6 1l-.6 1.2l-.7 1l-.7 1.2l-.8 1.2l-1 1.2l-1 1.2l-.9 1.3l-.9 1.4l-.3 1.4l.3 1.1l1.2 1.2l1.6 1.2l1.8 1l1.7 .9l1.7 .8l1.5 .9l1.6 1l1.3 .8l1.4 .9l1.2 .8l1.2 1.1l1.2 1l2 2l2.1 2.4l1.1 1.2l1.2 1.2l1.4 1.1l1.9 .9l2.1 .5h2.4l2.4-.1l2.4-.3l2.4-.1l2.2-.2l2.1-.2l2.1-.1Z" class="g6_5"/>
<path d="M705.9 542.2l-.3 1.3l-1.3 1l-1.6 1.2l-1.9 .9l-1.7 .8l-1.9 .9l-1.7 .8L694 550l-1.4 .8l-1.5 .9l-1.2 .8l-1.4 1.1l-1.1 .8l-1.2 1l-1.1 1l-1.1 1l-1.2 1.2l-1.2 1.2l-1.2 1.2l-1.5 1.2L677 563l-2.2 .5h-2.4l-2.4-.1l-2.3-.4l-2.4-.1l-2.2-.4l-2.2-.1l-2.1-.2l-2-.2h-8l-2 .2h-2.2l-2.2 .3l-2.4 .2l-2.4 .2l-2.4 .1l-2.4-.1l-2.1-.4l-1.9-.8l-1.4-1.2l-1.2-1.2l-1.1-1.4l-2.1-2.3l-2-2l-1.2-1.1l-1.2-.8l-1.2-.9l-1.4-1l-1.3-.8l-3.1-1.8l-1.7-.8l-1.7-1l-1.8-1l-1.6-1l-1.2-1.2l-.3-1.4V461.7l.3 1.2l1.2 1.2l1.6 1.2l1.8 1l1.7 .9l1.7 .8l1.5 .8l1.6 1.1l1.3 .8l1.4 .9l1.2 .8l1.2 1l1.2 1l2 2.1l1 1.2l1.1 1.2l1.1 1.1l1.2 1.3l1.4 1.1l1.9 .9l2.1 .5h2.4l2.4-.2l4.8-.3l2.2-.2l2.2-.2l2-.1h6.1l1.9 .1h2l2.1 .2l2.2 .3l2.2 .2l2.4 .4l2.3 .1l2.4 .2h2.4l2.2-.5l1.9-.9l1.5-1l1.2-1.1l1.2-1.4l1.2-1l2.2-2.2l1.2-1.1l1.1-.8l1.4-.9l1.2-.8l1.5-.9l1.4-.8l1.5-.8l1.7-.9l1.9-.9l1.7-.8l1.9-1l1.6-1l1.3-1.2l.3-1.4v79.3Z" class="g3_5"/>
<path d="M705.9 542.2l-.3 1.3l-1.3 1l-1.6 1.2l-1.9 .9l-1.7 .8l-1.9 .9l-1.7 .8L694 550l-1.4 .8l-1.5 .9l-1.2 .8l-1.4 1.1l-1.1 .8l-1.2 1l-1.1 1l-1.1 1l-1.2 1.2l-1.2 1.2l-1.2 1.2l-1.5 1.2L677 563l-2.2 .5h-2.4l-2.4-.1l-2.3-.4l-2.4-.1l-2.2-.4l-2.2-.1l-2.1-.2l-2-.2h-8l-2 .2h-2.2l-2.2 .3l-2.4 .2l-2.4 .2l-2.4 .1l-2.4-.1l-2.1-.4l-1.9-.8l-1.4-1.2l-1.2-1.2l-1.1-1.4l-2.1-2.3l-2-2l-1.2-1.1l-1.2-.8l-1.2-.9l-1.4-1l-1.3-.8l-3.1-1.8l-1.7-.8l-1.7-1l-1.8-1l-1.6-1l-1.2-1.2l-.3-1.4V461.7l.3 1.2l1.2 1.2l1.6 1.2l1.8 1l1.7 .9l1.7 .8l1.5 .8l1.6 1.1l1.3 .8l1.4 .9l1.2 .8l1.2 1l1.2 1l2 2.1l1 1.2l1.1 1.2l1.1 1.1l1.2 1.3l1.4 1.1l1.9 .9l2.1 .5h2.4l2.4-.2l4.8-.3l2.2-.2l2.2-.2l2-.1h6.1l1.9 .1h2l2.1 .2l2.2 .3l2.2 .2l2.4 .4l2.3 .1l2.4 .2h2.4l2.2-.5l1.9-.9l1.5-1l1.2-1.1l1.2-1.4l1.2-1l2.2-2.2l1.2-1.1l1.1-.8l1.4-.9l1.2-.8l1.5-.9l1.4-.8l1.5-.8l1.7-.9l1.9-.9l1.7-.8l1.9-1l1.6-1l1.3-1.2l.3-1.4v79.3Z" class="g6_5"/>
<path d="M755.2 451.5l-12.5 53.2" class="g1_5"/>
<path d="M747.2 502.7c-1.8 .6-3.4 1.7-4.7 3.1c-.6-1.8-1.6-3.5-2.9-4.8l.2-1c1.3 1.4 2.3 2.8 3 4.5c1.3-1.2 2.9-2.1 4.6-2.7l-.2 .9Z" class="g2_5"/>
<path d="M560 450.8l70.6 72" class="g1_5"/>
<path d="M631.3 518.1c-.5 1.8-.3 3.7 .1 5.5c-1.8-.4-3.8-.5-5.6-.1l-.7-.7c1.8-.4 3.6-.5 5.4-.1c-.3-1.8-.2-3.6 .2-5.3l.6 .7Z" class="g2_5"/>
<path d="M636.7 493.5v-1.2v33.9m4.3-32.7v-1.2v33.9m6.5 .2c0 2.7-3.8 5-8.6 5c-4.8 0-8.7-2.3-8.7-5c0-2.7 3.9-5 8.7-5c4.8 0 8.6 2.3 8.6 5Z" class="g7_5"/>
<path d="M636.7 491l.2-.3l.3-.5h.4l1.3-.4l.7 .2l.5 .2l.8 1v35.3l-.1 .4l-.5 .3l-.3 .2l-1.1 .2H638l-.6-.4l-.7-1V491Z" class="g8_5"/>
<path d="M640.9 526.4c0 .7-1 1.2-2.1 1.2c-1.2 0-2.1-.5-2.1-1.2v-.1m4.2-35.2c0 .7-1 1.2-2.1 1.2c-1.2 0-2.1-.5-2.1-1.2c0-.6 .9-1.2 2.1-1.2c1.1 0 2.1 .6 2.1 1.2Z" class="g7_5"/>
</g>
</svg>