<svg viewBox="0 0 916 1222" version="1.1" xmlns="http://www.w3.org/2000/svg">
<defs>
<clipPath id="c0_8"><path d="M-.2 1222.5V-.2H918.5V1222.5Z"/></clipPath>
<style>
.g0_8{fill:none;stroke:#366433;stroke-width:0.763;stroke-linejoin:bevel;}
.g1_8{fill:#366433;}
.g2_8{fill:#F07A2B;}
.g3_8{fill:none;stroke:#231F20;stroke-width:0.763;stroke-linejoin:bevel;}
.g4_8{fill:#231F20;}
.g5_8{fill:#3AC1F0;}
.g6_8{fill:#ED4127;}
.g7_8{fill:none;stroke:#231F20;stroke-width:0.618;stroke-miterlimit:10;}
</style>
</defs>
<g clip-path="url(#c0_8)">
<path d="M524.2 147.1h56" class="g0_8"/>
<path d="M577.3 143.2c1 1.6 2.4 2.9 4 3.9c-1.6 .9-3 2.2-4 3.8h-.9c1-1.5 2.2-2.8 3.6-3.8c-1.4-1.1-2.7-2.4-3.7-3.9h1Z" class="g1_8"/>
<path d="M642.9 291.8h8V212.4h-8v79.4Z" class="g2_8"/>
<path d="M642.9 212.4h8v79.4h-8V212.4Z" class="g3_8"/>
<path d="M518.4 298.3H674.8v-7.6H518.4v7.6Z" class="g2_8"/>
<path d="M674.8 290.7H518.4v7.6H674.8v-7.6Z" class="g3_8"/>
<path d="M240.5 298.6H468.9v-7.2H240.5v7.2Z" class="g2_8"/>
<path d="M468.9 291.4H240.5v7.2H468.9v-7.2ZM482.2 261.6l-16.1 28.5" class="g3_8"/>
<path d="M470.9 289.5c-1.8 0-3.7 .7-5.3 1.6c-.1-1.9-.5-3.8-1.4-5.4l.5-.9c.8 1.7 1.4 3.4 1.5 5.1c1.6-.8 3.4-1.2 5.2-1.3l-.5 .9Z" class="g4_8"/>
<path d="M515.8 264.8l14.7 25" class="g3_8"/>
<path d="M532.3 285.4c-.9 1.6-1.2 3.5-1.3 5.4c-1.6-.9-3.5-1.5-5.3-1.5l-.5-.9c1.8 .1 3.6 .5 5.2 1.3c.1-1.8 .6-3.6 1.4-5.2l.5 .9Z" class="g4_8"/>
<path d="M559.9 290.4h82.9v-78H559.9v78Z" class="g5_8"/>
<path d="M559.9 212.4h82.9v78H559.9v-78Z" class="g3_8"/>
<path d="M608.3 290.2c0-9.1 3.6-17.9 10.1-24.3c6.3-6.1 14.6-9.6 23.4-9.8" class="g0_8"/>
<path d="M638.7 252.4c1 1.6 2.6 2.8 4.2 3.7c-1.6 1.1-3 2.4-3.9 4l-1 .1c1-1.6 2.1-3 3.6-4c-1.5-1-2.8-2.3-3.8-3.7l.9-.1Z" class="g1_8"/>
<path d="M590.7 292c0-14.4 5.6-28.1 15.4-38.1c9.5-9.6 22.3-14.9 35.5-14.5" class="g0_8"/>
<path d="M638.7 235.6c.9 1.6 2.4 2.8 4 3.8c-1.6 1-3 2.3-4 3.9h-.9c1-1.6 2.2-2.9 3.6-3.9c-1.5-1-2.7-2.3-3.7-3.8h1Z" class="g1_8"/>
<path d="M578.9 289.9c0-39 28-70.7 62.9-71.6" class="g0_8"/>
<path d="M638.6 214.7c1.1 1.5 2.7 2.7 4.3 3.6c-1.5 1.1-2.9 2.5-3.8 4.1l-.9 .1c.9-1.6 2-3 3.4-4.1c-1.5-1-2.9-2.2-3.9-3.7h.9Z" class="g1_8"/>
<path d="M264.8 291.4H434.6V213.7H264.8v77.7Z" class="g5_8"/>
<path d="M264.8 213.7H434.6v77.7H264.8V213.7Z" class="g3_8"/>
<path d="M312.1 291.1c0-12.2 6.5-23.5 17.1-29.6c10.6-6 23.6-6 34.2 .2c10.2 5.9 16.6 16.7 16.9 28.5" class="g0_8"/>
<path d="M383.9 287.1c-1.6 1-2.7 2.6-3.6 4.2c-1.1-1.5-2.5-2.9-4.1-3.8l-.1-.9c1.6 .9 3 2 4.1 3.4c.9-1.5 2.2-2.8 3.6-3.9l.1 1Z" class="g1_8"/>
<path d="M294.5 291.6c0-28.8 21.9-51 49.1-51.4c26.9-.4 49.1 21.8 50.4 50.1" class="g0_8"/>
<path d="M397.6 287.1c-1.5 1-2.7 2.6-3.5 4.3c-1.1-1.5-2.5-2.9-4.2-3.8l-.1-.9c1.7 .9 3.1 2 4.2 3.4c.9-1.6 2.1-2.9 3.6-4v1Z" class="g1_8"/>
<path d="M282.9 290.8c0-39.4 28.5-70.6 63.9-70.8c35.2-.2 63.9 31 64.7 69.9" class="g0_8"/>
<path d="M415.2 286.8c-1.6 1-2.8 2.6-3.7 4.2c-1-1.6-2.4-2.9-4-3.8l-.1-1c1.6 .9 3 2.1 4.1 3.5c.9-1.5 2.2-2.9 3.6-3.9l.1 1Z" class="g1_8"/>
<path d="M256.4 215.3v75.3" class="g3_8"/>
<path d="M260.2 218.2c-1.6-.9-2.8-2.4-3.8-4c-1 1.6-2.3 3-3.9 4v1c1.5-1 2.9-2.2 3.9-3.7c1 1.5 2.3 2.7 3.8 3.7v-1Z" class="g4_8"/>
<path d="M260.2 287.7c-1.6 1-2.8 2.5-3.8 4c-1-1.5-2.3-3-3.9-4v-.9c1.5 1 2.9 2.2 3.9 3.7c1-1.5 2.3-2.8 3.8-3.7v.9Z" class="g4_8"/>
<path d="M263.2 206.5H432.3" class="g3_8"/>
<path d="M266.1 202.6c-1 1.6-2.5 2.9-4 3.9c1.6 .9 3 2.3 4 3.8h.9c-1-1.5-2.2-2.8-3.7-3.8c1.5-1 2.8-2.4 3.7-3.9h-.9Z" class="g4_8"/>
<path d="M429.4 202.6c1 1.6 2.5 2.9 4 3.9c-1.6 .9-3 2.3-4 3.8h-.9c1-1.5 2.2-2.8 3.7-3.8c-1.5-1-2.8-2.4-3.8-3.9h1Z" class="g4_8"/>
<path d="M549.6 212.5v77.6" class="g3_8"/>
<path d="M553.5 215.4c-1.6-1-2.9-2.4-3.9-4c-.9 1.6-2.2 3-3.8 4v1c1.5-1 2.8-2.3 3.8-3.7c1.1 1.4 2.4 2.7 3.9 3.7v-1Z" class="g4_8"/>
<path d="M553.5 287.1c-1.6 1-2.9 2.5-3.9 4.1c-.9-1.6-2.2-3.1-3.8-4.1v-.9c1.5 1 2.8 2.2 3.8 3.7c1.1-1.5 2.4-2.8 3.9-3.7v.9Z" class="g4_8"/>
<path d="M557.6 203.6l84.6 .6" class="g3_8"/>
<path d="M560.6 199.7c-1 1.6-2.5 2.9-4.1 3.9c1.6 .9 3 2.3 4 3.8l1 .1c-1-1.6-2.2-2.9-3.7-3.9c1.5-1 2.8-2.4 3.7-3.9h-.9Z" class="g4_8"/>
<path d="M639.3 200.3c1 1.6 2.4 2.9 4 3.9c-1.6 1-3 2.3-4 3.8h-1c1-1.5 2.2-2.8 3.7-3.8c-1.5-1-2.7-2.4-3.6-3.9h.9Z" class="g4_8"/>
<path d="M258.6 337.3h6.6V298.5h-6.6v38.8Z" class="g2_8"/>
<path d="M258.6 298.5h6.6v38.8h-6.6V298.5Z" class="g3_8"/>
<path d="M282.8 337.7h6.6V298.3h-6.6v39.4Z" class="g2_8"/>
<path d="M282.8 298.3h6.6v39.4h-6.6V298.3Z" class="g3_8"/>
<path d="M270.6 337.6h6.6V252.8h-6.6v84.8Z" class="g6_8"/>
<path d="M270.6 252.8h6.6v84.8h-6.6V252.8Z" class="g3_8"/>
<path d="M554.2 337.1h6.6V298.3h-6.6v38.8Z" class="g2_8"/>
<path d="M554.2 298.3h6.6v38.8h-6.6V298.3Z" class="g3_8"/>
<path d="M578.4 337.5H585V298.2h-6.6v39.3Z" class="g2_8"/>
<path d="M578.4 298.2H585v39.3h-6.6V298.2Z" class="g3_8"/>
<path d="M566.2 337.5h6.6V252.6h-6.6v84.9Z" class="g6_8"/>
<path d="M566.2 252.6h6.6v84.9h-6.6V252.6ZM381.5 327.3l-94.3-9.6" class="g3_8"/>
<path d="M289.7 321.9c-.8-1.7-2.2-3.1-3.6-4.3c1.6-.8 3.2-1.9 4.3-3.4l1 .1c-1.2 1.4-2.5 2.6-4.1 3.4c1.4 1.2 2.5 2.7 3.3 4.3l-.9-.1Z" class="g4_8"/>
<path d="M438 325.7l118.5-17.8" class="g3_8"/>
<path d="M553.1 304.5c1.2 1.4 2.8 2.5 4.5 3.2c-1.4 1.2-2.6 2.7-3.4 4.4l-.9 .2c.8-1.7 1.7-3.2 3.1-4.4c-1.7-.8-3.1-1.9-4.3-3.3l1-.1Z" class="g4_8"/>
<path d="M391.7 114.2v31.5h31.5" class="g3_8"/>
<path d="M395.6 117.1c-1.6-1-2.9-2.5-3.9-4.1c-1 1.6-2.3 3.1-3.9 4.1v.9c1.6-1 2.9-2.2 3.9-3.7c1 1.5 2.4 2.8 3.9 3.7v-.9Z" class="g4_8"/>
<path d="M420.3 141.8c1 1.6 2.5 2.9 4 3.9c-1.5 1-3 2.3-4 3.9h-.9c1-1.6 2.2-2.9 3.7-3.9c-1.5-1-2.8-2.4-3.7-3.9h.9Z" class="g4_8"/>
<path d="M471.5 463.6H838.3M471.5 499.2H838.3M471.5 540.3H838.3M471.5 587.2H838.3M471.5 644.9H838.3" class="g7_8"/>
</g>
</svg>