<svg viewBox="0 0 916 1222" version="1.1" xmlns="http://www.w3.org/2000/svg">
<defs>
<clipPath id="c0_6"><path d="M-.2 1222.5V-.2H918.5V1222.5Z"/></clipPath>
<style>
.g0_6{fill:#F07A2B;}
.g1_6{fill:none;stroke:#231F20;stroke-width:0.763;stroke-linejoin:bevel;}
.g2_6{fill:#3AC1F0;}
.g3_6{fill:none;stroke:#231F20;stroke-width:0.763;stroke-linejoin:bevel;}
.g4_6{fill:none;stroke:#231F20;stroke-width:0.763;stroke-linejoin:bevel;stroke-dasharray:5,4;}
.g5_6{fill:#231F20;}
.g6_6{fill:#EF4229;}
.g7_6{fill:#2A793C;}
.g8_6{fill:#ED4127;}
</style>
</defs>
<g clip-path="url(#c0_6)">
<path d="M445.2 155.4l-64.5 86.1H197.8l80.7-86.1H445.2Z" class="g0_6"/>
<path d="M445.2 155.4l-64.5 86.1H197.8l80.7-86.1H445.2Z" class="g1_6"/>
<path d="M376.1 139.3l-21.5 26.9H279.3l26.9-26.9h69.9Z" class="g2_6"/>
<path d="M354.7 166.2v48.4m21.4-75.3l-21.5 26.9H279.3l26.9-26.9h69.9Z" class="g3_6"/>
<path d="M376.2 139.3v48.4l-21.5 26.9V166.2l21.5-26.9Z" class="g2_6"/>
<path d="M279.4 214.2h75.3m-75.3-48v48.4m96.8-75.3v48.4l-21.5 26.9V166.2l21.5-26.9Z" class="g3_6"/>
<path d="M197.7 244.9H380.8v-3.5H197.7v3.5Z" class="g0_6"/>
<path d="M197.7 241.4H380.8v3.5H197.7v-3.5Z" class="g1_6"/>
<path d="M380.7 244.8l64.4-85.3l.1-4.1l-64.5 85.9v3.5Z" class="g0_6"/>
<path d="M380.7 244.8l64.4-85.3l.1-4.1l-64.5 85.9v3.5Z" class="g1_6"/>
<path d="M279.4 214.6h75.3V166.2H279.4v48.4Z" class="g2_6"/>
<path d="M279.4 166.2h75.3v48.4H279.4V166.2Z" class="g3_6"/>
<path d="M306.3 187.7h69.9m-69.9-48.4v48.4l-26.9 26.9" class="g4_6"/>
<path d="M448.2 139.9L335.1 179.2" class="g3_6"/>
<path d="M339.1 181.9c-1.4-1.2-3.2-1.9-5-2.3c1.2-1.5 2.1-3.2 2.5-5l.9-.3c-.4 1.8-1.1 3.4-2.2 4.9c1.7 .4 3.3 1.3 4.8 2.4l-1 .3Z" class="g5_6"/>
<path d="M446.5 208.9L432 179.7" class="g3_6"/>
<path d="M429.9 184c1-1.6 1.5-3.4 1.6-5.3c1.6 1 3.4 1.7 5.3 1.9l.4 .8c-1.8-.2-3.5-.7-5.1-1.6c-.2 1.8-.9 3.5-1.8 5.1l-.4-.9Z" class="g5_6"/>
<path d="M326.4 192.6c0-.6 1.7-1.1 3.8-1.1c2 0 3.7 .5 3.7 1.2c0 .6-1.7 1.1-3.7 1.1c-2.1 0-3.8-.5-3.8-1.1Z" class="g6_6"/>
<path d="M326.4 192.6c0-.6 1.7-1.1 3.8-1.1c2 0 3.7 .5 3.7 1.2c0 .6-1.7 1.1-3.7 1.1c-2.1 0-3.8-.5-3.8-1.1" class="g4_6"/>
<path d="M326.3 203.4c.1-.7 1.7-1.2 3.8-1.2c2.1 0 3.7 .6 3.7 1.2c0 .6-1.6 1.1-3.7 1.1c-2.1 0-3.8-.5-3.8-1.1Z" class="g6_6"/>
<path d="M326.3 203.4c.1-.7 1.7-1.2 3.8-1.2c2.1 0 3.7 .6 3.7 1.2c0 .6-1.6 1.1-3.7 1.1c-2.1 0-3.8-.5-3.8-1.1m7.7-31.9v31.9m-7.6-31.9v31.9" class="g4_6"/>
<path d="M326.4 172.6l7.3-.9v31.7h-7.3V171.7Z" class="g6_6"/>
<path d="M325.8 172h8.5" class="g4_6"/>
<path d="M717.4 155.2l-64.6 86.1H469.9l80.7-86.1H717.4Z" class="g0_6"/>
<path d="M717.4 155.2l-64.6 86.1H469.9l80.7-86.1H717.4Z" class="g1_6"/>
<path d="M648.3 139.1L626.7 166H551.4l26.9-26.9h70Z" class="g2_6"/>
<path d="M626.9 166v48.4m21.4-75.3L626.7 166H551.4l26.9-26.9h70Z" class="g3_6"/>
<path d="M551.5 214h75.3m-75.2-48v48.4m96.8-75.3v48.4l-21.5 26.9V166l21.5-26.9Z" class="g2_6"/>
<path d="M551.5 214h75.3m-75.2-48v48.4m96.8-75.3v48.4l-21.5 26.9V166l21.5-26.9Z" class="g1_6"/>
<path d="M469.8 244.7H652.9v-3.5H469.8v3.5Z" class="g0_6"/>
<path d="M469.8 241.2H652.9v3.5H469.8v-3.5Z" class="g1_6"/>
<path d="M652.8 244.6l64.4-85.3l.2-4.1l-64.6 85.9v3.5Z" class="g0_6"/>
<path d="M652.8 244.6l64.4-85.3l.2-4.1l-64.6 85.9v3.5Z" class="g1_6"/>
<path d="M551.6 214.4h75.3V166H551.6v48.4Z" class="g2_6"/>
<path d="M551.6 166h75.3v48.4H551.6V166Z" class="g3_6"/>
<path d="M578.5 187.5h69.9m-69.9-48.4v48.4l-26.9 26.9" class="g4_6"/>
<path d="M639 188.4c0-.6 1.7-1.2 3.8-1.1c2 0 3.7 .5 3.7 1.1c0 .6-1.7 1.1-3.7 1.1c-2.1 0-3.8-.5-3.8-1.1Z" class="g6_6"/>
<path d="M639 188.4c0-.7 1.7-1.2 3.8-1.1c2 0 3.7 .5 3.7 1.1c0 .6-1.7 1.1-3.7 1.1c-2.1 0-3.8-.5-3.8-1.1" class="g4_6"/>
<path d="M638.9 199.1c0-.6 1.7-1.1 3.8-1.1c2 0 3.7 .5 3.7 1.1c0 .6-1.7 1.2-3.7 1.2c-2.1 0-3.8-.5-3.8-1.2Z" class="g6_6"/>
<path d="M638.9 199.1c0-.6 1.7-1.1 3.8-1.1c2 0 3.7 .5 3.7 1.1c0 .6-1.7 1.1-3.7 1.1c-2.1 .1-3.8-.4-3.8-1.1m7.6-31.9v32m-7.6-32v32" class="g4_6"/>
<path d="M639 168.3l7.3-.9v31.7H639V167.4Z" class="g6_6"/>
<path d="M638.4 167.7h8.5" class="g4_6"/>
<path d="M467.2 211.6l67.1-32.7" class="g3_6"/>
<path d="M530 176.7c1.6 1.1 3.5 1.6 5.3 1.8c-1 1.5-1.7 3.3-1.9 5.2l-.8 .4c.2-1.8 .7-3.5 1.6-5.1c-1.8-.2-3.5-.9-5-1.8l.8-.5Z" class="g5_6"/>
<path d="M674.9 127.1l-31.3 52.5" class="g3_6"/>
<path d="M648.4 179.1c-1.9 0-3.8 .6-5.4 1.5c0-1.9-.4-3.8-1.3-5.4l.5-.9c.8 1.7 1.4 3.4 1.5 5.2c1.6-.8 3.4-1.2 5.2-1.2l-.5 .8Z" class="g5_6"/>
<path d="M446 397.2l-64.9 86.6H196.9l81.3-86.6H446Z" class="g7_6"/>
<path d="M446 397.2l-64.9 86.6H196.9l81.3-86.6H446Z" class="g3_6"/>
<path d="M196.9 494.7H381.1V483.8H196.9v10.9Z" class="g7_6"/>
<path d="M196.9 483.8H381.1v10.9H196.9V483.8Z" class="g3_6"/>
<path d="M381.1 494.7L446 408V397.2l-64.9 86.6v10.9Z" class="g7_6"/>
<path d="M381.1 494.7L446 408V397.2l-64.9 86.6v10.9Z" class="g3_6"/>
<path d="M197 493.7v3.6H381.2l.1-3.8L197 493.7Z" class="g0_6"/>
<path d="M197 493.7v3.6H381.2l.1-3.8L197 493.7Z" class="g3_6"/>
<path d="M381.1 497.3L446 410.6v-3.2l-64.7 86.1l-.2 3.8Z" class="g0_6"/>
<path d="M381.1 497.3L446 410.6v-3.2l-64.7 86.1l-.2 3.8Zm101.7-97.5c-9.2 3.5-16 4.3-37 11.2" class="g3_6"/>
<path d="M449.8 413.8c-1.4-1.2-3.2-2-5-2.4c1.2-1.4 2.2-3.1 2.7-4.9l.9-.3c-.5 1.7-1.3 3.4-2.4 4.8c1.7 .5 3.3 1.4 4.7 2.5l-.9 .3Z" class="g5_6"/>
<path d="M413 440H346.1l-3.1 3.2h67.6L413 440Z" class="g8_6"/>
<path d="M413 440H346.1l-3.1 3.2h67.6L413 440Z" class="g3_6"/>
<path d="M379.3 380l-21.7 27H281.8l27.1-27h70.4Z" class="g2_6"/>
<path d="M379.3 379.9L357.6 407H281.8l27.1-27.1h70.4Z" class="g3_6"/>
<path d="M379.4 380.5v48.7l-21.6 27.1V407.5l21.6-27Z" class="g2_6"/>
<path d="M379.4 380.5v48.7l-21.6 27.1V407.5l21.6-27Zm-95.2 26.6v48.7" class="g3_6"/>
<path d="M282 455.8h75.8V407.1H282v48.7Z" class="g2_6"/>
<path d="M282 407.1h75.8v48.7H282V407.1Z" class="g3_6"/>
<path d="M311.3 428.7h66.9M309 380v48.7l-27 27.1" class="g4_6"/>
<path d="M368.4 443.2H343l4.7-3.2h23.9Z" class="g8_6"/>
<path d="M368.4 443.2H343l4.7-3.2h23.9" class="g4_6"/>
<path d="M415.2 489.2l-34.3-22.1" class="g3_6"/>
<path d="M381.2 471.9c.1-1.9-.5-3.7-1.3-5.4c1.9 0 3.8-.3 5.5-1.1l.8 .5c-1.7 .8-3.4 1.3-5.2 1.3c.7 1.7 1 3.5 1 5.2l-.8-.5Z" class="g5_6"/>
<path d="M717.9 397.5l-65 86.6H468.7L550 397.5H717.9Z" class="g7_6"/>
<path d="M717.9 397.5l-65 86.6H468.7L550 397.5H717.9Z" class="g3_6"/>
<path d="M468.7 495H652.9V484.1H468.7V495Z" class="g7_6"/>
<path d="M468.7 484.1H652.9V495H468.7V484.1Z" class="g3_6"/>
<path d="M652.9 495l65-86.7V397.5l-65 86.6V495Z" class="g7_6"/>
<path d="M652.9 495l65-86.7V397.5l-65 86.6V495Z" class="g3_6"/>
<path d="M468.8 494v3.6H653l.2-3.8L468.8 494Z" class="g0_6"/>
<path d="M468.8 494v3.6H653l.2-3.8L468.8 494Z" class="g3_6"/>
<path d="M653 497.6l64.8-86.8v-3.1l-64.6 86.1l-.2 3.8Z" class="g0_6"/>
<path d="M653 497.6l64.8-86.8v-3.1l-64.6 86.1l-.2 3.8Z" class="g3_6"/>
<path d="M684.8 440.3H618l-3.2 3.2h67.6l2.4-3.2Z" class="g8_6"/>
<path d="M684.8 440.3H618l-3.2 3.2h67.6l2.4-3.2Z" class="g3_6"/>
<path d="M651.1 380.2l-21.6 27.1H553.7l27-27.1h70.4Z" class="g2_6"/>
<path d="M651.1 380.2l-21.6 27.1H553.7l27-27.1h70.4Z" class="g3_6"/>
<path d="M651.3 380.7v48.8l-21.7 27.1V407.8l21.7-27.1Z" class="g2_6"/>
<path d="M651.3 380.7v48.8l-21.7 27.1V407.8l21.7-27.1ZM556 407.3v48.8" class="g3_6"/>
<path d="M553.8 456.1h75.8V407.3H553.8v48.8Z" class="g2_6"/>
<path d="M553.8 407.3h75.8v48.8H553.8V407.3Z" class="g3_6"/>
<path d="M583.1 429H650m-69.1-48.7V429l-27.1 27.1" class="g4_6"/>
<path fill-rule="evenodd" d="M643.2 440.8L641.6 418l-2.1 3.6l1 21.9Z" class="g8_6"/>
<path d="M643.2 440.8L641.6 418l-2.1 3.6l1 21.9m-203 44.1l53-20.8" class="g3_6"/>
<path d="M486.4 464.3c1.5 1.1 3.3 1.8 5.2 2.1c-1.2 1.5-2 3.2-2.4 5.1l-.8 .3c.3-1.8 1-3.4 2-4.9c-1.8-.4-3.4-1.2-4.9-2.3l.9-.3Z" class="g5_6"/>
<path d="M417.1 368.7l-25.2 70.6" class="g3_6"/>
<path d="M396.5 437.9c-1.9 .3-3.6 1.3-5 2.5c-.4-1.9-1.1-3.6-2.3-5.1l.3-.9c1.1 1.5 2 3 2.4 4.8c1.5-1.1 3.2-1.8 4.9-2.2l-.3 .9Z" class="g5_6"/>
<path d="M679.5 354.8l-24.1 84.9" class="g3_6"/>
<path d="M659.9 437.9c-1.8 .5-3.5 1.6-4.8 2.8c-.5-1.8-1.4-3.5-2.6-4.9l.2-.9c1.2 1.4 2.2 2.9 2.7 4.6c1.4-1.2 3-2 4.7-2.5l-.2 .9Z" class="g5_6"/>
<path d="M357.9 455.8l-8.5 11.5m-4.8-23.4l-19.4 21.7m4.1-3.3h23.2" class="g3_6"/>
<path d="M332.3 458.4c-1 1.6-2.5 2.9-4.1 3.9c1.6 .9 3.1 2.3 4.1 3.8h.9c-1-1.5-2.2-2.8-3.7-3.8c1.5-1 2.8-2.4 3.7-3.9h-.9Z" class="g5_6"/>
<path d="M349.6 458.4c1 1.6 2.5 2.9 4 3.9c-1.6 .9-3 2.3-4 3.8h-.9c1-1.5 2.2-2.8 3.7-3.8c-1.5-1-2.8-2.4-3.8-3.9h1Z" class="g5_6"/>
</g>
</svg>