<svg viewBox="0 0 916 1222" version="1.1" xmlns="http://www.w3.org/2000/svg">
<defs>
<clipPath id="c0_3"><path d="M-.2 1222.5V-.2H918.5V1222.5Z"/></clipPath>
<style>
.g0_3{fill:#F07A2B;}
.g1_3{fill:none;stroke:#231F20;stroke-width:0.763;stroke-linejoin:bevel;}
.g2_3{fill:#3AC1F0;}
.g3_3{fill:none;stroke:#231F20;stroke-width:0.763;stroke-linejoin:bevel;stroke-dasharray:5,4;}
.g4_3{fill:#EF4229;}
.g5_3{fill:#231F20;}
.g6_3{fill:#ED4127;}
.g7_3{fill:none;stroke:#231F20;stroke-width:0.504;stroke-linejoin:round;stroke-dasharray:1,7;}
.g8_3{fill:none;stroke:#231F20;stroke-width:0.763;stroke-linejoin:bevel;}
.g9_3{fill:none;stroke:#EE2C28;stroke-width:0.763;stroke-linejoin:bevel;}
.ga_3{fill:none;stroke:#231F20;stroke-width:0.618;stroke-miterlimit:10;}
</style>
</defs>
<g clip-path="url(#c0_3)">
<path d="M478.1 173l-72.5 96.7H200.1L290.8 173H478.1Z" class="g0_3"/>
<path d="M478.1 173l-72.5 96.7H200.1L290.8 173H478.1Z" class="g1_3"/>
<path d="M200 273.5H405.7v-3.9H200v3.9Z" class="g0_3"/>
<path d="M200 269.6H405.7v3.9H200v-3.9Z" class="g1_3"/>
<path d="M405.6 273.4L478 177.5l.1-4.5l-72.5 96.4v4Z" class="g0_3"/>
<path d="M405.6 273.4L478 177.5l.1-4.5l-72.5 96.4v4Z" class="g1_3"/>
<path d="M294.3 230.6c.1-9.2 20.7-17.2 46.1-17.8c25.3-.6 46 6.3 46.2 15.6c.2 9.2-20.1 17.2-45.4 18c-25.4 .8-46.3-6.1-46.9-15.3Z" class="g2_3"/>
<path d="M294.3 230.6c.1-9.2 20.7-17.2 46.1-17.8c25.3-.6 46 6.3 46.2 15.6c.2 9.2-20.1 17.2-45.4 18c-25.4 .7-46.3-6.1-46.9-15.3m.3-98.4v98.5m92.3-101V230" class="g1_3"/>
<path d="M295.3 229.6h91V134.3h-91v95.3Z" class="g2_3"/>
<path d="M295.3 132.6c.2-9.2 20.8-17.2 46.1-17.8c25.4-.6 46 6.3 46.3 15.5c.2 9.2-20.1 17.3-45.4 18.1c-25.4 .7-46.3-6.1-46.9-15.3Z" class="g2_3"/>
<path d="M295.3 132.6c.2-9.2 20.8-17.2 46.1-17.8c25.4-.6 46 6.3 46.3 15.5c.2 9.3-20.1 17.3-45.4 18.1c-25.4 .7-46.3-6.1-46.9-15.3" class="g1_3"/>
<path d="M386.9 229.6c-26.4-15.2-54.4-24.9-92.3 0" class="g3_3"/>
<path d="M335 219.3c0-.9 2.5-1.7 5.5-1.6c3 0 5.4 .7 5.4 1.6c0 1-2.4 1.7-5.4 1.7c-3 0-5.5-.7-5.5-1.6Z" class="g4_3"/>
<path d="M335 219.3c0-.9 2.5-1.7 5.5-1.6c3 0 5.4 .7 5.4 1.6c0 1-2.4 1.7-5.4 1.7c-3 0-5.5-.7-5.5-1.6" class="g3_3"/>
<path d="M334.8 235.3c.1-1 2.6-1.7 5.6-1.7c3 0 5.4 .8 5.4 1.7c0 .9-2.4 1.7-5.4 1.7c-3.1 0-5.5-.8-5.6-1.7Z" class="g4_3"/>
<path d="M334.8 235.3c.1-1 2.6-1.7 5.6-1.7c3 0 5.4 .8 5.4 1.7c0 .9-2.4 1.7-5.4 1.7c-3.1 0-5.5-.8-5.6-1.7m.1-47.5v47.6M346 187.9v47.5" class="g3_3"/>
<path d="M335 189.5l10.7-1.3v47H335v-47Z" class="g4_3"/>
<path d="M334.1 188.7h12.5" class="g3_3"/>
<path d="M690.1 114.5V213" class="g1_3"/>
<path d="M694 117.4c-1.7-.9-2.9-2.4-3.9-4c-1 1.6-2.3 3-3.9 4v1c1.6-1 2.9-2.2 3.9-3.7c1 1.5 2.4 2.7 3.9 3.7v-1Z" class="g5_3"/>
<path d="M694 210c-1.7 1-2.9 2.5-3.9 4.1c-1-1.6-2.3-3-3.9-4.1v-.9c1.6 1 2.9 2.2 3.9 3.7c1-1.5 2.4-2.8 3.9-3.7v.9Z" class="g5_3"/>
<path d="M270.2 249.4l68.7-20.3" class="g1_3"/>
<path d="M335 226.3c1.4 1.2 3.1 2 4.9 2.5c-1.2 1.4-2.2 3.1-2.7 4.9l-.9 .3c.5-1.8 1.3-3.4 2.4-4.8c-1.7-.6-3.3-1.5-4.6-2.7l.9-.2Z" class="g5_3"/>
<path d="M296.8 131.8l89 .1" class="g1_3"/>
<path d="M299.7 127.9c-.9 1.6-2.4 2.9-4 3.9c1.6 .9 3 2.3 4 3.8h1c-1-1.5-2.2-2.8-3.7-3.8c1.5-1 2.7-2.4 3.7-3.9h-1Z" class="g5_3"/>
<path d="M382.9 128c.9 1.6 2.4 2.9 4 3.9c-1.6 1-3 2.3-4 3.8h-1c1-1.5 2.2-2.8 3.7-3.8c-1.5-1-2.7-2.4-3.7-3.9h1Z" class="g5_3"/>
<path d="M495.4 217.8H623.2v-3.9H495.4v3.9Z" class="g0_3"/>
<path d="M495.4 213.9H623.2v3.9H495.4v-3.9Z" class="g1_3"/>
<path d="M637.5 217.8h78.1v-3.9H637.5v3.9Z" class="g0_3"/>
<path d="M637.5 213.9h78.1v3.9H637.5v-3.9Z" class="g1_3"/>
<path d="M609 267.6h7.1V217.8H609v49.8Z" class="g0_3"/>
<path d="M609 217.8h7.1v49.8H609V217.8Z" class="g1_3"/>
<path d="M644.6 267.6h7.1V217.8h-7.1v49.8Z" class="g0_3"/>
<path d="M644.6 217.8h7.1v49.8h-7.1V217.8Z" class="g1_3"/>
<path d="M580.7 214.1H680V113.8H580.7V214.1Z" class="g2_3"/>
<path d="M580.7 214.1V113.8H680V214.1M566.4 245.9l41.5-3.5" class="g1_3"/>
<path d="M604.7 238.8c1.1 1.6 2.7 2.7 4.3 3.5c-1.5 1.1-2.8 2.6-3.6 4.2l-1 .1c.9-1.6 2-3 3.4-4.1c-1.6-.9-3-2.2-4.1-3.6l1-.1Z" class="g5_3"/>
<path d="M526.2 152.9l16.3 59.3" class="g1_3"/>
<path d="M545.4 208.4c-1.3 1.3-2.1 3.1-2.6 4.9c-1.4-1.3-3-2.3-4.8-2.9l-.3-.9c1.8 .6 3.4 1.4 4.7 2.6c.6-1.7 1.6-3.3 2.8-4.6l.2 .9Z" class="g5_3"/>
<path d="M626.8 267.6h7.1V175.2h-7.1v92.4Z" class="g6_3"/>
<path d="M626.8 175.2h7.1v92.4h-7.1V175.2ZM475.7 142.4l-30.4 38.8" class="g1_3"/>
<path d="M450.1 181.3c-1.8-.3-3.7 .1-5.5 .8c.2-1.9 .1-3.8-.5-5.6l.5-.7c.6 1.7 .9 3.5 .8 5.2c1.7-.5 3.6-.7 5.3-.5l-.6 .8Z" class="g5_3"/>
<path d="M187.1 643.2V364.3m33.7 278.9V364.3m33.8 278.9V364.3m33.6 278.9V364.3m33.7 278.9V364.3m33.7 278.9V364.3m33.6 278.9V364.3m33.7 278.9V364.3M153.5 587.4H456.7M153.5 531.6H456.7M153.5 475.9H456.7M153.5 420.1H456.7" class="g7_3"/>
<path d="M153.5 643.2v-3.1m33.6 3.1v-3.1m0-275.8v3.1m33.7 275.8v-3.1m0-275.8v3.1m33.8 275.8v-3.1m0-275.8v3.1m33.6 275.8v-3.1m0-275.8v3.1m33.7 275.8v-3.1m0-275.8v3.1m33.7 275.8v-3.1m0-275.8v3.1m33.6 275.8v-3.1m0-275.8v3.1m33.7 275.8v-3.1m0-275.8v3.1m33.8 275.8v-3.1m-303.2 3.1h2.4m235.9 0h-2.5M153.5 587.4h3m300.2 0h-3.2m-300-55.8h3m300.2 0h-3.2m-300-55.7h3m300.2 0h-3.2m-300-55.8h3m300.2 0h-3.2m-300-55.8H456.7M153.5 643.2H456.3m.4 0V364.3M153.5 643.2V364.3" class="g8_3"/>
<path d="M153.5 384.4l3.3 27.7l3.4 23.1l3.4 19.4l3.3 16.6l3.4 14.3l3.4 12.5l3.3 11l3.4 9.8l3.4 8.6l3.3 7.7l3.5 7l3.3 6.2l3.3 5.8l3.5 5.2l3.3 4.8l3.3 4.4l3.4 4l3.4 3.7l3.3 3.4l3.4 3.2l3.4 3l3.4 2.7l3.3 2.6l3.4 2.4l3.4 2.2l3.3 2.1l3.4 2l3.4 1.9l3.3 1.7l3.5 1.6l3.3 1.6l3.3 1.5l3.5 1.4l3.3 1.3l3.3 1.2l3.4 1.2l3.4 1.2l3.3 1.1l3.4 1l3.4 .9l3.4 .9l3.3 .9l3.4 .8l3.4 .8l3.3 .8l3.4 .8l3.4 .7l3.3 .6l3.4 .6l3.4 .6l3.3 .7l3.5 .5l3.3 .5l3.3 .6l3.5 .4l3.3 .6l3.3 .5l3.4 .3l3.4 .5l3.4 .4l3.3 .4l3.4 .4l3.4 .4l3.3 .4l3.4 .3l3.4 .3l3.3 .4l3.4 .3l3.4 .2l3.3 .3l3.5 .3l3.3 .3l3.3 .3l3.5 .2l6.6 .5l3.4 .2l3.4 .2l3.3 .3l3.4 .2l3.4 .2l3.4 .2l3.3 .1l3.4 .3l6.7 .3l3.4 .2l3.4 .2l3.3 .1l3.5 .2" class="g9_3"/>
<path d="M545.4 643.7V364.8m31.1 278.9V364.8m31.1 278.9V364.8m31.1 278.9V364.8m31.1 278.9V364.8m31.1 278.9V364.8M732 643.7V364.8m31.1 278.9V364.8M514.3 584.9H794.2M514.3 511.6H794.2M514.3 438.2H794.2" class="g7_3"/>
<path d="M514.3 364.8v2.8m31.1 276.1v-2.9m0-276v2.8m31.1 276.1v-2.9m0-276v2.8m31.1 276.1v-2.9m0-276v2.8m31.1 276.1v-2.9m0-276v2.8m31.1 276.1v-2.9m0-276v2.8m31.1 276.1v-2.9m0-276v2.8M732 643.7v-2.9m0-276v2.8m31.1 276.1v-2.9m0-276v2.8m31.1 276.1v-2.9M514.3 584.9H517m277.2 0h-2.8M514.3 511.6H517m277.2 0h-2.8M514.3 438.2H517m277.2 0h-2.8M514.3 364.8H517m-2.7 0H794.2M514.3 643.7H794.2V364.8M514.3 643.7V364.8" class="g8_3"/>
<path d="M514.3 374.2l3 30.7l3.2 25.5l3.1 21.4l3.1 18.2l3.1 15.7l3.1 13.7l3.1 11.9l3.1 10.5l3.2 9.4l3.1 8.3l3 7.4l3.2 6.7l3.1 6.1l3.1 5.6l3.1 5l3.1 4.6l3.1 4.2l3.1 3.9l3.2 3.6l3.1 3.3l3 3l3.2 2.8l3.1 2.6l3.1 2.5L592 603l3.1 2.2l3.1 2l3.1 1.8l3.2 1.7l3.1 1.7l3 1.5l3.2 1.5l3.1 1.4l3.1 1.3l3.1 1.2l3.1 1.1l6.2 2.2l3.2 .9l3.1 1l3 .8L648 627l3.1 .7l3.1 .7l3.1 .7l3.1 .7l3.1 .6l3.2 .6l3.1 .5l3 .7l3.2 .4l3.1 .5l3.1 .5l3.1 .5l3.1 .4l3.1 .5l3.1 .4l6.3 .7l3 .4l3.2 .4l3.1 .3l3.1 .3l3.1 .3l3.1 .3l3.1 .3l3.1 .3l3.2 .2l3.1 .3l3 .3l12.5 .9l3.1 .2l3.1 .2l3.1 .2l3.2 .2l3.1 .2l3 .2l3.2 .2l6.2 .3l3.1 .1l3.1 .2l3.1 .1l3.1 .2l6.3 .3" class="g9_3"/>
<path d="M77.3 797.7H444.1M77.3 836.4H444.1M77.3 894.1H444.1m27.4-79.7H838.3M471.5 853.1H838.3M471.5 910.7H838.3" class="ga_3"/>
</g>
</svg>