<svg viewBox="0 0 916 1222" version="1.1" xmlns="http://www.w3.org/2000/svg">
<defs>
<clipPath id="c0_16"><path d="M-.2 1222.5V-.2H918.5V1222.5Z"/></clipPath>
<style>
.g0_16{fill:#2A793C;}
.g1_16{fill:none;stroke:#231F20;stroke-width:0.763;stroke-linejoin:bevel;}
.g2_16{fill:#3AC1F0;}
.g3_16{fill:#F07A2B;}
.g4_16{fill:#FFF;}
.g5_16{fill:#EE2C28;}
.g6_16{fill:#57BA47;}
.g7_16{fill:#231F20;}
.g8_16{fill:#929497;}
.g9_16{fill:#CFDD3D;}
</style>
</defs>
<g clip-path="url(#c0_16)">
<path d="M245.9 208.7H449.5V191.5H245.9v17.2Z" class="g0_16"/>
<path d="M245.9 191.5H449.5v17.2H245.9V191.5Z" class="g1_16"/>
<path d="M301.2 185.3H417.1V158.6H301.2v26.7Z" class="g2_16"/>
<path d="M301.2 185.3V158.6H417.1v26.7" class="g1_16"/>
<path d="M246.2 192H449.6v-6.1H246.2V192Z" class="g3_16"/>
<path d="M246.2 185.9H449.6V192H246.2v-6.1Z" class="g1_16"/>
<path d="M352.6 192.4h10.5v-8.6H352.6v8.6Z" class="g4_16"/>
<path d="M245.8 215.8H369.5v-6.5H245.8v6.5Z" class="g5_16"/>
<path d="M245.8 209.3H369.5v6.5H245.8v-6.5Z" class="g1_16"/>
<path d="M465.8 208.7H669.4V191.5H465.8v17.2Z" class="g0_16"/>
<path d="M465.8 191.5H669.4v17.2H465.8V191.5Z" class="g1_16"/>
<path d="M521.2 167.5H637.1V140.8H521.2v26.7Z" class="g2_16"/>
<path d="M521.2 167.5V140.8H637.1v26.7" class="g1_16"/>
<path d="M466.1 192H669.5v-6.1H466.1V192Z" class="g3_16"/>
<path d="M466.1 185.9H669.5V192H466.1v-6.1Z" class="g1_16"/>
<path d="M572.6 192.3H583v-8.5H572.6v8.5Z" class="g4_16"/>
<path d="M486.4 185.2H669.6V168H486.4v17.2Z" class="g6_16"/>
<path d="M486.4 168H669.6v17.2H486.4V168Z" class="g1_16"/>
<path d="M465.8 215.8H589.5v-6.5H465.8v6.5Z" class="g5_16"/>
<path d="M465.8 209.3H589.5v6.5H465.8v-6.5Zm43.1-85.5v43.6" class="g1_16"/>
<path d="M512.8 164.5c-1.6 .9-2.9 2.4-3.9 4c-1-1.6-2.3-3-3.9-4v-1c1.6 1 2.9 2.2 3.9 3.7c1-1.5 2.4-2.7 3.9-3.7v1Z" class="g7_16"/>
<path d="M246.9 328.7H451V314.8H246.9v13.9Z" class="g8_16"/>
<path d="M246.9 314.8H451v13.9H246.9V314.8Z" class="g1_16"/>
<path d="M247.5 411.5H451.1V394.4H247.5v17.1Z" class="g0_16"/>
<path d="M247.5 394.4H451.1v17.1H247.5V394.4Z" class="g1_16"/>
<path d="M302.9 370.4H418.7V343.7H302.9v26.7Z" class="g2_16"/>
<path d="M302.9 370.4V343.7H418.7v26.7" class="g1_16"/>
<path d="M247.8 394.8H451.2v-6H247.8v6Z" class="g3_16"/>
<path d="M247.8 388.8H451.2v6H247.8v-6Z" class="g1_16"/>
<path d="M354.2 395.2h10.5v-8.6H354.2v8.6Z" class="g4_16"/>
<path d="M268.1 388H451.3V370.8H268.1V388Z" class="g6_16"/>
<path d="M268.1 370.8H451.3V388H268.1V370.8Z" class="g1_16"/>
<path d="M247.5 418.6H371.2v-6.4H247.5v6.4Z" class="g5_16"/>
<path d="M247.5 412.2H371.2v6.4H247.5v-6.4ZM367.7 300.6l16.4 11.2" class="g1_16"/>
<path d="M383.9 307c-.1 1.9 .4 3.7 1.2 5.4c-1.9-.1-3.8 .2-5.5 1l-.8-.6c1.7-.7 3.4-1.1 5.2-1.1c-.7-1.7-.9-3.5-.9-5.3l.8 .6Z" class="g7_16"/>
<path d="M257.5 329.9v57.7" class="g1_16"/>
<path d="M261.3 332.8c-1.6-.9-2.9-2.4-3.8-4c-1 1.6-2.3 3-3.9 4v1c1.5-1 2.9-2.2 3.9-3.7c1 1.5 2.3 2.7 3.8 3.7v-1Z" class="g7_16"/>
<path d="M261.3 384.7c-1.6 1-2.9 2.5-3.8 4.1c-1-1.6-2.3-3.1-3.9-4.1v-.9c1.5 1 2.9 2.2 3.9 3.7c1-1.5 2.3-2.8 3.8-3.7v.9Z" class="g7_16"/>
<path d="M467.8 328.7H671.9V314.9H467.8v13.8Z" class="g8_16"/>
<path d="M467.8 314.9H671.9v13.8H467.8V314.9Z" class="g1_16"/>
<path d="M467.3 334.7h49.1v-5.1H467.3v5.1Z" class="g3_16"/>
<path d="M467.3 329.6h49.1v5.1H467.3v-5.1Z" class="g1_16"/>
<path d="M519.3 334.8h49.1v-5.2H519.3v5.2Z" class="g3_16"/>
<path d="M519.3 329.6h49.1v5.2H519.3v-5.2Z" class="g1_16"/>
<path d="M570.8 334.8h49.1v-5.1H570.8v5.1Z" class="g3_16"/>
<path d="M570.8 329.7h49.1v5.1H570.8v-5.1Z" class="g1_16"/>
<path d="M622.7 334.7h49.1v-5.2H622.7v5.2Z" class="g3_16"/>
<path d="M622.7 329.5h49.1v5.2H622.7v-5.2Z" class="g1_16"/>
<path d="M535.2 306.1h63.2V249.4H535.2v56.7Z" class="g3_16"/>
<path d="M535.2 249.4h63.2v56.7H535.2V249.4Z" class="g1_16"/>
<path d="M540.6 300.9h52.8V253.6H540.6v47.3Z" class="g4_16"/>
<path d="M540.6 253.6h52.8v47.3H540.6V253.6Z" class="g1_16"/>
<path d="M468.4 411.5H671.9V394.4H468.4v17.1Z" class="g0_16"/>
<path d="M468.4 394.4H671.9v17.1H468.4V394.4Z" class="g1_16"/>
<path d="M523.7 370.4H639.6V343.7H523.7v26.7Z" class="g2_16"/>
<path d="M523.7 370.4V343.7H639.6v26.7" class="g1_16"/>
<path d="M468.7 394.8H672v-6H468.7v6Z" class="g3_16"/>
<path d="M468.7 388.8H672v6H468.7v-6Z" class="g1_16"/>
<path d="M575.1 395.2h10.4v-8.6H575.1v8.6Z" class="g4_16"/>
<path d="M488.9 388H672.2V370.8H488.9V388Z" class="g6_16"/>
<path d="M488.9 370.8H672.2V388H488.9V370.8Z" class="g1_16"/>
<path d="M468.3 418.6H592v-6.4H468.3v6.4Z" class="g5_16"/>
<path d="M468.3 412.2H592v6.4H468.3v-6.4ZM491.9 281l11.7 44.3" class="g1_16"/>
<path d="M506.6 321.5c-1.3 1.4-2.2 3.1-2.7 4.9c-1.3-1.3-3-2.3-4.8-2.9l-.2-.9c1.7 .6 3.3 1.4 4.7 2.6c.6-1.7 1.6-3.3 2.8-4.6l.2 .9Z" class="g7_16"/>
<path d="M522.1 278.5l12.3 4.1" class="g1_16"/>
<path d="M532.8 278c.4 1.9 1.4 3.5 2.6 5c-1.8 .4-3.6 1.2-5 2.4l-.9-.3c1.4-1.2 3-2.1 4.7-2.5c-1.1-1.5-1.9-3.1-2.3-4.9l.9 .3Z" class="g7_16"/>
<path d="M285.6 665.1H449.3V501.4H285.6V665.1Z" class="g9_16"/>
<path d="M285.6 501.4H449.3V665.1H285.6V501.4Z" class="g1_16"/>
<path fill-rule="evenodd" d="M341.3 536.6l46 .2l-.2 9.1h-18v27.8l27.8-.4V554.7h9.3v46.4h-9.3V582.6H369.1v27.8h18.6l-.2 9.3H341.3v-9.3h18.5V582.6l-26.7 .2l-.2 17.3l-7.5 .2V556l7.5 .2l.2 17.1h26.7V545.4l-18.3 .3l-.2-9.1Z" class="g3_16"/>
<path d="M341.3 536.6l46 .2l-.2 9.1h-18v27.8l27.8-.4V554.7h9.3v46.4h-9.3V582.6H369.1v27.8h18.6l-.2 9.3H341.3v-9.3h18.5V582.6l-26.7 .2l-.2 17.3l-7.5 .2V556l7.5 .2l.2 17.1h26.7V545.4l-18.3 .3l-.2-9.1Z" class="g1_16"/>
<path d="M465.8 665.1H629.5V501.4H465.8V665.1Z" class="g9_16"/>
<path d="M465.8 501.4H629.5V665.1H465.8V501.4Z" class="g1_16"/>
<path fill-rule="evenodd" d="M499 501.3V621H466.4v10.8H596.5v32.7h10.8V533.9H629V523.1H509.8V501.3H499Z" class="g3_16"/>
<path d="M499 501.3V621H466.4v10.8H596.5v32.7h10.8V533.9H629V523.1H509.8V501.3H499Z" class="g1_16"/>
<path d="M509.2 620.9h87.9v-87H509.2v87Z" class="g9_16"/>
<path d="M509.2 533.9h87.9v87H509.2v-87Z" class="g1_16"/>
</g>
</svg>