<svg viewBox="0 0 916 1222" version="1.1" xmlns="http://www.w3.org/2000/svg">
<defs>
<clipPath id="c0_15"><path d="M-.2 1222.5V-.2H918.5V1222.5Z"/></clipPath>
<style>
.g0_15{fill:none;stroke:#231F20;stroke-width:0.618;stroke-miterlimit:10;}
.g1_15{fill:#2A793C;}
.g2_15{fill:none;stroke:#231F20;stroke-width:0.763;stroke-linejoin:bevel;}
.g3_15{fill:#3AC1F0;}
.g4_15{fill:#F07A2B;}
.g5_15{fill:#FFF;}
.g6_15{fill:#929497;}
.g7_15{fill:#231F20;}
</style>
</defs>
<g clip-path="url(#c0_15)">
<path d="M77.3 153.2H444.1M77.3 188.8H444.1M77.3 250.2H444.1M77.3 321.6H444.1M77.3 373.2H444.1M77.3 434.6H444.1" class="g0_15"/>
<path d="M553.6 236.9H817.9V221.3H553.6v15.6Z" class="g1_15"/>
<path d="M553.6 221.3H817.9v15.6H553.6V221.3Z" class="g2_15"/>
<path d="M639.5 215.4H747.2V190.5H639.5v24.9Z" class="g3_15"/>
<path d="M639.5 215.4V190.5H747.2v24.9" class="g2_15"/>
<path d="M553.6 221.4H818v-5.3H553.6v5.3Z" class="g4_15"/>
<path d="M553.6 216.1H818v5.3H553.6v-5.3Z" class="g2_15"/>
<path d="M711.3 221.6h9.8v-7.4h-9.8v7.4Z" class="g5_15"/>
<path d="M659.1 221.9h9.7v-7.3h-9.7v7.3Z" class="g5_15"/>
<path d="M553.5 159.9H817.8V144.2H553.5v15.7Z" class="g6_15"/>
<path d="M553.5 144.2H817.8v15.7H553.5V144.2Zm197.7-19L775.6 149" class="g2_15"/>
<path d="M776.2 144.2c-.4 1.8-.2 3.7 .2 5.5c-1.8-.4-3.7-.4-5.6 0l-.6-.7c1.7-.4 3.5-.5 5.3-.2c-.4-1.7-.3-3.6 0-5.3l.7 .7Z" class="g7_15"/>
<path d="M526.8 219.5l29.2-.2" class="g2_15"/>
<path d="M553.1 215.5c.9 1.6 2.4 2.8 4 3.8c-1.6 1-3 2.3-4 3.9h-.9c.9-1.5 2.1-2.9 3.6-3.9c-1.5-1-2.7-2.3-3.7-3.8h1Z" class="g7_15"/>
<path d="M606.7 158.6v58.5" class="g2_15"/>
<path d="M610.6 161.6c-1.6-1-2.9-2.5-3.9-4.1c-1 1.6-2.3 3.1-3.8 4.1v.9c1.5-1 2.8-2.2 3.8-3.7c1 1.5 2.4 2.8 3.9 3.7v-.9Z" class="g7_15"/>
<path d="M610.6 214.2c-1.6 .9-2.9 2.4-3.9 4c-1-1.6-2.3-3-3.8-4v-1c1.5 1 2.8 2.2 3.8 3.7c1-1.5 2.4-2.7 3.9-3.7v1Z" class="g7_15"/>
<path d="M702.5 253l10.8-33.5" class="g2_15"/>
<path d="M708.7 221.1c1.8-.4 3.5-1.4 4.9-2.7c.4 1.9 1.3 3.6 2.4 5.1l-.2 .9c-1.2-1.5-2.1-3-2.6-4.7c-1.4 1.1-3.1 1.9-4.8 2.3l.3-.9Z" class="g7_15"/>
<path d="M666.4 253l-5-33.8" class="g2_15"/>
<path d="M658 222.7c1.4-1.2 2.4-2.8 3.2-4.5c1.2 1.4 2.7 2.6 4.4 3.4l.1 .9c-1.6-.8-3.1-1.8-4.3-3.1c-.8 1.6-2 3.1-3.3 4.3l-.1-1Z" class="g7_15"/>
<path d="M471.5 397.6H838.3M471.5 418.4H838.3M471.5 489H838.3" class="g0_15"/>
</g>
</svg>