<svg viewBox="0 0 916 1222" version="1.1" xmlns="http://www.w3.org/2000/svg">
<defs>
<clipPath id="c0_10"><path d="M-.2 1222.5V-.2H918.5V1222.5Z"/></clipPath>
<style>
.g0_10{fill:#F07A2B;}
.g1_10{fill:none;stroke:#231F20;stroke-width:0.763;stroke-linejoin:bevel;}
.g2_10{fill:#3AC1F0;}
.g3_10{fill:none;stroke:#231F20;stroke-width:0.763;stroke-linejoin:bevel;stroke-dasharray:5,4;}
.g4_10{fill:#231F20;}
.g5_10{fill:#EF4229;}
.g6_10{fill:#2A793C;}
.g7_10{fill:#EE2C28;}
.g8_10{fill:#FFF;}
.g9_10{fill:#ED4127;}
.ga_10{fill:none;stroke:#EE2C28;stroke-width:0.763;stroke-linejoin:bevel;stroke-dasharray:5,4;}
.gb_10{fill:none;stroke:#FFF;stroke-width:0.763;stroke-linejoin:bevel;stroke-dasharray:5,4;}
.gc_10{fill:none;stroke:#231F20;stroke-width:0.763;stroke-linejoin:bevel;}
</style>
</defs>
<g clip-path="url(#c0_10)">
<path d="M463.8 165.4l-57.6 76.9H242.9l72-76.9H463.8Z" class="g0_10"/>
<path d="M463.8 165.4l-57.6 76.9H242.9l72-76.9H463.8Z" class="g1_10"/>
<path d="M242.8 245.3H406.2v-3.1H242.8v3.1Z" class="g0_10"/>
<path d="M242.8 242.2H406.2v3.1H242.8v-3.1Z" class="g1_10"/>
<path d="M406.2 245.2L463.7 169l.1-3.6l-57.6 76.7v3.1Z" class="g0_10"/>
<path d="M406.2 245.2L463.7 169l.1-3.6l-57.6 76.7v3.1Z" class="g1_10"/>
<path d="M317.7 211.2c.1-7.3 16.5-13.6 36.6-14.1c20.2-.5 36.6 5 36.7 12.3c.2 7.4-15.9 13.7-36 14.4c-20.2 .6-36.8-4.9-37.3-12.2Z" class="g2_10"/>
<path d="M317.7 211.2c.1-7.3 16.5-13.6 36.6-14.1c20.2-.5 36.6 5 36.7 12.3c.2 7.4-15.9 13.7-36 14.4c-20.2 .6-36.8-4.9-37.3-12.2m.2-58.2v58.3m73.4-56.9v55.9" class="g1_10"/>
<path d="M318.6 210.4h72.2V152.5H318.6v57.9Z" class="g2_10"/>
<path d="M318.1 156.7c.2-7.3 16.5-13.6 36.7-14.1c20.1-.5 36.5 5 36.7 12.3c.2 7.4-15.9 13.7-36.1 14.3c-20.1 .6-36.8-4.8-37.3-12.1Z" class="g2_10"/>
<path d="M318.1 156.7c.2-7.3 16.5-13.6 36.7-14.1c20.1-.5 36.5 5 36.7 12.3c.2 7.4-15.9 13.7-36.1 14.3c-20.1 .7-36.8-4.8-37.3-12.1" class="g1_10"/>
<path d="M391.3 210.4c-21-12.1-43.2-19.7-73.4 0" class="g3_10"/>
<path d="M304.1 261.9l51.6-51.4H456.2" class="g1_10"/>
<path d="M303.5 257.1c.4 1.9 .3 3.8-.1 5.6c1.8-.4 3.7-.5 5.5-.1l.7-.7c-1.8-.3-3.6-.4-5.3-.1c.3-1.8 .2-3.6-.1-5.3l-.7 .6Z" class="g4_10"/>
<path d="M453.3 206.6c1 1.6 2.5 2.9 4 3.9c-1.6 .9-3 2.3-4 3.8h-.9c1-1.5 2.2-2.8 3.6-3.8c-1.4-1-2.7-2.4-3.7-3.9h1Z" class="g4_10"/>
<path d="M337.4 211.3c0-.7 2-1.3 4.4-1.3c2.4 0 4.3 .6 4.3 1.4c0 .7-1.9 1.3-4.3 1.3c-2.4 0-4.4-.6-4.4-1.3Z" class="g5_10"/>
<path d="M337.4 211.3c0-.7 2-1.3 4.4-1.3c2.4 0 4.3 .6 4.3 1.4c0 .7-1.9 1.3-4.3 1.3c-2.4 0-4.4-.6-4.4-1.3" class="g3_10"/>
<path d="M337.3 224c0-.7 2-1.3 4.4-1.3c2.4 0 4.3 .6 4.3 1.3c0 .8-1.9 1.4-4.3 1.4c-2.4 0-4.4-.6-4.4-1.4Z" class="g5_10"/>
<path d="M337.3 224c0-.7 2-1.3 4.4-1.3c2.4 0 4.3 .6 4.3 1.3c0 .8-1.9 1.4-4.3 1.4c-2.4 0-4.4-.6-4.4-1.4m0-37.7v37.8m8.9-37.8v37.8" class="g3_10"/>
<path d="M337.4 187.7l8.5-1.1V224h-8.5V186.6Z" class="g5_10"/>
<path d="M336.7 187h9.9" class="g3_10"/>
<path d="M391.3 198.2c0-.7 2-1.3 4.4-1.3c2.4 0 4.3 .6 4.3 1.3c0 .8-1.9 1.4-4.3 1.4c-2.4 0-4.4-.6-4.4-1.4Z" class="g5_10"/>
<path d="M391.3 198.2c0-.7 2-1.3 4.4-1.3c2.4 0 4.3 .6 4.3 1.3c0 .8-1.9 1.4-4.3 1.4c-2.4 0-4.4-.6-4.4-1.4" class="g3_10"/>
<path d="M391.2 210.9c0-.8 2-1.3 4.4-1.3c2.4 0 4.3 .6 4.3 1.3c0 .7-1.9 1.3-4.3 1.3c-2.4 0-4.4-.5-4.4-1.3Z" class="g5_10"/>
<path d="M391.2 210.9c0-.8 2-1.3 4.4-1.3c2.4 0 4.3 .6 4.3 1.3c0 .7-1.9 1.3-4.3 1.3c-2.4 0-4.4-.5-4.4-1.3m0-37.7V211m8.9-37.8V211" class="g3_10"/>
<path d="M391.3 174.5l8.5-1v37.4h-8.5V173.5Z" class="g5_10"/>
<path d="M390.6 173.9h9.9m-44.1 36.4l85.8 25.5" class="g3_10"/>
<path d="M440.5 231.3c.4 1.8 1.5 3.4 2.7 4.8c-1.8 .5-3.5 1.3-4.9 2.6l-1-.3c1.4-1.2 3-2.1 4.7-2.6c-1.1-1.4-2-3.1-2.5-4.8l1 .3Z" class="g4_10"/>
<path d="M336.7 229.8c23.6 4.7 41 .6 54.3-9.2" class="g1_10"/>
<path d="M386.4 219c1.7 .8 3.6 1 5.5 .9c-.8 1.7-1.2 3.6-1.2 5.5l-.7 .5c-.1-1.8 .1-3.6 .8-5.3c-1.8 0-3.6-.4-5.2-1.1l.8-.5Z" class="g4_10"/>
<path fill-rule="evenodd" d="M242.8 244.9v4.9l163.4-.7v-3.8Z" class="g6_10"/>
<path d="M242.8 244.9v4.9l163.4-.7v-3.8" class="g1_10"/>
<path fill-rule="evenodd" d="M463.7 168.7l-.2 3.7l-57.1 76.4l-.1-3.7Z" class="g6_10"/>
<path d="M463.7 168.7l-.2 3.7l-57.1 76.4l-.1-3.7M283 164.1L294.5 198" class="g1_10"/>
<path d="M297.3 194c-1.3 1.5-2 3.3-2.4 5.1c-1.4-1.2-3.1-2.1-5-2.6l-.3-.9c1.8 .5 3.5 1.2 4.9 2.3c.5-1.8 1.3-3.4 2.5-4.8l.3 .9Z" class="g4_10"/>
<path d="M315.9 227.3l24.2-9.7" class="g1_10"/>
<path d="M335.9 215.1c1.5 1.1 3.4 1.7 5.2 2.1c-1.1 1.5-2 3.2-2.3 5.1l-.9 .3c.4-1.8 1-3.5 2-5c-1.8-.3-3.4-1.1-4.9-2.2l.9-.3Z" class="g4_10"/>
<path d="M433.4 154.5L398.1 184" class="g1_10"/>
<path d="M402.8 185.1c-1.8-.6-3.7-.6-5.6-.3c.6-1.8 .9-3.7 .6-5.6l.7-.6c.3 1.8 .2 3.6-.3 5.3c1.8-.1 3.6 .1 5.3 .6l-.7 .6Z" class="g4_10"/>
<path d="M492.9 263.5H672.3V146.9H492.9V263.5Z" class="g6_10"/>
<path fill-rule="evenodd" d="M589.1 228.2L589 236H555.1v-5.7H526.9V219h28.2v-5.6H589v8Z" class="g7_10"/>
<path d="M589.1 228.2L589 236H555.1v-5.7H526.9V219h28.2v-5.6H589v8" class="g1_10"/>
<path d="M588.4 183.9c12 .2 21.7 10.1 21.8 22.3c.1 12.2-9.5 22.2-21.5 22.5Z" class="g7_10"/>
<path d="M588.4 183.9c12 .2 21.7 10.1 21.8 22.3c.1 12.2-9.5 22.2-21.5 22.5m.2-36.4v-8.8" class="g1_10"/>
<path d="M588.3 191.9c5.2-.1 10 2.7 12.6 7.2c2.6 4.5 2.6 10.1 0 14.6c-2.5 4.5-7.3 7.3-12.4 7.3Z" class="g6_10"/>
<path d="M588.3 191.9c5.2-.1 10 2.7 12.6 7.2c2.6 4.5 2.6 10.1 0 14.6c-2.5 4.5-7.3 7.3-12.4 7.3m.3 .7v-8.9" class="g1_10"/>
<path d="M587.2 224.7c0-1.1 .9-2 2.1-2c1.1 .1 2 1 2 2.1c0 1.2-1 2.1-2.1 2.1c-1.1 0-2-1-2-2.1Z" class="g7_10"/>
<path d="M587.2 224.7c0-1.1 .9-2 2.1-2c1.1 .1 2 1 2 2.1c0 1.2-1 2.1-2.1 2.1c-1.1 0-2-1-2-2.1" class="g1_10"/>
<path d="M586.7 187.7c.1-1.1 1-2 2.2-2c1.1 0 2 1 2 2.1c-.1 1.2-1 2.1-2.1 2c-1.2 0-2.1-.9-2.1-2.1Z" class="g7_10"/>
<path d="M586.7 187.7c.1-1.1 1-2 2.2-2c1.1 0 2 1 2 2.1c-.1 1.2-1 2.1-2.1 2c-1.2 0-2.1-.9-2.1-2.1m37.9 57.8l-33-18.1" class="g1_10"/>
<path d="M592.3 232.2c0-1.9-.7-3.7-1.6-5.4c1.8 0 3.7-.5 5.4-1.4l.8 .5c-1.6 .8-3.3 1.4-5.1 1.6c.8 1.6 1.2 3.3 1.4 5.1l-.9-.4Z" class="g4_10"/>
<path d="M589.6 166.3l-.8 16.9" class="g1_10"/>
<path d="M592.8 180.5c-1.7 .9-3 2.3-4.1 3.8c-.9-1.6-2.1-3.1-3.7-4.2l.1-.9c1.5 1.1 2.7 2.3 3.7 3.9c1.1-1.5 2.5-2.6 4-3.5v.9Z" class="g4_10"/>
<path d="M535.9 138.7l-6.7 85.4" class="g1_10"/>
<path d="M533.3 221.5c-1.7 .9-3.1 2.3-4.2 3.8c-.8-1.7-2-3.2-3.5-4.4l.1-.9c1.4 1.1 2.7 2.4 3.5 4c1.2-1.4 2.6-2.6 4.2-3.4l-.1 .9Z" class="g4_10"/>
<path d="M627 124.5l24.5 27.4" class="g1_10"/>
<path d="M652.4 147.1c-.5 1.8-.5 3.7-.2 5.6c-1.8-.6-3.7-.7-5.5-.4l-.7-.7c1.8-.3 3.6-.3 5.4 .1c-.3-1.8-.1-3.6 .4-5.3l.6 .7Z" class="g4_10"/>
<path d="M241.4 462.5H439.1V450.8H241.4v11.7Z" class="g6_10"/>
<path d="M241.4 450.8H439.1v11.7H241.4V450.8Z" class="g1_10"/>
<path d="M305.8 446.5h80.3V409.1H305.8v37.4Z" class="g2_10"/>
<path d="M305.8 446.5V409.1h80.3v37.4" class="g1_10"/>
<path d="M241.2 451.1h99.4v-4.4H241.2v4.4Z" class="g0_10"/>
<path d="M241.2 446.7h99.4v4.4H241.2v-4.4ZM286.8 393l-39.3 64.1" class="g1_10"/>
<path d="M252.3 456.7c-1.9-.1-3.8 .5-5.4 1.4c0-1.9-.4-3.8-1.2-5.5l.5-.8c.8 1.7 1.3 3.4 1.3 5.2c1.7-.8 3.5-1.1 5.3-1.2l-.5 .9Z" class="g4_10"/>
<path d="M348.8 451.1h90.5v-4.4H348.8v4.4Z" class="g0_10"/>
<path d="M348.8 446.7h90.5v4.4H348.8v-4.4Z" class="g1_10"/>
<path d="M341.1 451.6h7.3v-5.5h-7.3v5.5Z" class="g8_10"/>
<path d="M328.4 466.5H439.2v-4.3H328.4v4.3Z" class="g9_10"/>
<path d="M328.4 462.2H439.2v4.3H328.4v-4.3ZM453.8 451l-18.5 14.2" class="g1_10"/>
<path d="M440 466.5c-1.8-.7-3.7-.8-5.6-.7c.7-1.7 1-3.6 .9-5.5l.7-.6c.2 1.9 0 3.7-.6 5.4c1.8-.1 3.6 .2 5.3 .8l-.7 .6Z" class="g4_10"/>
<path d="M499.6 471.4H640.1v-94H499.6v94Z" class="g0_10"/>
<path d="M499.6 377.4H640.1v94H499.6v-94Z" class="g1_10"/>
<path d="M541.2 434.8l58.4-43.7l16.2 21.8l-58.4 43.6l-16.2-21.7Z" class="g2_10"/>
<path d="M541.2 434.8l58.4-43.7l16.2 21.8l-58.4 43.6l-16.2-21.7Zm-83.8-61.4L349.7 447.2" class="g1_10"/>
<path d="M354.2 448.8c-1.7-.8-3.6-1-5.5-1c.8-1.7 1.2-3.6 1.2-5.4l.8-.6c0 1.9-.2 3.6-.9 5.3c1.8 0 3.6 .4 5.2 1.1l-.8 .6Z" class="g4_10"/>
<path d="M490.6 374.4l82 38.8" class="g1_10"/>
<path d="M571.6 408.4c.2 1.9 1 3.7 2 5.2c-1.8 .2-3.7 .8-5.3 1.8l-.8-.4c1.5-1 3.2-1.6 5-1.9c-.9-1.6-1.5-3.3-1.7-5.1l.8 .4Z" class="g4_10"/>
<path d="M524.1 424l149.1-2.2" class="g1_10"/>
<path d="M670.2 417.9c1 1.6 2.5 2.9 4.1 3.8c-1.6 1-3 2.4-4 4h-.9c1-1.6 2.2-2.9 3.6-3.9c-1.5-1-2.7-2.4-3.7-3.9h.9Z" class="g4_10"/>
<path d="M578 445.8l.4-98.2" class="g1_10"/>
<path d="M574.5 350.5c1.6-.9 2.9-2.4 3.9-4c.9 1.6 2.2 3.1 3.8 4.1v.9c-1.5-1-2.8-2.2-3.8-3.7c-1.1 1.5-2.4 2.7-3.9 3.7v-1Z" class="g4_10"/>
<path d="M499.6 419.5h88.9v8.3H499.6v-8.3Z" class="ga_10"/>
<path d="M574.8 411.3h7.1v24.1h-7.1V411.3Z" class="gb_10"/>
<path d="M489.2 441.4l23.6-13.7" class="g1_10"/>
<path d="M508.4 425.8c1.6 .9 3.5 1.3 5.4 1.3c-.9 1.7-1.5 3.5-1.6 5.4l-.8 .5c.1-1.9 .5-3.6 1.3-5.2c-1.8-.2-3.6-.7-5.2-1.5l.9-.5Z" class="g4_10"/>
<path d="M548.5 445.4l114.1-84" class="g3_10"/>
<path d="M658 360c1.7 .7 3.7 .8 5.5 .7c-.7 1.7-1.1 3.6-.9 5.5l-.8 .6c-.1-1.9 .1-3.7 .7-5.3c-1.8 0-3.6-.3-5.3-1l.8-.5Z" class="g4_10"/>
<path d="M645.6 422c2.1-13.4 1.9-26.2-14.9-35.2" class="g1_10"/>
<path d="M631.4 391.6c-.1-1.9-.8-3.7-1.7-5.3c1.9-.1 3.8-.6 5.4-1.4l.9 .4c-1.7 .9-3.4 1.4-5.1 1.6c.8 1.6 1.2 3.4 1.3 5.2l-.8-.5Z" class="g4_10"/>
<path d="M710.9 654.4l-65.1 99H463.6l79.5-97.2l167.8-1.8Z" class="g0_10"/>
<path d="M710.9 654.4l-65.1 99H463.6l79.5-97.2l167.8-1.8Z" class="gc_10"/>
<path d="M709.9 656.6v7.3l-63.2 97.2l-.4-7.6l63.6-96.9Z" class="g6_10"/>
<path d="M709.9 656.6v7.3l-63.2 97.2l-.4-7.6l63.6-96.9Z" class="g1_10"/>
<path d="M495.2 655.3l-72.1 96.1H218.9L309 655.3H495.2Z" class="g6_10"/>
<path d="M495.2 655.3l-72.1 96.1H218.9L309 655.3H495.2Z" class="g1_10"/>
<path d="M218.9 763.4H423.1v-12H218.9v12Z" class="g6_10"/>
<path d="M218.9 751.4H423.1v12H218.9v-12Z" class="g1_10"/>
<path d="M423.1 763.4l72.1-96.1v-12l-72.1 96.1v12Z" class="g6_10"/>
<path d="M423.1 763.4l72.1-96.1v-12l-72.1 96.1v12Z" class="g1_10"/>
<path d="M495.5 655l-72.1 96.1H219.2L309.3 655H495.5Z" class="g0_10"/>
<path d="M495.5 655l-72.1 96.1H219.2L309.3 655H495.5Z" class="g1_10"/>
<path fill-rule="evenodd" d="M322.8 750.8h3.7l30.8-41h-3.7l-30.8 41Z" class="g6_10"/>
<path d="M322.8 750.8h3.7l30.8-41h-3.7l-30.8 41Z" class="g1_10"/>
<path fill-rule="evenodd" d="M329.6 750.8h3.8l30.8-41h-3.8l-30.8 41Z" class="g6_10"/>
<path d="M329.6 750.8h3.8l30.8-41h-3.8l-30.8 41Zm-67.2-89.6l74.4 83" class="g1_10"/>
<path d="M337.8 739.5c-.6 1.8-.5 3.7-.2 5.5c-1.8-.5-3.7-.7-5.6-.4l-.6-.7c1.8-.3 3.6-.2 5.3 .2c-.2-1.8 0-3.6 .4-5.3l.7 .7Z" class="g4_10"/>
<path d="M332.1 693.6c.1-9.2 20.7-17.2 46.1-17.8c25.4-.6 46 6.3 46.2 15.5c.3 9.3-20 17.3-45.4 18.1c-25.4 .7-46.3-6.1-46.9-15.3Z" class="g2_10"/>
<path d="M332.1 693.6c.1-9.2 20.7-17.2 46.1-17.8c25.4-.6 46 6.3 46.2 15.5c.3 9.3-20 17.3-45.4 18.1c-25.4 .7-46.3-6.1-46.9-15.3m.3-68.9v69m92.4-71.6V693" class="g1_10"/>
<path d="M332.7 692.6h91.8V622H332.7v70.6Z" class="g2_10"/>
<path d="M332.6 625c.2-9.3 20.8-17.2 46.1-17.8c25.4-.6 46 6.3 46.3 15.5c.2 9.2-20.1 17.3-45.4 18.1c-25.4 .7-46.4-6.1-47-15.3Z" class="g2_10"/>
<path d="M332.4 625.2c.2-9.3 20.8-17.2 46.2-17.8c25.4-.7 46 6.3 46.2 15.5c.3 9.2-20 17.3-45.4 18.1c-25.4 .7-46.3-6.1-47-15.3" class="g1_10"/>
<path d="M424.8 692.6c-26.5-15.3-54.5-24.9-92.4 0" class="g3_10"/>
<path fill-rule="evenodd" d="M413.3 702.2l-.2-35.3c-5.1 4-8.7 4.9-13.8 5.7v33.7c5.2-.3 10.5-1.6 14.1-4.3Z" class="g0_10"/>
<path d="M413.3 702.2l-.2-35.3c-5.1 4-8.7 4.9-13.8 5.7v33.7c5.2-.3 10.5-1.6 14.1-4.3" class="g1_10"/>
<path fill-rule="evenodd" d="M353.6 709.8L364.7 695h3.7l-11.3 14.9l-3.5-.1Z" class="g6_10"/>
<path d="M353.6 709.8L364.7 695h3.7l-11.3 14.9l-3.5-.1" class="g3_10"/>
<path fill-rule="evenodd" d="M360.5 709.9L371.6 695h3.7L364 709.9h-3.5Z" class="g6_10"/>
<path d="M360.5 709.9L371.6 695h3.7L364 709.9h-3.5" class="g3_10"/>
<path d="M390.3 689.8c.1 4.3-7.7 8-17.3 8.2c-9.6 .2-17.5-3.2-17.5-7.5c-.1-4.4 7.7-8 17.3-8.2c9.6-.2 17.5 3.1 17.5 7.5Z" class="g6_10"/>
<path d="M390.3 689.8c.1 4.3-7.7 8-17.3 8.2c-9.6 .2-17.5-3.2-17.5-7.5c-.1-4.4 7.7-8 17.3-8.2c9.6-.2 17.5 3.1 17.5 7.5Z" class="g3_10"/>
<path d="M386.4 689.6c.1 2.9-5.8 5.3-13 5.4c-7.2 .2-13.1-2-13.2-4.9c0-2.8 5.8-5.2 13-5.4c7.3-.1 13.2 2.1 13.2 4.9Z" class="g0_10"/>
<path d="M386.4 689.6c.1 2.9-5.8 5.3-13 5.4c-7.2 .2-13.1-2-13.2-4.9c0-2.8 5.8-5.2 13-5.4c7.3-.1 13.2 2.1 13.2 4.9Z" class="g3_10"/>
<path d="M396.1 674.1l.4 31" class="g1_10"/>
<path d="M400 676.9c-1.6-.9-2.9-2.4-3.9-3.9c-1 1.6-2.3 3-3.8 4v1c1.5-1 2.8-2.3 3.8-3.8c1 1.5 2.4 2.7 3.9 3.7v-1Z" class="g4_10"/>
<path d="M400.4 702.1c-1.6 1-2.9 2.5-3.9 4.1c-.9-1.6-2.3-3-3.9-4v-.9c1.6 1 2.9 2.2 3.9 3.6c1-1.5 2.4-2.7 3.8-3.7l.1 .9Z" class="g4_10"/>
<path d="M379.1 579.2l26.8 94.4" class="g1_10"/>
<path d="M408.8 669.7c-1.3 1.4-2.1 3.2-2.6 4.9c-1.4-1.2-3-2.2-4.8-2.8l-.3-.9c1.8 .6 3.4 1.4 4.7 2.5c.6-1.7 1.6-3.3 2.7-4.6l.3 .9Z" class="g4_10"/>
<path d="M399.7 711.8H413V700.2H399.7v11.6Z" class="g0_10"/>
<path d="M412.4 702.5c-3.9 1.6-4.6 1.9-11.9 3.9" class="g1_10"/>
<path d="M411.1 707.2c.3-1.9 1.2-3.6 2.4-5.1c-1.9-.3-3.7-1-5.2-2.1l-.9 .3c1.5 1.1 3.1 1.9 4.9 2.3c-1.1 1.5-1.8 3.2-2.1 4.9l.9-.3Z" class="g4_10"/>
<path d="M404.4 709.3c-1.4-1.3-3.2-2.1-4.9-2.6c1.2-1.4 2.2-3.1 2.8-4.9l.9-.2c-.6 1.7-1.4 3.3-2.5 4.7c1.7 .6 3.3 1.5 4.6 2.7l-.9 .3Z" class="g4_10"/>
<path d="M414.8 721.3c-1.7-3.4-5-10.3-6.3-12.9" class="g1_10"/>
<path d="M406.3 712.7c1.1-1.6 1.6-3.5 1.7-5.3c1.6 1 3.4 1.7 5.3 1.9l.4 .9c-1.8-.3-3.5-.8-5.1-1.7c-.3 1.8-.9 3.5-1.8 5.1l-.5-.9Z" class="g4_10"/>
<path d="M380.5 725.1c.3-14.2 9-22.4 15-32.4" class="g1_10"/>
<path d="M390.6 693c1.9 .1 3.8-.5 5.5-1.3c-.1 1.9 .2 3.8 1 5.5l-.5 .8c-.7-1.7-1.2-3.4-1.2-5.2c-1.7 .7-3.5 1-5.3 1l.5-.8Z" class="g4_10"/>
<path d="M644.3 667.9l-21.4 26.8h-75l26.8-26.8h69.6Z" class="g2_10"/>
<path d="M644.3 667.9l-21.4 26.8h-75l26.8-26.8h69.6Z" class="g1_10"/>
<path d="M644.4 667.8l.3 30.7L622.9 726V693.9l21.5-26.1Z" class="g2_10"/>
<path d="M644.4 667.8l.3 30.7L622.9 726V693.9l21.5-26.1Z" class="g1_10"/>
<path d="M548 725.4h75.1V694.1H548v31.3Z" class="g2_10"/>
<path d="M548 694.1h75.1v31.3H548V694.1Z" class="g1_10"/>
<path d="M577 698.6h66.2m-68.3-30.9l-.1 30.9L548 725.4" class="g3_10"/>
<path d="M586 720.1L600.6 701l5.1 .5L592.2 720l-6.2 .1Z" class="gb_10"/>
<path fill-rule="evenodd" d="M463.9 753.2l-.2 6.8L647 761.7l-.5-8l-182.6-.5Z" class="g6_10"/>
<path d="M463.9 753.2l-.2 6.8L647 761.7l-.5-8l-182.6-.5Z" class="g1_10"/>
<path d="M503 712.5l113.7-.2l3.8-5.7l-113 1.3l-4.5 4.6Z" class="gb_10"/>
<path fill-rule="evenodd" d="M572.5 677.8l12.4-6.1l39.8 11.8l-12.1 7.9l-40.1-13.6Z" class="g0_10"/>
<path d="M572.5 677.8l12.4-6.1l39.8 11.8l-12.1 7.9l-40.1-13.6Zm10.4-50.6l1.6 44" class="g1_10"/>
<path d="M588.3 668.2c-1.6 1-2.8 2.5-3.7 4.1c-1.1-1.5-2.4-2.9-4.1-3.8v-1c1.6 1 2.9 2.1 4 3.6c1-1.6 2.3-2.9 3.7-3.9l.1 1Z" class="g4_10"/>
<path d="M482.9 617.9l-32 43.7" class="g1_10"/>
<path d="M455.7 661.6c-1.8-.2-3.7 .2-5.5 .9c.2-1.8 0-3.8-.7-5.5l.6-.8c.6 1.7 1 3.5 .9 5.3c1.7-.6 3.5-.8 5.3-.7l-.6 .8Z" class="g4_10"/>
<path d="M529.6 630l19.5 45.9" class="g1_10"/>
<path d="M551.5 671.7c-1.1 1.5-1.7 3.4-2 5.2c-1.5-1.1-3.3-1.9-5.1-2.2l-.4-.8c1.8 .3 3.5 .9 5 1.9c.3-1.8 1.1-3.5 2.1-5l.4 .9Z" class="g4_10"/>
<path d="M491.4 714.5l27.9 42.8" class="g1_10"/>
<path d="M521 752.8c-.8 1.6-1.1 3.6-1 5.4c-1.7-.8-3.6-1.2-5.5-1.2l-.5-.8c1.8 0 3.6 .3 5.3 1c0-1.8 .4-3.6 1.2-5.3l.5 .9Z" class="g4_10"/>
<path d="M484.7 698.1l-4.9-17.5" class="g1_10"/>
<path d="M476.8 684.4c1.3-1.3 2.2-3.1 2.7-4.9c1.3 1.3 3 2.3 4.8 2.8l.2 .9c-1.7-.5-3.3-1.3-4.7-2.5c-.6 1.7-1.5 3.3-2.7 4.6l-.3-.9Z" class="g4_10"/>
<path d="M589.4 668.3L627 680.4" class="g1_10"/>
<path d="M593.4 665.5c-1.4 1.3-3.2 2-5 2.5c1.2 1.4 2.2 3.1 2.6 4.9l.9 .3c-.4-1.8-1.2-3.4-2.3-4.8c1.7-.5 3.3-1.4 4.7-2.6l-.9-.3Z" class="g4_10"/>
<path d="M625.4 675.8c.4 1.8 1.4 3.5 2.6 4.9c-1.8 .4-3.5 1.3-5 2.5l-.9-.3c1.4-1.2 3-2.1 4.7-2.6c-1.1-1.4-1.9-3.1-2.3-4.8l.9 .3Z" class="g4_10"/>
<path d="M627 685.2c-3.5 2.3-5.4 3.7-12.2 7.1" class="g1_10"/>
<path d="M626.6 690c0-1.8 .5-3.7 1.3-5.4c-1.8 .1-3.7-.3-5.4-1.1l-.8 .6c1.6 .7 3.4 1.2 5.2 1.2c-.7 1.7-1.1 3.5-1.1 5.3l.8-.6Z" class="g4_10"/>
<path d="M619.2 694.3c-1.7-.9-3.6-1.3-5.4-1.5c.9-1.6 1.6-3.4 1.7-5.3l.8-.4c-.1 1.8-.6 3.5-1.4 5.1c1.8 .2 3.5 .8 5.1 1.7l-.8 .4Z" class="g4_10"/>
<path d="M656 693.4c-11.7 4.1-23.1 5-33.2-3.5" class="g1_10"/>
<path d="M622.6 694.7c.3-1.9 0-3.8-.6-5.6c1.8 .3 3.7 .2 5.5-.4l.8 .6c-1.8 .6-3.6 .8-5.3 .6c.5 1.8 .6 3.6 .4 5.4l-.8-.6Z" class="g4_10"/>
<path d="M587.1 736.5l3.6-14.8" class="g1_10"/>
<path d="M586.3 723.7c1.8-.6 3.4-1.7 4.7-3c.5 1.7 1.5 3.4 2.8 4.8l-.2 .9c-1.3-1.3-2.3-2.8-2.9-4.5c-1.4 1.2-3 2.1-4.6 2.7l.2-.9Z" class="g4_10"/>
</g>
</svg>