<svg viewBox="0 0 916 1222" version="1.1" xmlns="http://www.w3.org/2000/svg">
<defs>
<clipPath id="c0_9"><path d="M-.2 1222.5V-.2H918.5V1222.5Z"/></clipPath>
<style>
.g0_9{fill:#F07A2B;}
.g1_9{fill:none;stroke:#F07A2B;stroke-width:0.763;stroke-linejoin:bevel;}
.g2_9{fill:#3AC1F0;}
.g3_9{fill:none;stroke:#231F20;stroke-width:0.763;stroke-linejoin:bevel;}
.g4_9{fill:#231F20;}
.g5_9{fill:#2A793C;}
.g6_9{fill:#366433;}
.g7_9{fill:#663F27;}
.g8_9{fill:#EE2C28;}
.g9_9{fill:#FFF;}
.ga_9{fill:none;stroke:#F07A2B;stroke-width:1.145;stroke-linejoin:bevel;}
.gb_9{fill:#6D6F71;}
.gc_9{fill:#383738;}
.gd_9{fill:none;stroke:#383738;stroke-width:0.763;stroke-linejoin:bevel;}
.ge_9{fill:#DEDFE0;}
.gf_9{fill:#279B57;}
.gg_9{fill:none;stroke:#3F3D3E;stroke-width:0.763;stroke-linejoin:bevel;stroke-dasharray:1,4;}
.gh_9{fill:none;stroke:#3F3D3E;stroke-width:0.763;stroke-linejoin:bevel;}
.gi_9{fill:none;stroke:#231F20;stroke-width:0.763;stroke-linejoin:bevel;}
.gj_9{fill:none;stroke:#3F3D3E;stroke-width:0.763;stroke-linejoin:bevel;}
.gk_9{fill:#3F3D3E;}
.gl_9{fill:#EF3D29;}
.gm_9{fill:none;stroke:#EE2C28;stroke-width:0.763;stroke-linejoin:bevel;}
</style>
</defs>
<g clip-path="url(#c0_9)">
<path d="M277.9 216.7H398.6v-6.8H277.9v6.8Z" class="g0_9"/>
<path d="M398.6 209.9H277.9v6.8H398.6v-6.8Z" class="g1_9"/>
<path d="M249.4 209.9h44.8V167.8H249.4v42.1Z" class="g2_9"/>
<path d="M249.4 167.8h44.8v42.1H249.4V167.8ZM314 147.6l-39.9 64.7" class="g3_9"/>
<path d="M278.9 211.9c-1.8-.1-3.7 .5-5.4 1.3c0-1.8-.3-3.7-1.1-5.4l.5-.8c.7 1.6 1.2 3.4 1.3 5.2c1.6-.8 3.4-1.1 5.2-1.2l-.5 .9Z" class="g4_9"/>
<path d="M148.5 216.7H269.1v-6.8H148.5v6.8Z" class="g0_9"/>
<path d="M269.1 209.9H148.5v6.8H269.1v-6.8Z" class="g1_9"/>
<path d="M148.8 229.3H398.3V217.7H148.8v11.6Z" class="g5_9"/>
<path d="M149.5 228.6H397.6V218.3H149.5v10.3Zm248.8 1.3H148.8l-.6-.6V217.7l.6-.7H398.3l.6 .7v11.6l-.6 .6Z" class="g6_9"/>
<path d="M129.1 212.7l27.6-.2" class="g3_9"/>
<path d="M153.8 208.7c.9 1.6 2.4 2.9 4 3.8c-1.6 1-3 2.3-4 3.9h-.9c1-1.5 2.2-2.9 3.6-3.9c-1.5-1-2.7-2.3-3.7-3.8h1Z" class="g4_9"/>
<path d="M296.5 250.3L279.1 234" class="g3_9"/>
<path d="M278.6 238.8c.4-1.9 .2-3.8-.3-5.6c1.8 .4 3.7 .4 5.6-.1l.7 .7c-1.8 .4-3.6 .6-5.4 .3c.4 1.7 .4 3.6 .1 5.3l-.7-.6Z" class="g4_9"/>
<path d="M148.5 210.3h66.9V209H148.5v1.3Z" class="g7_9"/>
<path d="M265.7 233.2h17.9v-3.6H265.7v3.6Z" class="g8_9"/>
<path d="M328.2 132.2h69.7v77.2H328.3c0 0-.1-77.4-.1-77.2Z" class="g9_9"/>
<path d="M330.3 210.7L378 134" class="ga_9"/>
<path d="M378.3 134.6h19v75H331.6l46.7-75Z" class="gb_9"/>
<path d="M218 132.2H148.3v77.2h69.6c0 0 .1-77.4 .1-77.2Z" class="g9_9"/>
<path d="M214.8 209.5l-46.7-75.2" class="ga_9"/>
<path d="M167.6 134.6h-19v75h65.7l-46.7-75Z" class="gb_9"/>
<path d="M385.8 127.7l-6.4 27.9" class="g3_9"/>
<path d="M383.8 153.6c-1.8 .6-3.4 1.7-4.7 3.1c-.6-1.8-1.5-3.5-2.8-4.8l.2-.9c1.2 1.3 2.3 2.7 2.9 4.4c1.3-1.2 2.9-2.1 4.6-2.7l-.2 .9Z" class="g4_9"/>
<path d="M418.4 462.1H88l.1 59.6l59.1-.1l212.7 .1h59.2l-.7-59.6Z" class="g0_9"/>
<path d="M358.8 521.6H146.4l16.7 16.6H342.6l16.2-16.6Z" class="g0_9"/>
<path d="M148.8 525.1l-29.9-29.7l1.1-1.1L149.9 524l-1.1 1.1Z" class="gc_9"/>
<path d="M87.3 522.4v-1.5h59.1v1.5H87.3Z" class="gc_9"/>
<path d="M86.6 521.7V494.9l1.5-.1v26.9H86.6Z" class="gc_9"/>
<path d="M118.9 495.4L86.8 463.5l1.1-1.1L120 494.3l-1.1 1.1Z" class="gc_9"/>
<path d="M86.6 494.9L86.5 463h1.6v31.9H86.6Z" class="gc_9"/>
<path d="M218.3 561.1h.1m0-22.9H163.1" class="gd_9"/>
<path d="M163.1 539h51v-1.5h-51V539Z" class="gc_9"/>
<path d="M218.3 521.7V511.1h3.9l-.1 50h-3.8V521.7Z" class="gc_9"/>
<path d="M214.1 561.1V538.2h4.2v22.9h-4.2Z" class="ge_9"/>
<path d="M214.1 561.1h4.2m-4.2-22.9v22.9m4.2-22.9v22.9m.1-22.9h-4.3m4.2-8.5v8.5m0-16.5v8m0-18.6v10.6m3.9-10.6h-3.8m3.8 0l-.1 50m0 0h-3.8" class="gd_9"/>
<path d="M162.6 538.8l-8.6-8.5l1.1-1.1l8.6 8.5l-1.1 1.1Z" class="gc_9"/>
<path d="M154 530.3l-5.2-5.2l1.1-1.1l5.2 5.2l-1.1 1.1Z" class="gc_9"/>
<path d="M218.4 511.1h-.1" class="gd_9"/>
<path d="M356.9 525.1l-1.1-1.1l29.9-29.7l1.1 1.1l-29.9 29.7Z" class="gc_9"/>
<path d="M419.1 521.7h-1.5V494.9h1.6l-.1 26.8Z" class="gc_9"/>
<path d="M359.2 522.5V521l59.2-.1v1.5l-59.2 .1Z" class="gc_9"/>
<path d="M386.8 495.4l-1.1-1.1l32.1-31.9l1.1 1.1l-32.1 31.9Z" class="gc_9"/>
<path d="M419.2 494.8h-1.6l.1-31.8h1.5v31.8Z" class="gc_9"/>
<path d="M287.3 561.1h.1m55.2-22.9H287.3" class="gd_9"/>
<path d="M291.6 539h51v-1.5h-51V539Z" class="gc_9"/>
<path d="M291.6 538.2h-4.3" class="gd_9"/>
<path d="M343.1 538.8l-1.1-1.1l8.6-8.5l1.1 1.1l-8.6 8.5Z" class="gc_9"/>
<path d="M351.7 530.3l-1.1-1.1l5.2-5.2l1.1 1.1l-5.2 5.2Z" class="gc_9"/>
<path d="M287.4 511.1h-.1m-3.7 50h3.7m-68.9 0h3.7m57.3 0h7.9m-68.9 0h7.9m61-22.9H218.4h68.9m-61 0h53.1" class="gd_9"/>
<path d="M237.8 539h30.1v-1.5H237.8V539Z" class="gc_9"/>
<path d="M287.3 538.2h-7.9m-53.1 0h-7.9m65.2 0v-8.5m-61.5 8.5v-8.5m61.5 0v-8m-61.5 8l.1-8V511.1m61.3 0v10.6" class="gd_9"/>
<path d="M169.5 463l-8.3-2.7l.2-.3l1.7-4.8l1.8-4.4l1.8-3.9l1.9-3.5l1.8-3.1l1.8-3l1.9-2.7l1.8-2.5l1.8-2.3l1.9-2.2l1.8-2.1l.3-.4l1.5-1.6l1.9-1.9l1.8-1.7l1.8-1.7l1.9-1.6l1.8-1.5l1.8-1.5l1.9-1.3l1.8-1.3l1.8-1.3l1.8-1.2l1.9-1.1l1.8-1.1l1.8-1l1.9-.9l1.8-1l1.8-.8l1.9-.9l1.8-.7l1.8-.8l.4-.1l1.5-.5l1.8-.7l1.8-.6l1.9-.6l1.8-.5l1.8-.5l1.9-.4l1.8-.4l1.8-.4l1.9-.3l1.8-.3l1.8-.3l1.9-.2l1.8-.2l1.8-.2l1.9-.1l1.8-.1H251l1.9-.1l1.8 .1h1.8l1.8 .1l1.9 .1l1.8 .2l1.8 .2l1.9 .2l1.8 .3l1.8 .3l1.9 .3l1.8 .4l1.8 .4l1.9 .4l1.8 .5l1.8 .5l1.9 .6l1.8 .6l1.8 .7l1.5 .5l.4 .1l1.8 .8l1.8 .7l1.9 .9l1.8 .8l1.8 1l1.9 .9l1.8 1l1.8 1.1l1.9 1.1l1.8 1.2l1.8 1.3l1.8 1.3l1.9 1.3l1.8 1.5l1.8 1.5l1.9 1.6l1.8 1.7l1.8 1.7l1.9 1.9l1.5 1.6l.3 .4l1.8 2.1l1.9 2.2l1.8 2.3l1.8 2.5l1.9 2.7l1.8 3l1.8 3.1l1.9 3.5l1.8 3.9l1.8 4.4l1.8 4.8l.1 .3l-76 24.7l-15.6 5.1L237.2 485l-15-4.9l-3.8-1.3L169.5 463Z" class="gf_9"/>
<path d="M218.4 400.1l-.4 .1l-1.8 .8l-1.8 .7l-1.9 .9l-1.8 .8l-1.8 1l-1.9 .9l-1.8 1l-1.8 1.1l-1.9 1.1l-1.8 1.2l-1.8 1.3l-1.8 1.3l-1.9 1.3l-1.8 1.5l-1.8 1.5l-1.9 1.6l-1.8 1.6l-1.8 1.8l-1.9 1.9l-1.5 1.6l-.3 .4l-1.8 2.1l-1.9 2.2l-1.8 2.3l-1.8 2.5l-1.9 2.7l-1.8 2.9l-1.8 3.2l-1.9 3.5l-1.8 3.9l-1.8 4.4l-1.7 4.8l-.2 .3l8.3 2.7l48.9 15.8m69.3-78.6l-.4-.1m2.2 .9l-1.8-.8m3.6 1.5l-1.8-.7m3.7 1.6l-1.9-.9m3.7 1.7l-1.8-.8m3.6 1.8l-1.8-1m3.7 1.9l-1.9-.9m3.7 1.9l-1.8-1m3.6 2.1l-1.8-1.1m3.7 2.2l-1.9-1.1m3.7 2.3l-1.8-1.2m3.6 2.5l-1.8-1.3m3.6 2.6l-1.8-1.3m3.7 2.6l-1.9-1.3m3.7 2.8l-1.8-1.5m3.6 3l-1.8-1.5m3.7 3.1l-1.9-1.6m3.7 3.3l-1.8-1.7m3.6 3.4l-1.8-1.7m3.7 3.6l-1.9-1.9m3.4 3.5l-1.5-1.6m1.8 2l-.3-.4m2.1 2.5l-1.8-2.1m3.7 4.3l-1.9-2.2m3.7 4.5l-1.8-2.3m3.6 4.8l-1.8-2.5m3.7 5.2l-1.9-2.7m3.7 5.6l-1.8-2.9m3.6 6.1l-1.8-3.2m3.7 6.7l-1.9-3.5m3.7 7.4l-1.8-3.9m3.6 8.3l-1.8-4.4m3.6 9.2l-1.8-4.8m-6.4 7.8l8.3-2.7l-.1-.3m-57.1 18.8L336.2 463m-83.3-69.3H251m3.7 0h-1.8m-1.9 0l-1.8 .1m7.3 0l-1.8-.1m-5.5 .1l-1.8 .1m10.9 0l-1.8-.1m-9.1 .1l-1.9 .1m14.7 0l-1.9-.1m-12.8 .1l-1.8 .2m18.3 0l-1.8-.2m-16.5 .2l-1.8 .2m21.9 0l-1.8-.2m-20.1 .2l-1.9 .2m25.7 0l-1.9-.2m-23.8 .2l-1.8 .3m29.3 0l-1.8-.3m-27.5 .3l-1.8 .3m32.9 0l-1.8-.3m-31.1 .3l-1.9 .3m36.7 0l-1.9-.3m-34.8 .3l-1.8 .4m40.3 0l-1.8-.4m-38.5 .4l-1.8 .4m43.9 0l-1.8-.4m-42.1 .4l-1.9 .4m47.7 0l-1.9-.4m-45.8 .4l-1.8 .5m51.3 0l-1.8-.5m-49.5 .5l-1.8 .5m54.9 0l-1.8-.5m-53.1 .5l-1.9 .6m58.7 0l-1.9-.6m-56.8 .6l-1.8 .6m62.3 0l-1.8-.6m-60.5 .6l-1.8 .7m65.9 0l-1.8-.7m-64.1 .7l-1.5 .5m68.9 0l-1.5-.5m-32.9 90.5l15.6-5.1m-31.3 0l15.7 5.1m15.6-5.1l15.1-4.9m-61.5 0l15.1 4.9m46.4-4.9l3.7-1.3m-68.9 0l3.7 1.3" class="gd_9"/>
<path d="M149.1 521.6H361.5" class="gg_9"/>
<path d="M87.2 462.1h79.6m250.8 0H339.1" class="gh_9"/>
<path d="M222.1 494.9V480.1l15.6 5l.1 9.8v43.3H222.1V494.9Z" class="g2_9"/>
<path d="M237.8 529.7v8.5m-15.7-8.5v8.5m15.7-16.5v8m-15.7-8v8m15.7-34.8v26.8m-15.7-26.8v26.8m15.6-36.6l.1 9.8m-15.7-14.8v14.8m0 43.3h15.7m-15.7-58.1l15.6 5" class="gd_9"/>
<path d="M226.3 561.1h-4.2V538.2h4.2v22.9Z" class="ge_9"/>
<path d="M222.1 561.1V538.2m4.2 22.9V538.2m-4.2 0h4.2m0 22.9h-4.2" class="gd_9"/>
<path d="M279.4 561.1V538.2h4.2v22.9h-4.2Z" class="ge_9"/>
<path d="M279.4 538.2v22.9m4.2-22.9v22.9m0-22.9h-4.2m0 22.9h4.2" class="gd_9"/>
<path d="M283.6 561.1l-.1-50h3.9v50h-3.8Z" class="gc_9"/>
<path d="M283.6 561.1l-.1-50h3.9v50h-3.8Z" class="g3_9"/>
<path d="M291.6 561.1h-4.2V538.2h4.2v22.9Z" class="ge_9"/>
<path d="M287.4 538.2v-8.5m0 0V511.1m-.1 0h-3.8m3.9 50V538.2m0 22.9h4.2V538.2m-4.2 0h4.2m-8.1-27.1l.1 50m3.8 0h-3.8" class="gi_9"/>
<path d="M283.6 538.2H267.9V494.9l.1-9.8l15.6-5v41.6h-.1l.1 8v8.5Z" class="g2_9"/>
<path d="M283.6 529.7v8.5m-.1-16.5l.1 8m0-8V494.9m-15.7 43.3V494.9m15.7 0V480.1m-15.7 14.8l.1-9.8m-.1 53.1h15.7M268 485.1l15.6-5" class="gj_9"/>
<path d="M226.3 539h11.5v-1.5H226.3V539Z" class="gc_9"/>
<path d="M267.9 539h11.5v-1.5H267.9V539Z" class="gc_9"/>
<path d="M353.8 460.5l27.8-28" class="gj_9"/>
<path d="M353.1 455.7c.4 1.9 .3 3.8-.1 5.6c1.8-.4 3.7-.5 5.6-.1l.6-.7c-1.8-.4-3.6-.4-5.3-.1c.3-1.8 .2-3.6-.1-5.3l-.7 .6Z" class="gk_9"/>
<path d="M381.6 432.5h52.1M289.2 398.9l27.3-27.6" class="gj_9"/>
<path d="M288.5 394.1c.5 1.8 .3 3.8-.1 5.6c1.8-.4 3.8-.5 5.6-.1l.7-.7c-1.8-.4-3.6-.5-5.4-.1c.3-1.8 .3-3.6-.1-5.4l-.7 .7Z" class="gk_9"/>
<path d="M316.5 371.3h37.6M284.6 501.6L321.5 490" class="gj_9"/>
<path d="M286.3 497c-.5 1.9-1.5 3.5-2.7 4.9c1.8 .5 3.5 1.3 5 2.5l.9-.3c-1.4-1.1-3-2-4.7-2.6c1.1-1.4 1.9-3 2.4-4.7l-.9 .2Z" class="gk_9"/>
<path d="M321.8 490.1h21.5" class="gj_9"/>
<path d="M217.8 560.6h4.4V510.7h-4.4v49.9Z" class="gl_9"/>
<path d="M217.8 510.7h4.4v49.9h-4.4V510.7Z" class="gm_9"/>
<path d="M283.6 560.5H288v-50h-4.4v50Z" class="gl_9"/>
<path d="M283.6 510.5H288v50h-4.4v-50Z" class="gm_9"/>
</g>
</svg>