<svg viewBox="0 0 916 1222" version="1.1" xmlns="http://www.w3.org/2000/svg">
<defs>
<clipPath id="c0_14"><path d="M-.2 1222.5V-.2H918.5V1222.5Z"/></clipPath>
<style>
.g0_14{fill:#3AC1F0;}
.g1_14{fill:none;stroke:#231F20;stroke-width:0.763;stroke-linejoin:bevel;}
.g2_14{fill:#828386;}
.g3_14{fill:none;stroke:#231F20;stroke-width:0.763;stroke-linejoin:bevel;}
.g4_14{fill:#2A793C;}
.g5_14{fill:#F07A2B;}
.g6_14{fill:#FFF;}
.g7_14{fill:#EC2B26;}
.g8_14{fill:#231F20;}
.g9_14{fill:none;stroke:#231F20;stroke-width:0.618;stroke-miterlimit:10;}
</style>
</defs>
<g clip-path="url(#c0_14)">
<path d="M456 267.8h39.5V247.7H456v20.1Z" class="g0_14"/>
<path d="M456 267.8V247.7h39.5v20.1" class="g1_14"/>
<path d="M575.7 267.9h39.5V247.7H575.7v20.2Z" class="g0_14"/>
<path d="M575.7 267.9V247.7h39.5v20.2" class="g1_14"/>
<path d="M428 280.9H641.1V267.5H428v13.4Z" class="g2_14"/>
<path d="M641.1 280.9H428V267.5H641.1v13.4Z" class="g3_14"/>
<path d="M248.1 304.3H402.8V149.6H248.1V304.3Z" class="g2_14"/>
<path d="M248.1 149.6H402.8V304.3H248.1V149.6Z" class="g3_14"/>
<path d="M428.9 297.7H641V285.1H428.9v12.6Z" class="g4_14"/>
<path d="M428.9 285.1H641v12.6H428.9V285.1Z" class="g1_14"/>
<path d="M428.9 285.3H641.1v-4.4H428.9v4.4Z" class="g5_14"/>
<path d="M428.9 280.9H641.1v4.3H428.9v-4.3Z" class="g1_14"/>
<path d="M533.2 285.4H541v-5.9h-7.8v5.9Z" class="g6_14"/>
<path d="M429.3 302.6H543.7v-4.7H429.3v4.7Z" class="g7_14"/>
<path d="M429.3 297.9H543.7v4.7H429.3v-4.7Z" class="g1_14"/>
<path d="M509.9 267.7h49.4v-5.1H509.9v5.1Z" class="g7_14"/>
<path d="M509.9 262.6h49.4v5.1H509.9v-5.1Z" class="g1_14"/>
<path d="M385.9 227.2c0 33.2-26.9 60.1-60.1 60.1c-33.2 0-60.1-26.9-60.1-60.1c0-33.2 26.9-60.1 60.1-60.1c33.2 0 60.1 26.9 60.1 60.1Z" class="g0_14"/>
<path d="M385.9 227.2c0 33.2-26.9 60.1-60.1 60.1c-33.2 0-60.1-26.9-60.1-60.1c0-33.2 26.9-60.1 60.1-60.1c33.2 0 60.1 26.9 60.1 60.1Z" class="g3_14"/>
<path d="M355.1 227.8c0 17.1-13.9 30.9-30.9 30.9c-17.1 0-31-13.8-31-30.9c0-17.1 13.9-31 31-31c17 0 30.9 13.9 30.9 31Z" class="g2_14"/>
<path d="M355.1 227.8c0 17.1-13.9 30.9-30.9 30.9c-17.1 0-31-13.8-31-30.9c0-17.1 13.9-31 31-31c17 0 30.9 13.9 30.9 31Z" class="g3_14"/>
<path d="M470.1 125.8L367.4 207.9" class="g1_14"/>
<path d="M372.1 209.1c-1.7-.7-3.7-.8-5.5-.5c.6-1.8 .9-3.7 .7-5.6l.7-.6c.2 1.9 .1 3.7-.4 5.4c1.8-.2 3.6 .1 5.3 .7l-.8 .6Z" class="g8_14"/>
<path d="M482.8 254.5L470.7 125.1L582.1 254.8" class="g1_14"/>
<path d="M478.7 252c1.7 .8 3.1 2.2 4.2 3.6c.8-1.6 2-3.2 3.5-4.3l-.1-1c-1.4 1.2-2.6 2.5-3.5 4.1c-1.1-1.4-2.6-2.5-4.2-3.4l.1 1Z" class="g8_14"/>
<path d="M583.2 250.1c-.6 1.8-.6 3.7-.4 5.5c-1.7-.5-3.7-.8-5.5-.5l-.6-.7c1.8-.2 3.6-.2 5.3 .3c-.2-1.8 0-3.6 .5-5.4l.7 .8Z" class="g8_14"/>
<path d="M577.9 192.7l-30.3 69.1" class="g1_14"/>
<path d="M552.3 260.7c-1.9 .2-3.6 1-5.1 2.1c-.3-1.9-.9-3.7-2-5.3l.4-.8c1 1.5 1.7 3.1 2.1 4.9c1.5-.9 3.2-1.6 5-1.8l-.4 .9Z" class="g8_14"/>
<path d="M645.5 252.3l-34.8 3.2" class="g1_14"/>
<path d="M614 259.1c-1.1-1.5-2.7-2.6-4.4-3.5c1.5-1.1 2.8-2.5 3.6-4.2l1-.1c-.9 1.7-1.9 3.1-3.3 4.2c1.6 .9 2.9 2.1 4 3.5l-.9 .1Z" class="g8_14"/>
<path d="M647.3 273.1l-33 .7" class="g1_14"/>
<path d="M617.3 277.6c-1-1.6-2.5-2.8-4.1-3.8c1.6-1 3-2.3 4-3.9h.9c-1 1.5-2.1 2.9-3.6 3.9c1.5 1 2.8 2.3 3.8 3.8h-1Z" class="g8_14"/>
<path d="M647.1 292.8l-27.8-.4" class="g1_14"/>
<path d="M622.2 296.3c-1-1.6-2.4-2.9-4-3.9c1.6-.9 3-2.2 4.1-3.8h.9c-1 1.5-2.2 2.8-3.7 3.8c1.5 1.1 2.7 2.4 3.6 3.9h-.9Z" class="g8_14"/>
<path d="M384.1 270l69.2 6.9" class="g1_14"/>
<path d="M387.4 266.5c-1.1 1.5-2.7 2.6-4.4 3.4c1.5 1.1 2.8 2.6 3.6 4.3l1 .1c-.9-1.7-1.9-3.1-3.3-4.3c1.6-.8 2.9-2 4-3.4l-.9-.1Z" class="g8_14"/>
<path d="M450.8 272.8c.7 1.7 2.1 3.1 3.6 4.3c-1.7 .8-3.3 1.9-4.4 3.4l-1-.1c1.2-1.4 2.5-2.6 4.1-3.5c-1.4-1.1-2.5-2.6-3.3-4.2l1 .1Z" class="g8_14"/>
<path d="M456.5 231.3l29.4 50.2" class="g1_14"/>
<path d="M487.8 277c-.9 1.6-1.3 3.5-1.3 5.4c-1.7-.9-3.5-1.4-5.4-1.5l-.5-.8c1.9 .1 3.6 .4 5.2 1.2c.2-1.8 .7-3.6 1.5-5.1l.5 .8Z" class="g8_14"/>
<path d="M345 227.8c0 11.4-9.3 20.7-20.8 20.7c-11.6 0-20.9-9.3-20.9-20.7c0-11.5 9.3-20.8 20.9-20.8c11.5 0 20.8 9.3 20.8 20.8Z" class="g7_14"/>
<path d="M345 227.8c0 11.4-9.3 20.7-20.8 20.7c-11.6 0-20.9-9.3-20.9-20.7c0-11.5 9.3-20.8 20.9-20.8c11.5 0 20.8 9.3 20.8 20.8Z" class="g3_14"/>
<path d="M77.3 409.9h761m-761 51.7h761M77.3 889.5h761" class="g9_14"/>
</g>
</svg>